<svg xmlns="http://www.w3.org/2000/svg" xmlns:xlink="http://www.w3.org/1999/xlink" width="269" height="257" viewBox="0 0 269 257">
  <defs>
    <clipPath id="clip-path">
      <path id="Path_585" data-name="Path 585" d="M78.215,0A78.215,78.215,0,1,1,0,78.215,78.215,78.215,0,0,1,78.215,0Z" transform="translate(532.097 3748.362)" fill="#fff"/>
    </clipPath>
    <clipPath id="clip-path-2">
      <rect id="Rectangle_96" data-name="Rectangle 96" width="143" height="112" transform="translate(334 3744)" fill="#fff" stroke="#707070" stroke-width="1"/>
    </clipPath>
  </defs>
  <g id="Group_335" data-name="Group 335" transform="translate(-1173 -4677)">
    <g id="Rectangle_130" data-name="Rectangle 130" transform="translate(1173 4677)" fill="#fff" stroke="#707070" stroke-width="1" opacity="0">
      <rect width="269" height="257" stroke="none"/>
      <rect x="0.5" y="0.5" width="268" height="256" fill="none"/>
    </g>
    <g id="Group_334" data-name="Group 334" transform="translate(-6 17.5)">
      <g id="Group_329" data-name="Group 329" transform="translate(0 -8.826)">
        <ellipse id="Ellipse_114" data-name="Ellipse 114" cx="91.547" cy="93.411" rx="91.547" ry="93.411" transform="translate(1205 4695.326)" fill="#ffffdc"/>
        <ellipse id="Ellipse_59" data-name="Ellipse 59" cx="103.742" cy="100.219" rx="103.742" ry="100.219" transform="translate(1207.49 4697.383)" fill="rgba(255,240,107,0.44)"/>
        <path id="Path_456" data-name="Path 456" d="M100.736,0c55.635,0,100.736,44.028,100.736,98.34s-45.1,98.34-100.736,98.34S0,152.652,0,98.34,45.1,0,100.736,0Z" transform="translate(1210.495 4697.383)" fill="#ffecb3" opacity="0.3"/>
        <ellipse id="Ellipse_55" data-name="Ellipse 55" cx="91.407" cy="93.268" rx="91.407" ry="93.268" transform="translate(1220.897 4697.344)" fill="#ffd54f" opacity="0.3"/>
        <ellipse id="Ellipse_40" data-name="Ellipse 40" cx="86.626" cy="82.612" rx="86.626" ry="82.612" transform="translate(1225.163 4710.744)" fill="#ffca28" opacity="0.33"/>
        <ellipse id="Ellipse_87" data-name="Ellipse 87" cx="86.626" cy="82.612" rx="86.626" ry="82.612" transform="translate(1214.636 4713.271)" fill="#ff8f00" opacity="0.33"/>
        <ellipse id="Ellipse_88" data-name="Ellipse 88" cx="86.626" cy="82.612" rx="86.626" ry="82.612" transform="translate(1230.637 4722.113)" fill="#ff6f00" opacity="0.33"/>
        <ellipse id="Ellipse_99" data-name="Ellipse 99" cx="81.78" cy="81.78" rx="81.78" ry="81.78" transform="translate(1229.717 4718.366)" fill="#fff"/>
      </g>
      <g id="Group_256" data-name="Group 256" transform="translate(943.903 952)">
        <g id="Group_237" data-name="Group 237" transform="translate(-240 22)">
          <g id="Mask_Group_31" data-name="Mask Group 31" clip-path="url(#clip-path)">
            <g id="Group_235" data-name="Group 235" transform="translate(-698.763 176.353) rotate(-11)">
              <g id="Group_234" data-name="Group 234" transform="matrix(0.809, 0.588, -0.588, 0.809, 617.282, 3717.714)">
                <path id="Path_603" data-name="Path 603" d="M0,0H121.715V163.014H0Z" transform="translate(-14.709 40.076) rotate(-12.228)" fill="#acabb1"/>
                <rect id="Rectangle_97" data-name="Rectangle 97" width="113.614" height="148.014" transform="translate(-3.695 30.056) rotate(-6.228)" fill="#ccf7f9"/>
                <g id="Group_234-2" data-name="Group 234" transform="translate(0 20.829)">
                  <path id="Path_581" data-name="Path 581" d="M56.807,28.439c-9.4,0-17.042-6.043-17.042-13.471V8.981H51.127v5.987c0,2.476,2.548,4.49,5.681,4.49V0H0V117H56.807Zm0,0" transform="translate(0 0)" fill="#ffe98f"/>
                  <path id="Path_582" data-name="Path 582" d="M56.807,85.366V0H17.042V14.968C17.042,22.4,9.4,28.439,0,28.439V117H56.807Zm0,0" transform="translate(56.807 0)" fill="#ffda44"/>
                </g>
                <path id="Path_583" data-name="Path 583" d="M5.681,18.936V0H0V24.616a5.687,5.687,0,0,0,5.681-5.681Zm0,0" transform="translate(56.807 20.829)" fill="#ffda44"/>
                <path id="Path_584" data-name="Path 584" d="M11.361,17.042a5.681,5.681,0,1,1,11.361,0V39.765a5.681,5.681,0,1,1-11.361,0V32.191H0v7.574a17.042,17.042,0,0,0,34.084,0V17.042A17.042,17.042,0,1,0,0,17.042v3.787H11.361Zm0,0" transform="translate(39.765 0)" fill="#565659"/>
              </g>
            </g>
          </g>
        </g>
        <g id="Mask_Group_32" data-name="Mask Group 32" clip-path="url(#clip-path-2)">
          <g id="Group_238" data-name="Group 238" transform="translate(-938.763 198.353) rotate(-11)">
            <g id="Group_234-3" data-name="Group 234" transform="matrix(0.809, 0.588, -0.588, 0.809, 617.282, 3717.714)">
              <rect id="Rectangle_95" data-name="Rectangle 95" width="121.614" height="148.014" transform="translate(-15.628 31.918) rotate(-11.228)" fill="#acabb1"/>
              <g id="Group_234-4" data-name="Group 234" transform="translate(0 20.829)">
                <path id="Path_581-2" data-name="Path 581" d="M56.807,35.978A17.061,17.061,0,0,1,39.765,18.936V11.361H51.127v7.574a5.687,5.687,0,0,0,5.681,5.681V0H0V148.015H56.807Zm0,0" transform="translate(0 0)" fill="#ffe98f"/>
                <path id="Path_582-2" data-name="Path 582" d="M56.807,107.995V0H17.042V18.936A17.061,17.061,0,0,1,0,35.978V148.015H56.807Zm0,0" transform="translate(56.807 0)" fill="#ffda44"/>
              </g>
              <path id="Path_583-2" data-name="Path 583" d="M5.681,18.936V0H0V24.616a5.687,5.687,0,0,0,5.681-5.681Zm0,0" transform="translate(56.807 20.829)" fill="#ffda44"/>
              <path id="Path_584-2" data-name="Path 584" d="M11.361,17.042a5.681,5.681,0,1,1,11.361,0V39.765a5.681,5.681,0,1,1-11.361,0V32.191H0v7.574a17.042,17.042,0,0,0,34.084,0V17.042A17.042,17.042,0,1,0,0,17.042v3.787H11.361Zm0,0" transform="translate(39.765 0)" fill="#565659"/>
            </g>
          </g>
        </g>
      </g>
    </g>
  </g>
</svg>
