<svg xmlns="http://www.w3.org/2000/svg" viewBox="0 0 468.702 173.92">
  <path d="M1.638 18.603a17.786 17.786 0 0 1 1.484-7.235A19.182 19.182 0 0 1 7.139 5.46a18.9 18.9 0 0 1 5.909-4 17.894 17.894 0 0 1 7.2-1.463 18.129 18.129 0 0 1 7.254 1.463 18.61 18.61 0 0 1 5.909 4 18.8 18.8 0 0 1 3.951 5.908 18.2 18.2 0 0 1 1.443 7.235v13.806a4.243 4.243 0 0 1-.332 1.677 4.275 4.275 0 0 1-.917 1.365 4.486 4.486 0 0 1-1.384.936 4.174 4.174 0 0 1-1.7.351 3.834 3.834 0 0 1-2.57-.9 4.308 4.308 0 0 1-1.4-2.262 19.145 19.145 0 0 1-4.82 2.655 15.332 15.332 0 0 1-5.441.975 17.894 17.894 0 0 1-7.2-1.463 18.9 18.9 0 0 1-5.909-4 19.117 19.117 0 0 1-4.01-5.925 17.828 17.828 0 0 1-1.484-7.215zm8.463 0a9.786 9.786 0 0 0 .8 3.92 10.3 10.3 0 0 0 2.184 3.237 10.366 10.366 0 0 0 3.217 2.183 9.744 9.744 0 0 0 3.939.8 9.882 9.882 0 0 0 3.958-.8 10.071 10.071 0 0 0 3.223-2.184 10.2 10.2 0 0 0 2.145-3.237 10 10 0 0 0 .78-3.92 10.1 10.1 0 0 0-.78-3.958 9.968 9.968 0 0 0-2.145-3.217 10.234 10.234 0 0 0-3.218-2.164 9.882 9.882 0 0 0-3.958-.8 9.786 9.786 0 0 0-3.92.8 10.473 10.473 0 0 0-3.237 2.164 10.071 10.071 0 0 0-2.184 3.218 9.882 9.882 0 0 0-.804 3.958zm50.076 4.212l9.045-19.851a3.841 3.841 0 0 1 .487-.839 3.869 3.869 0 0 1 .839-.819 5.267 5.267 0 0 1 1.131-.624 3.593 3.593 0 0 1 1.365-.254 4.053 4.053 0 0 1 1.482.273 4.168 4.168 0 0 1 1.853 1.228 3.825 3.825 0 0 1 .78 1.58 4.058 4.058 0 0 1 .039 1.58 5.279 5.279 0 0 1-.37 1.267l-2.455 5.582 4.992 10.76 9.009-19.66a3.238 3.238 0 0 1 .507-.878 5.114 5.114 0 0 1 .839-.839 4.029 4.029 0 0 1 1.112-.624 3.745 3.745 0 0 1 1.326-.234 4.1 4.1 0 0 1 2.028.546 3.648 3.648 0 0 1 1.268 1.014 4.31 4.31 0 0 1 .721 1.365 4.566 4.566 0 0 1 .215 1.5 3.517 3.517 0 0 1-.332 1.424l-12.91 27.852a5.784 5.784 0 0 1-1.306 1.833 3.116 3.116 0 0 1-2.2.741 4.852 4.852 0 0 1-2.62-.7 4.168 4.168 0 0 1-1.677-2.067l-5.538-12.6-5.73 12.867a4.139 4.139 0 0 1-1.555 1.817 4.416 4.416 0 0 1-2.462.683 5.22 5.22 0 0 1-.644-.078 4.236 4.236 0 0 1-1.052-.332 4.684 4.684 0 0 1-1.131-.741 3.839 3.839 0 0 1-.956-1.349L43.485 6.552a3.889 3.889 0 0 1-.351-2.087 4.581 4.581 0 0 1 .663-1.95 4.436 4.436 0 0 1 1.463-1.443 3.821 3.821 0 0 1 2.048-.565q.2 0 .429.019a3.81 3.81 0 0 1 .429.059 3.611 3.611 0 0 1 1.931 1.014 5.267 5.267 0 0 1 1.073 1.482zm47.7-.429a9.374 9.374 0 0 0 1.424 2.633 9.523 9.523 0 0 0 2.121 2.028 9.647 9.647 0 0 0 2.653 1.291 10.191 10.191 0 0 0 3.042.448 9 9 0 0 0 6.318-2.106 6.147 6.147 0 0 1 1.521-.8 4.341 4.341 0 0 1 1.4-.253 3.464 3.464 0 0 1 1.95.566 4.577 4.577 0 0 1 1.4 1.462 4.552 4.552 0 0 1 .566 1.346 3.954 3.954 0 0 1 .078 1.463 4.464 4.464 0 0 1-.468 1.463 4.009 4.009 0 0 1-1.111 1.306 16.024 16.024 0 0 1-1.95 1.5 12.988 12.988 0 0 1-2.516 1.268 18.35 18.35 0 0 1-3.2.878 21.881 21.881 0 0 1-4 .331 18.129 18.129 0 0 1-7.254-1.463 18.842 18.842 0 0 1-5.928-4 19.182 19.182 0 0 1-4.001-5.909 17.786 17.786 0 0 1-1.482-7.235 17.923 17.923 0 0 1 1.482-7.254 18.879 18.879 0 0 1 4.017-5.909 19.009 19.009 0 0 1 5.928-3.978 18.129 18.129 0 0 1 7.254-1.463 18.1 18.1 0 0 1 7.2 1.443 19.384 19.384 0 0 1 5.928 3.92 18.64 18.64 0 0 1 4.056 5.83 17.815 17.815 0 0 1 1.54 7.176 3.858 3.858 0 0 1-1.15 2.906 4.167 4.167 0 0 1-3.023 1.111zm19.266-7.02a8.908 8.908 0 0 0-1.345-2.886 9.016 9.016 0 0 0-2.2-2.184 9.84 9.84 0 0 0-2.886-1.365 12.022 12.022 0 0 0-3.393-.468 11.379 11.379 0 0 0-3.373.487 9.7 9.7 0 0 0-2.847 1.4 9.329 9.329 0 0 0-2.164 2.184 8.968 8.968 0 0 0-1.326 2.827zm22.815 6.123q-1.677-.7-3.471-1.56a15.77 15.77 0 0 1-3.276-2.087 10.383 10.383 0 0 1-2.437-2.925 8.181 8.181 0 0 1-.956-4.076 10.09 10.09 0 0 1 .975-4.465 10.087 10.087 0 0 1 2.71-3.432A12.329 12.329 0 0 1 147.618.76a17.09 17.09 0 0 1 5.226-.761 23.738 23.738 0 0 1 3.393.254 17.134 17.134 0 0 1 3.335.819 11.017 11.017 0 0 1 2.827 1.482 6.3 6.3 0 0 1 1.911 2.2 4.307 4.307 0 0 1 .41 2.476 3.7 3.7 0 0 1-.878 2.009 3.994 3.994 0 0 1-1.268.975 3.475 3.475 0 0 1-1.54.351 3.545 3.545 0 0 1-1.365-.312q-.819-.507-1.5-.9a9.859 9.859 0 0 0-1.4-.663 8.175 8.175 0 0 0-1.521-.41 10.85 10.85 0 0 0-1.813-.136 8.53 8.53 0 0 0-3.842.682 2.219 2.219 0 0 0-1.307 2.087 1.666 1.666 0 0 0 .488 1.229 4.605 4.605 0 0 0 1.326.877 14.778 14.778 0 0 0 2.028.741q1.189.351 2.594.78a37.3 37.3 0 0 1 4.387 1.638 15.212 15.212 0 0 1 3.666 2.281 10.356 10.356 0 0 1 2.516 3.159 9.377 9.377 0 0 1 .936 4.349 9.91 9.91 0 0 1-.994 4.388 11.1 11.1 0 0 1-2.75 3.569 13.142 13.142 0 0 1-4.173 2.4 15.444 15.444 0 0 1-5.3.878 23.392 23.392 0 0 1-3.8-.331 17.163 17.163 0 0 1-3.9-1.131 14.982 14.982 0 0 1-3.491-2.067 9.626 9.626 0 0 1-2.574-3.14 5.053 5.053 0 0 1-.7-2.4 3.809 3.809 0 0 1 .488-1.95 3.389 3.389 0 0 1 1.365-1.307 4.037 4.037 0 0 1 1.93-.468 5.2 5.2 0 0 1 1.95.41 7.13 7.13 0 0 1 2.028 1.306 6.411 6.411 0 0 0 1.17 1.112 9.183 9.183 0 0 0 1.56.936 9.155 9.155 0 0 0 1.853.643 9.083 9.083 0 0 0 2.087.234 7.538 7.538 0 0 0 1.833-.214 5.719 5.719 0 0 0 1.521-.6 3.364 3.364 0 0 0 1.053-.936 2.093 2.093 0 0 0 .39-1.248 1.929 1.929 0 0 0-.858-1.5 10.812 10.812 0 0 0-2.087-1.268 22.612 22.612 0 0 0-2.574-1.033zm29.016-2.886a9.786 9.786 0 0 0 .8 3.92 10.3 10.3 0 0 0 2.184 3.237 10.366 10.366 0 0 0 3.217 2.184 9.744 9.744 0 0 0 3.939.8 9.882 9.882 0 0 0 3.958-.8 10.071 10.071 0 0 0 3.217-2.184 10.2 10.2 0 0 0 2.145-3.237 10 10 0 0 0 .78-3.92 10.1 10.1 0 0 0-.78-3.958 9.968 9.968 0 0 0-2.145-3.218 10.234 10.234 0 0 0-3.217-2.164 9.882 9.882 0 0 0-3.958-.8 9.786 9.786 0 0 0-3.919.8 10.473 10.473 0 0 0-3.237 2.164 10.071 10.071 0 0 0-2.184 3.218 9.882 9.882 0 0 0-.803 3.958zm-8.463 0a17.787 17.787 0 0 1 1.482-7.235 19.182 19.182 0 0 1 4.017-5.908 18.9 18.9 0 0 1 5.909-4 17.894 17.894 0 0 1 7.2-1.463 18.129 18.129 0 0 1 7.254 1.463 18.609 18.609 0 0 1 5.909 4 18.8 18.8 0 0 1 3.958 5.908 18.2 18.2 0 0 1 1.443 7.235 18.243 18.243 0 0 1-1.443 7.215 18.736 18.736 0 0 1-3.958 5.928 18.609 18.609 0 0 1-5.909 4 18.129 18.129 0 0 1-7.262 1.46 17.894 17.894 0 0 1-7.2-1.463 18.9 18.9 0 0 1-5.909-4 19.117 19.117 0 0 1-4.017-5.928 17.828 17.828 0 0 1-1.477-7.212zm50.661 14a4 4 0 0 1-1.189 2.945 4 4 0 0 1-2.948 1.19 4.145 4.145 0 0 1-1.638-.332 4.917 4.917 0 0 1-1.384-.878 4 4 0 0 1-.956-1.306 3.816 3.816 0 0 1-.351-1.619V14.238a13.456 13.456 0 0 1 1.15-5.519 14.344 14.344 0 0 1 3.139-4.524 15.163 15.163 0 0 1 4.622-3.062 13.931 13.931 0 0 1 5.557-1.131 14.085 14.085 0 0 1 5.714 1.17 15.214 15.214 0 0 1 4.7 3.2 15.086 15.086 0 0 1 4.738-3.2 14.36 14.36 0 0 1 5.753-1.17 14.032 14.032 0 0 1 5.538 1.092 14.476 14.476 0 0 1 4.524 3 14.92 14.92 0 0 1 3.12 4.446 14.176 14.176 0 0 1 1.287 5.421.9.9 0 0 0 .02.176.9.9 0 0 1 .02.175v18.292a4.007 4.007 0 0 1-.331 1.619 4.034 4.034 0 0 1-.9 1.306 4.523 4.523 0 0 1-1.307.878 3.87 3.87 0 0 1-1.6.332 4.287 4.287 0 0 1-1.658-.332 4.574 4.574 0 0 1-1.384-.878 4.137 4.137 0 0 1-.936-1.306 3.816 3.816 0 0 1-.351-1.619V14.196a5.649 5.649 0 0 0-.546-2.3 5.843 5.843 0 0 0-1.345-1.814 6.3 6.3 0 0 0-1.911-1.19 6.191 6.191 0 0 0-2.32-.429 6.161 6.161 0 0 0-2.379.468 6.329 6.329 0 0 0-1.969 1.268 5.979 5.979 0 0 0-1.326 1.872 5.541 5.541 0 0 0-.488 2.321v18.212a4 4 0 0 1-1.189 2.945 4 4 0 0 1-2.943 1.189 4.145 4.145 0 0 1-1.638-.332 4.917 4.917 0 0 1-1.384-.878 4 4 0 0 1-.956-1.306 3.816 3.816 0 0 1-.351-1.619V14.238a6 6 0 0 0-.527-2.32 5.672 5.672 0 0 0-1.307-1.833 6 6 0 0 0-1.911-1.19 6.342 6.342 0 0 0-2.34-.429 6.245 6.245 0 0 0-2.359.449 6.107 6.107 0 0 0-1.95 1.248 6.048 6.048 0 0 0-1.326 1.853 5.318 5.318 0 0 0-.488 2.262zm55.887-10.218a9.375 9.375 0 0 0 1.424 2.633 9.523 9.523 0 0 0 2.125 2.028 9.647 9.647 0 0 0 2.649 1.292 10.191 10.191 0 0 0 3.042.448 9 9 0 0 0 6.318-2.106 6.147 6.147 0 0 1 1.521-.8 4.341 4.341 0 0 1 1.4-.253 3.463 3.463 0 0 1 1.95.566 4.577 4.577 0 0 1 1.4 1.462 4.552 4.552 0 0 1 .566 1.346 3.953 3.953 0 0 1 .078 1.463 4.464 4.464 0 0 1-.468 1.463 4.009 4.009 0 0 1-1.111 1.306 16.023 16.023 0 0 1-1.95 1.5 12.988 12.988 0 0 1-2.516 1.268 18.349 18.349 0 0 1-3.2.878 21.882 21.882 0 0 1-4 .331 18.129 18.129 0 0 1-7.254-1.463 18.842 18.842 0 0 1-5.928-4 19.182 19.182 0 0 1-4.017-5.909 17.786 17.786 0 0 1-1.482-7.235 17.923 17.923 0 0 1 1.482-7.254 18.879 18.879 0 0 1 4.034-5.911 19.01 19.01 0 0 1 5.928-3.978 18.129 18.129 0 0 1 7.254-1.463 18.1 18.1 0 0 1 7.2 1.443 19.384 19.384 0 0 1 5.928 3.92 18.641 18.641 0 0 1 4.056 5.83 17.814 17.814 0 0 1 1.54 7.176 3.858 3.858 0 0 1-1.151 2.906 4.167 4.167 0 0 1-3.022 1.111zm19.266-7.02a8.908 8.908 0 0 0-1.346-2.886 9.015 9.015 0 0 0-2.2-2.184 9.84 9.84 0 0 0-2.886-1.365 12.022 12.022 0 0 0-3.393-.468 11.379 11.379 0 0 0-3.374.487 9.7 9.7 0 0 0-2.847 1.4 9.329 9.329 0 0 0-2.164 2.184 8.967 8.967 0 0 0-1.326 2.827zM17.316 85.205l9.165-20.167a4.354 4.354 0 0 1 1.58-1.892 4.075 4.075 0 0 1 4-.292 3.929 3.929 0 0 1 1.384.975 4.4 4.4 0 0 1 .858 1.385 4.469 4.469 0 0 1 .292 1.618 3.861 3.861 0 0 1-.39 1.677L21.216 96.164a4.18 4.18 0 0 1-1.7 1.892 4.982 4.982 0 0 1-2.005.682 4.284 4.284 0 0 1-2.515-.722 4.734 4.734 0 0 1-1.58-1.853L.39 68.474A3.861 3.861 0 0 1 0 66.797a4.469 4.469 0 0 1 .293-1.619 4.4 4.4 0 0 1 .858-1.384 4.023 4.023 0 0 1 1.345-.975 4.462 4.462 0 0 1 .858-.292 3.86 3.86 0 0 1 .858-.1 4.053 4.053 0 0 1 2.281.682A4.354 4.354 0 0 1 8.072 65zm21.489-31.356a4.574 4.574 0 0 1 .371-1.833 4.62 4.62 0 0 1 2.476-2.478 4.529 4.529 0 0 1 3.588 0 4.958 4.958 0 0 1 1.5.994 4.606 4.606 0 0 1 1.382 3.317 4.342 4.342 0 0 1-.371 1.774 4.612 4.612 0 0 1-1.014 1.463 4.958 4.958 0 0 1-1.5.995 4.529 4.529 0 0 1-3.588 0 4.714 4.714 0 0 1-1.482-.995 4.777 4.777 0 0 1-.994-1.463 4.342 4.342 0 0 1-.368-1.774zm8.892 40.677a4.145 4.145 0 0 1-.332 1.638 4.206 4.206 0 0 1-.9 1.346 4.266 4.266 0 0 1-1.326.9 4.1 4.1 0 0 1-1.654.328 4.145 4.145 0 0 1-1.638-.332 4.445 4.445 0 0 1-1.365-.9 4.053 4.053 0 0 1-.917-1.346 4.145 4.145 0 0 1-.332-1.638V66.68a3.816 3.816 0 0 1 .351-1.618 4.632 4.632 0 0 1 .936-1.346 4.261 4.261 0 0 1 3.042-1.248 3.966 3.966 0 0 1 1.638.332 4.169 4.169 0 0 1 1.307.916 4.226 4.226 0 0 1 1.189 2.964zm16.419.039a4.37 4.37 0 0 1-.312 1.638 3.754 3.754 0 0 1-.882 1.326 4.523 4.523 0 0 1-1.306.877 3.87 3.87 0 0 1-1.594.332 4.385 4.385 0 0 1-1.7-.332 4.574 4.574 0 0 1-1.384-.877 4.079 4.079 0 0 1-.936-1.326 3.947 3.947 0 0 1-.351-1.638V81.968a18.8 18.8 0 0 1 1.54-7.566 19.726 19.726 0 0 1 10.396-10.394 18.7 18.7 0 0 1 7.527-1.541h.078a4.32 4.32 0 0 1 3.257 1.19 4.17 4.17 0 0 1 1.15 3.022 4.039 4.039 0 0 1-.351 1.677 4.156 4.156 0 0 1-.956 1.346 4.63 4.63 0 0 1-1.4.9 4.385 4.385 0 0 1-1.7.332h-.078a10.66 10.66 0 0 0-4.231.858 10.981 10.981 0 0 0-3.491 2.34 11.606 11.606 0 0 0-2.379 3.471 10.22 10.22 0 0 0-.9 4.251zm28.7-32.1h13.576a4.261 4.261 0 0 1 4.29 4.29 4.006 4.006 0 0 1-.331 1.618 4.107 4.107 0 0 1-.917 1.326 4.445 4.445 0 0 1-1.365.9 4.242 4.242 0 0 1-1.677.332h-13.57v9.867a9.512 9.512 0 0 0 .8 3.881 10.134 10.134 0 0 0 9.34 6.065 11.037 11.037 0 0 0 3.471-.527 8.426 8.426 0 0 0 2.964-1.736 6.188 6.188 0 0 1 1.482-1.034 3.78 3.78 0 0 1 4.329.644 3.444 3.444 0 0 1 .994 1.482 4.549 4.549 0 0 1 .234 1.775 5.031 5.031 0 0 1-.449 1.774 4.82 4.82 0 0 1-1.092 1.521 15.61 15.61 0 0 1-5.382 3.413 19.032 19.032 0 0 1-13.791-.293 18.964 18.964 0 0 1-5.9-3.939 18.438 18.438 0 0 1-4-5.869 17.99 17.99 0 0 1-1.462-7.234V55.682a4.039 4.039 0 0 1 .351-1.677 4.554 4.554 0 0 1 .936-1.365 4.275 4.275 0 0 1 1.365-.916 4.145 4.145 0 0 1 1.638-.332 4.006 4.006 0 0 1 1.618.332 4.107 4.107 0 0 1 1.326.916 4.445 4.445 0 0 1 .9 1.365 4.242 4.242 0 0 1 .331 1.677zm36.543 18.759a9.6 9.6 0 0 0 .721 3.725 9.4 9.4 0 0 0 1.989 3.022 9.278 9.278 0 0 0 3 2.028 9.384 9.384 0 0 0 3.724.741 8.344 8.344 0 0 0 3.627-.761 8.052 8.052 0 0 0 2.71-2.067 9.388 9.388 0 0 0 1.716-3.061 11.418 11.418 0 0 0 .6-3.744V66.68a3.907 3.907 0 0 1 .351-1.657 4.218 4.218 0 0 1 .956-1.326 4.7 4.7 0 0 1 1.384-.9 4.145 4.145 0 0 1 1.638-.332 3.966 3.966 0 0 1 1.638.332 4.333 4.333 0 0 1 1.307.9 4 4 0 0 1 .878 1.326 4.325 4.325 0 0 1 .324 1.657v14.313a19.6 19.6 0 0 1-1.267 7.059 18.048 18.048 0 0 1-3.53 5.792 16.584 16.584 0 0 1-5.421 3.92 16.415 16.415 0 0 1-6.9 1.443 17.285 17.285 0 0 1-7-1.424 17.979 17.979 0 0 1-5.675-3.88 18.449 18.449 0 0 1-3.822-5.733 17.534 17.534 0 0 1-1.4-6.981V66.68a4.1 4.1 0 0 1 .331-1.657 4.266 4.266 0 0 1 .9-1.326 4.207 4.207 0 0 1 1.345-.9 4.213 4.213 0 0 1 3.276 0 4.445 4.445 0 0 1 1.365.9 4.081 4.081 0 0 1 1.248 2.983zm31.746-.624a17.787 17.787 0 0 1 1.482-7.235 19.182 19.182 0 0 1 4.017-5.908 18.9 18.9 0 0 1 5.909-4 17.894 17.894 0 0 1 7.2-1.463 18.129 18.129 0 0 1 7.254 1.463 18.583 18.583 0 0 1 9.867 9.906 18.2 18.2 0 0 1 1.443 7.235v13.811a4.261 4.261 0 0 1-1.248 3.042 4.486 4.486 0 0 1-1.385.936 4.174 4.174 0 0 1-1.7.351 3.834 3.834 0 0 1-2.574-.9 4.308 4.308 0 0 1-1.4-2.262 19.146 19.146 0 0 1-4.816 2.652 15.332 15.332 0 0 1-5.441.975 17.894 17.894 0 0 1-7.2-1.462 18.9 18.9 0 0 1-5.909-4 19.117 19.117 0 0 1-4.017-5.928 17.828 17.828 0 0 1-1.478-7.21zm8.463 0a9.786 9.786 0 0 0 .8 3.92 10.292 10.292 0 0 0 5.4 5.421 9.744 9.744 0 0 0 3.939.8 9.882 9.882 0 0 0 3.958-.8 10.071 10.071 0 0 0 3.217-2.184 10.2 10.2 0 0 0 2.145-3.237 10.187 10.187 0 0 0-2.145-11.1 10.234 10.234 0 0 0-3.217-2.164 10.1 10.1 0 0 0-7.878 0 10.473 10.473 0 0 0-3.237 2.164 10.071 10.071 0 0 0-2.184 3.218 9.882 9.882 0 0 0-.794 3.965zm49.413 9.672a4.039 4.039 0 0 1 1.677.351 3.942 3.942 0 0 1 1.326.955 4.589 4.589 0 0 1 .858 1.385 4.37 4.37 0 0 1 .312 1.638 4.017 4.017 0 0 1-1.17 2.964 4.065 4.065 0 0 1-3 1.17 13.671 13.671 0 0 1-4.972-.9 12.884 12.884 0 0 1-4.076-2.5 11.54 11.54 0 0 1-2.769-3.861 12.99 12.99 0 0 1-1.092-4.992V52.718a4.243 4.243 0 0 1 .331-1.677 4.382 4.382 0 0 1 .878-1.346 4.092 4.092 0 0 1 1.287-.9 3.87 3.87 0 0 1 1.6-.331 4.242 4.242 0 0 1 1.677.331 4.7 4.7 0 0 1 1.385.9 4.156 4.156 0 0 1 .955 1.346 4.039 4.039 0 0 1 .351 1.677v33.5a3.688 3.688 0 0 0 1.248 3.042 4.909 4.909 0 0 0 3.198 1.015zm34.944 4.29a4.37 4.37 0 0 1-.312 1.638 3.754 3.754 0 0 1-.878 1.326 4.523 4.523 0 0 1-1.307.877 3.87 3.87 0 0 1-1.6.332 4.385 4.385 0 0 1-1.7-.332 4.573 4.573 0 0 1-1.384-.877 4.079 4.079 0 0 1-.936-1.326 3.947 3.947 0 0 1-.351-1.638V81.968a18.8 18.8 0 0 1 1.54-7.566A19.726 19.726 0 0 1 257.4 64.008a18.7 18.7 0 0 1 7.527-1.541h.078a4.32 4.32 0 0 1 3.257 1.19 4.17 4.17 0 0 1 1.151 3.022 4.039 4.039 0 0 1-.351 1.677 4.156 4.156 0 0 1-.955 1.346 4.631 4.631 0 0 1-1.4.9 4.385 4.385 0 0 1-1.7.332h-.078a10.66 10.66 0 0 0-4.231.858 10.981 10.981 0 0 0-3.491 2.34 11.605 11.605 0 0 0-2.379 3.471 10.22 10.22 0 0 0-.9 4.251zm26.286-10.179a9.375 9.375 0 0 0 1.424 2.632 9.523 9.523 0 0 0 2.125 2.028 9.647 9.647 0 0 0 2.652 1.287 10.191 10.191 0 0 0 3.042.448 9 9 0 0 0 6.318-2.106 6.147 6.147 0 0 1 1.521-.8 4.341 4.341 0 0 1 1.4-.254 3.463 3.463 0 0 1 1.95.566 4.778 4.778 0 0 1 1.97 2.808 3.953 3.953 0 0 1 .078 1.463 4.464 4.464 0 0 1-.468 1.462 4.009 4.009 0 0 1-1.101 1.311 16.023 16.023 0 0 1-1.95 1.5 12.988 12.988 0 0 1-2.516 1.267 18.349 18.349 0 0 1-3.2.878 21.882 21.882 0 0 1-4 .331 18.129 18.129 0 0 1-7.254-1.462 18.842 18.842 0 0 1-5.928-4 19.182 19.182 0 0 1-4.017-5.909 18.447 18.447 0 0 1 0-14.488 18.777 18.777 0 0 1 9.945-9.887 18.691 18.691 0 0 1 14.449-.02 19.384 19.384 0 0 1 5.928 3.92 18.641 18.641 0 0 1 4.056 5.83 17.814 17.814 0 0 1 1.54 7.176 3.858 3.858 0 0 1-1.151 2.906 4.167 4.167 0 0 1-3.022 1.111zm19.266-7.02a8.908 8.908 0 0 0-1.346-2.886 9.015 9.015 0 0 0-2.2-2.184 9.84 9.84 0 0 0-2.886-1.365 12.022 12.022 0 0 0-3.393-.468 11.379 11.379 0 0 0-3.374.487 9.7 9.7 0 0 0-2.847 1.4 9.329 9.329 0 0 0-2.164 2.184 8.967 8.967 0 0 0-1.326 2.827zM311.45 80.6a17.786 17.786 0 0 1 1.482-7.235 19.182 19.182 0 0 1 4.017-5.908 18.9 18.9 0 0 1 5.909-4 17.894 17.894 0 0 1 7.2-1.463 18.129 18.129 0 0 1 7.254 1.463 18.583 18.583 0 0 1 9.867 9.906 18.2 18.2 0 0 1 1.443 7.235v13.811a4.261 4.261 0 0 1-1.248 3.042 4.486 4.486 0 0 1-1.384.936 4.174 4.174 0 0 1-1.7.351 3.834 3.834 0 0 1-2.574-.9 4.308 4.308 0 0 1-1.4-2.262 19.145 19.145 0 0 1-4.816 2.652 15.332 15.332 0 0 1-5.44.975 17.894 17.894 0 0 1-7.2-1.462 18.9 18.9 0 0 1-5.909-4 19.117 19.117 0 0 1-4.017-5.928 17.828 17.828 0 0 1-1.48-7.21zm8.463 0a9.787 9.787 0 0 0 .8 3.92 10.293 10.293 0 0 0 5.4 5.421 9.744 9.744 0 0 0 3.939.8 9.882 9.882 0 0 0 3.958-.8 10.071 10.071 0 0 0 3.217-2.184 10.2 10.2 0 0 0 2.145-3.237 10.186 10.186 0 0 0-2.145-11.1 10.234 10.234 0 0 0-3.217-2.164 10.1 10.1 0 0 0-7.878 0 10.473 10.473 0 0 0-3.237 2.164 10.071 10.071 0 0 0-2.184 3.218 9.883 9.883 0 0 0-.794 3.965zm49.413 9.672a4.039 4.039 0 0 1 1.677.351 3.942 3.942 0 0 1 1.326.955 4.589 4.589 0 0 1 .858 1.385 4.37 4.37 0 0 1 .312 1.638 4.017 4.017 0 0 1-1.17 2.964 4.066 4.066 0 0 1-3 1.17 13.671 13.671 0 0 1-4.973-.9 12.884 12.884 0 0 1-4.076-2.5 11.54 11.54 0 0 1-2.769-3.861 12.99 12.99 0 0 1-1.092-4.992V52.718a4.242 4.242 0 0 1 .332-1.677 4.381 4.381 0 0 1 .878-1.346 4.092 4.092 0 0 1 1.287-.9 3.87 3.87 0 0 1 1.6-.331 4.242 4.242 0 0 1 1.677.331 4.7 4.7 0 0 1 1.384.9 4.156 4.156 0 0 1 .956 1.346 4.039 4.039 0 0 1 .351 1.677v33.5a3.688 3.688 0 0 0 1.248 3.042 4.909 4.909 0 0 0 3.198 1.015zm9.672-36.426a4.574 4.574 0 0 1 .37-1.833 4.62 4.62 0 0 1 2.477-2.476 4.529 4.529 0 0 1 3.588 0 4.958 4.958 0 0 1 1.5.994 4.606 4.606 0 0 1 1.384 3.315 4.342 4.342 0 0 1-.37 1.774 4.613 4.613 0 0 1-1.014 1.463 4.958 4.958 0 0 1-1.5.995 4.529 4.529 0 0 1-3.588 0 4.714 4.714 0 0 1-1.482-.995 4.777 4.777 0 0 1-.995-1.463 4.342 4.342 0 0 1-.366-1.771zm8.892 40.677a4.145 4.145 0 0 1-.332 1.638 4.206 4.206 0 0 1-.9 1.346 4.265 4.265 0 0 1-1.326.9 4.1 4.1 0 0 1-1.65.331 4.145 4.145 0 0 1-1.638-.332 4.445 4.445 0 0 1-1.365-.9 4.054 4.054 0 0 1-.917-1.346 4.145 4.145 0 0 1-.332-1.638V66.68a3.816 3.816 0 0 1 .351-1.618 4.632 4.632 0 0 1 .936-1.346 4.261 4.261 0 0 1 3.042-1.248 3.966 3.966 0 0 1 1.638.332 4.169 4.169 0 0 1 1.306.916 4.226 4.226 0 0 1 1.19 2.964zm16.77-32.058h13.572a4.261 4.261 0 0 1 4.29 4.29 4.006 4.006 0 0 1-.332 1.618 4.107 4.107 0 0 1-.916 1.326 4.445 4.445 0 0 1-1.365.9 4.242 4.242 0 0 1-1.677.332h-13.568v9.867a9.512 9.512 0 0 0 .8 3.881 10.134 10.134 0 0 0 9.34 6.065 11.037 11.037 0 0 0 3.471-.527 8.426 8.426 0 0 0 2.964-1.736 6.188 6.188 0 0 1 1.482-1.034 3.78 3.78 0 0 1 4.329.644 3.444 3.444 0 0 1 .994 1.482 4.548 4.548 0 0 1 .234 1.775 5.031 5.031 0 0 1-.449 1.774 4.82 4.82 0 0 1-1.092 1.521 15.61 15.61 0 0 1-5.382 3.413 19.032 19.032 0 0 1-13.786-.292 18.964 18.964 0 0 1-5.908-3.939 18.438 18.438 0 0 1-4-5.869 17.99 17.99 0 0 1-1.463-7.234v-25.04a4.039 4.039 0 0 1 .351-1.677 4.554 4.554 0 0 1 .936-1.365 4.274 4.274 0 0 1 1.365-.916 4.145 4.145 0 0 1 1.638-.332 4.006 4.006 0 0 1 1.618.332 4.107 4.107 0 0 1 1.326.916 4.445 4.445 0 0 1 .9 1.365 4.242 4.242 0 0 1 .332 1.677zm36.543 18.8a9.385 9.385 0 0 0 .741 3.724 9.185 9.185 0 0 0 5.07 4.992 9.75 9.75 0 0 0 3.744.722 9.177 9.177 0 0 0 3.724-.761 9.381 9.381 0 0 0 3-2.067 9.853 9.853 0 0 0 2.009-3.062 9.625 9.625 0 0 0 .741-3.783V66.68a3.816 3.816 0 0 1 .351-1.618 4.632 4.632 0 0 1 .936-1.346 4.221 4.221 0 0 1 1.385-.916 4.287 4.287 0 0 1 1.658-.332 3.966 3.966 0 0 1 1.638.332 4.169 4.169 0 0 1 1.306.916 4.226 4.226 0 0 1 1.189 2.964v14.508a17.447 17.447 0 0 1-1.053 6.065 18.426 18.426 0 0 1-2.886 5.167 18.091 18.091 0 0 1-4.368 3.939 17.479 17.479 0 0 1-5.5 2.34v8.97a4.243 4.243 0 0 1-.332 1.677 4.054 4.054 0 0 1-.917 1.345 4.513 4.513 0 0 1-1.345.9 4.006 4.006 0 0 1-1.618.331 4.134 4.134 0 0 1-4.251-4.251V98.66a17.7 17.7 0 0 1-5.46-2.379 18.4 18.4 0 0 1-4.329-3.939 18.124 18.124 0 0 1-2.867-5.148 17.464 17.464 0 0 1-1.033-6.006V66.68a4.007 4.007 0 0 1 .331-1.618 4.514 4.514 0 0 1 .9-1.346 4.053 4.053 0 0 1 1.346-.916 4.213 4.213 0 0 1 3.276 0 4.275 4.275 0 0 1 1.365.916 4.337 4.337 0 0 1 .917 1.346 4.007 4.007 0 0 1 .331 1.618zM11.076 146.386a9.374 9.374 0 0 0 1.424 2.633 9.523 9.523 0 0 0 2.125 2.028 9.646 9.646 0 0 0 2.652 1.287 10.191 10.191 0 0 0 3.042.449 9 9 0 0 0 6.318-2.106 6.147 6.147 0 0 1 1.521-.8 4.341 4.341 0 0 1 1.4-.253 3.464 3.464 0 0 1 1.95.565 4.778 4.778 0 0 1 1.969 2.808 3.953 3.953 0 0 1 .078 1.463 4.464 4.464 0 0 1-.468 1.463 4.01 4.01 0 0 1-1.111 1.306 16.024 16.024 0 0 1-1.95 1.5 12.989 12.989 0 0 1-2.515 1.268 18.35 18.35 0 0 1-3.2.877 21.881 21.881 0 0 1-4 .332 18.129 18.129 0 0 1-7.254-1.463 18.842 18.842 0 0 1-5.928-4 19.182 19.182 0 0 1-4.007-5.905 18.446 18.446 0 0 1 0-14.489 18.777 18.777 0 0 1 9.945-9.886A18.129 18.129 0 0 1 20.322 124a18.1 18.1 0 0 1 7.2 1.443 19.384 19.384 0 0 1 5.928 3.919 18.641 18.641 0 0 1 4.056 5.831 17.814 17.814 0 0 1 1.541 7.176 3.858 3.858 0 0 1-1.15 2.906 4.167 4.167 0 0 1-3.023 1.111zm19.266-7.02a8.908 8.908 0 0 0-1.346-2.886 9.016 9.016 0 0 0-2.2-2.184 9.84 9.84 0 0 0-2.886-1.365 12.022 12.022 0 0 0-3.393-.468 11.379 11.379 0 0 0-3.373.487 9.7 9.7 0 0 0-2.847 1.4 9.329 9.329 0 0 0-2.168 2.188 8.968 8.968 0 0 0-1.326 2.827zm29.48-2.574l11.193-11a4.244 4.244 0 0 1 1.463-.975 4.419 4.419 0 0 1 1.618-.312 4.363 4.363 0 0 1 1.58.293 3.828 3.828 0 0 1 1.345.877 3.7 3.7 0 0 1 .9 1.4 4.131 4.131 0 0 1 .234 1.579 4.585 4.585 0 0 1-.37 1.579 4.761 4.761 0 0 1-.916 1.4l-11.115 11 11.037 10.842a4.459 4.459 0 0 1 .9 1.4 4.567 4.567 0 0 1 .331 1.6 4.143 4.143 0 0 1-.293 1.618 3.736 3.736 0 0 1-.936 1.384 4.267 4.267 0 0 1-3 1.248 4.049 4.049 0 0 1-2.964-1.248l-11.076-10.92-11.12 10.972a3.814 3.814 0 0 1-1.346.936 4.027 4.027 0 0 1-1.541.312 4.223 4.223 0 0 1-2.964-1.248 3.847 3.847 0 0 1-1.229-2.906 4.522 4.522 0 0 1 .332-1.579 4.459 4.459 0 0 1 .9-1.4l11.037-10.924-11.273-11.115a4.021 4.021 0 0 1-.9-1.365 3.956 3.956 0 0 1-.292-1.579 4.522 4.522 0 0 1 .332-1.579 4.156 4.156 0 0 1 .936-1.4 4.267 4.267 0 0 1 3-1.248 4.223 4.223 0 0 1 2.964 1.248zm23.127 5.811a17.786 17.786 0 0 1 1.482-7.235 19.182 19.182 0 0 1 4.017-5.908 18.9 18.9 0 0 1 5.909-4 17.894 17.894 0 0 1 7.2-1.463 18.129 18.129 0 0 1 7.254 1.463 18.583 18.583 0 0 1 9.867 9.906 18.808 18.808 0 0 1 0 14.45 18.532 18.532 0 0 1-9.867 9.925 18.129 18.129 0 0 1-7.254 1.463 17.849 17.849 0 0 1-5.363-.8 19.343 19.343 0 0 1-4.777-2.243v11.349a5.014 5.014 0 0 1-.292 1.736 4.034 4.034 0 0 1-.839 1.385 4.137 4.137 0 0 1-1.307.936 4.228 4.228 0 0 1-3.373 0 4.554 4.554 0 0 1-1.365-.936 4.486 4.486 0 0 1-.936-1.385 4.269 4.269 0 0 1-.351-1.736zm8.463 0a9.786 9.786 0 0 0 .8 3.92 10.292 10.292 0 0 0 5.4 5.421 9.744 9.744 0 0 0 3.939.8 9.882 9.882 0 0 0 3.959-.8 10.071 10.071 0 0 0 3.217-2.184 10.2 10.2 0 0 0 2.145-3.237 10.187 10.187 0 0 0-2.145-11.1 10.234 10.234 0 0 0-3.217-2.164 10.1 10.1 0 0 0-7.878 0 10.473 10.473 0 0 0-3.237 2.164 10.071 10.071 0 0 0-2.184 3.218 9.882 9.882 0 0 0-.795 3.962zm41.613 3.783a9.374 9.374 0 0 0 1.423 2.633 9.523 9.523 0 0 0 2.126 2.028 9.647 9.647 0 0 0 2.652 1.287 10.191 10.191 0 0 0 3.042.449 9 9 0 0 0 6.318-2.106 6.147 6.147 0 0 1 1.521-.8 4.341 4.341 0 0 1 1.4-.253 3.463 3.463 0 0 1 1.95.565 4.778 4.778 0 0 1 1.97 2.808 3.954 3.954 0 0 1 .078 1.463 4.464 4.464 0 0 1-.468 1.463 4.009 4.009 0 0 1-1.111 1.306 16.024 16.024 0 0 1-1.95 1.5 12.989 12.989 0 0 1-2.516 1.268 18.35 18.35 0 0 1-3.2.877 21.881 21.881 0 0 1-4 .332 18.129 18.129 0 0 1-7.254-1.463 18.842 18.842 0 0 1-5.928-4 19.182 19.182 0 0 1-4.017-5.909 18.447 18.447 0 0 1 0-14.489 18.777 18.777 0 0 1 9.945-9.886 18.691 18.691 0 0 1 14.449-.02 19.383 19.383 0 0 1 5.928 3.919 18.641 18.641 0 0 1 4.056 5.831 17.815 17.815 0 0 1 1.54 7.176 3.858 3.858 0 0 1-1.15 2.906 4.167 4.167 0 0 1-3.023 1.111zm19.266-7.02a8.907 8.907 0 0 0-1.346-2.886 9.016 9.016 0 0 0-2.2-2.184 9.841 9.841 0 0 0-2.886-1.365 12.022 12.022 0 0 0-3.393-.468 11.379 11.379 0 0 0-3.373.487 9.7 9.7 0 0 0-2.847 1.4 9.329 9.329 0 0 0-2.164 2.188 8.967 8.967 0 0 0-1.326 2.827zm22.113 17.2a4.37 4.37 0 0 1-.312 1.638 3.754 3.754 0 0 1-.878 1.326 4.523 4.523 0 0 1-1.307.878 3.87 3.87 0 0 1-1.6.331 4.385 4.385 0 0 1-1.7-.331 4.574 4.574 0 0 1-1.385-.878 4.078 4.078 0 0 1-.936-1.326 3.947 3.947 0 0 1-.351-1.638v-12.6a18.8 18.8 0 0 1 1.54-7.566 19.726 19.726 0 0 1 10.404-10.392 18.7 18.7 0 0 1 7.527-1.54h.078a4.32 4.32 0 0 1 3.257 1.189 4.17 4.17 0 0 1 1.15 3.023 4.039 4.039 0 0 1-.351 1.677 4.156 4.156 0 0 1-.956 1.346 4.63 4.63 0 0 1-1.4.9 4.385 4.385 0 0 1-1.7.331h-.078a10.66 10.66 0 0 0-4.232.858 10.981 10.981 0 0 0-3.49 2.34 11.605 11.605 0 0 0-2.379 3.471 10.22 10.22 0 0 0-.9 4.251zm20.631-40.716a4.574 4.574 0 0 1 .37-1.833 4.62 4.62 0 0 1 2.477-2.477 4.529 4.529 0 0 1 3.588 0 4.958 4.958 0 0 1 1.5.994 4.606 4.606 0 0 1 1.385 3.315 4.342 4.342 0 0 1-.37 1.774 4.612 4.612 0 0 1-1.014 1.462 4.958 4.958 0 0 1-1.5.995 4.529 4.529 0 0 1-3.588 0 4.714 4.714 0 0 1-1.482-.995 4.776 4.776 0 0 1-.994-1.462 4.342 4.342 0 0 1-.368-1.774zm8.892 40.677a4.145 4.145 0 0 1-.331 1.638 4.206 4.206 0 0 1-.9 1.345 4.266 4.266 0 0 1-1.326.9 4.1 4.1 0 0 1-1.648.328 4.145 4.145 0 0 1-1.638-.331 4.445 4.445 0 0 1-1.365-.9 4.053 4.053 0 0 1-.917-1.345 4.145 4.145 0 0 1-.331-1.638V128.68a3.816 3.816 0 0 1 .351-1.618 4.632 4.632 0 0 1 .936-1.346 4.261 4.261 0 0 1 3.042-1.248 3.966 3.966 0 0 1 1.638.332 4.169 4.169 0 0 1 1.307.916 4.226 4.226 0 0 1 1.189 2.964zm15.717-10.14a9.374 9.374 0 0 0 1.423 2.633 9.523 9.523 0 0 0 2.126 2.028 9.647 9.647 0 0 0 2.652 1.287 10.191 10.191 0 0 0 3.042.449 9 9 0 0 0 6.318-2.106 6.147 6.147 0 0 1 1.521-.8 4.341 4.341 0 0 1 1.4-.253 3.463 3.463 0 0 1 1.95.565 4.778 4.778 0 0 1 1.969 2.808 3.953 3.953 0 0 1 .078 1.463 4.464 4.464 0 0 1-.468 1.463 4.01 4.01 0 0 1-1.112 1.306 16.024 16.024 0 0 1-1.95 1.5 12.988 12.988 0 0 1-2.516 1.268 18.35 18.35 0 0 1-3.2.877 21.881 21.881 0 0 1-4 .332 18.129 18.129 0 0 1-7.254-1.463 18.842 18.842 0 0 1-5.928-4 19.182 19.182 0 0 1-4.017-5.909 18.447 18.447 0 0 1 0-14.489 18.777 18.777 0 0 1 9.945-9.886 18.691 18.691 0 0 1 14.449-.02 19.384 19.384 0 0 1 5.928 3.919 18.641 18.641 0 0 1 4.056 5.831 17.814 17.814 0 0 1 1.541 7.176 3.858 3.858 0 0 1-1.15 2.906 4.167 4.167 0 0 1-3.023 1.111zm19.266-7.02a8.908 8.908 0 0 0-1.345-2.886 9.016 9.016 0 0 0-2.2-2.184 9.841 9.841 0 0 0-2.886-1.365 12.022 12.022 0 0 0-3.393-.468 11.379 11.379 0 0 0-3.373.487 9.7 9.7 0 0 0-2.847 1.4 9.329 9.329 0 0 0-2.165 2.184 8.967 8.967 0 0 0-1.326 2.827zm48.637 17.271a4.1 4.1 0 0 1-.331 1.658 4.448 4.448 0 0 1-.878 1.326 3.794 3.794 0 0 1-1.307.878 4.222 4.222 0 0 1-1.618.312 4.52 4.52 0 0 1-1.658-.312 4.124 4.124 0 0 1-1.384-.878 4.376 4.376 0 0 1-.936-1.326 3.907 3.907 0 0 1-.351-1.658v-14.5a2.079 2.079 0 0 1 .039-.468 10.3 10.3 0 0 0-.78-3.588 9.342 9.342 0 0 0-1.911-2.925 9 9 0 0 0-2.828-1.969 8.666 8.666 0 0 0-3.568-.722 9.178 9.178 0 0 0-3.666.722 8.337 8.337 0 0 0-2.866 2.008 9.553 9.553 0 0 0-1.872 3.022 10.085 10.085 0 0 0-.682 3.724v14.7a4.325 4.325 0 0 1-.312 1.658 4 4 0 0 1-.877 1.326 4.056 4.056 0 0 1-1.307.878 4.18 4.18 0 0 1-1.638.312 4.415 4.415 0 0 1-3.022-1.19 4.218 4.218 0 0 1-.956-1.326 3.907 3.907 0 0 1-.351-1.658v-14.704a18.15 18.15 0 0 1 1.346-7 17.956 17.956 0 0 1 3.7-5.694 17.306 17.306 0 0 1 5.577-3.841 17.351 17.351 0 0 1 19.4 3.841 18.2 18.2 0 0 1 5.031 12.694zm13.455-14.04a9.219 9.219 0 0 0 .76 3.627 11.168 11.168 0 0 0 2.067 3.218 10.772 10.772 0 0 0 3.061 2.32 8.564 8.564 0 0 0 3.783.936 12.038 12.038 0 0 0 3.724-.527 9.971 9.971 0 0 0 3.257-1.892 12.509 12.509 0 0 1 1.736-1.229 4.023 4.023 0 0 1 2.086-.565 3.828 3.828 0 0 1 1.4.293 5.52 5.52 0 0 1 1.521.955 3.733 3.733 0 0 1 .994 1.384 4.093 4.093 0 0 1 .312 1.677 4.605 4.605 0 0 1-.39 1.735 5.629 5.629 0 0 1-1.112 1.638 16.093 16.093 0 0 1-5.753 3.744 19.273 19.273 0 0 1-7 1.287 19.062 19.062 0 0 1-13.338-5.343 18.389 18.389 0 0 1-4.056-5.869 17.882 17.882 0 0 1-1.482-7.273.112.112 0 0 0 .039-.078h-.039a18.157 18.157 0 0 1 1.482-7.313 18.5 18.5 0 0 1 4.056-5.928 19.086 19.086 0 0 1 6.006-3.958 18.722 18.722 0 0 1 7.332-1.443 20.088 20.088 0 0 1 7 1.229 15.455 15.455 0 0 1 5.753 3.686 5.371 5.371 0 0 1 1.131 1.619 4.544 4.544 0 0 1 .409 1.755 3.907 3.907 0 0 1-.331 1.677 4.1 4.1 0 0 1-1.053 1.423 5.336 5.336 0 0 1-1.482.936 3.755 3.755 0 0 1-1.365.273 4.023 4.023 0 0 1-2.086-.565 14.772 14.772 0 0 1-1.775-1.229 11.553 11.553 0 0 0-3.237-1.794 10.307 10.307 0 0 0-3.354-.546 9.269 9.269 0 0 0-3.822.819 10.24 10.24 0 0 0-3.2 2.223 11.1 11.1 0 0 0-2.176 3.238 9.269 9.269 0 0 0-.819 3.822zm37.986 3.783a9.375 9.375 0 0 0 1.424 2.633 9.523 9.523 0 0 0 2.125 2.028 9.646 9.646 0 0 0 2.652 1.287 10.191 10.191 0 0 0 3.042.449 9 9 0 0 0 6.318-2.106 6.147 6.147 0 0 1 1.521-.8 4.341 4.341 0 0 1 1.4-.253 3.463 3.463 0 0 1 1.95.565 4.778 4.778 0 0 1 1.97 2.808 3.955 3.955 0 0 1 .078 1.463 4.464 4.464 0 0 1-.468 1.463 4.009 4.009 0 0 1-1.111 1.306 16.023 16.023 0 0 1-1.95 1.5 12.988 12.988 0 0 1-2.516 1.268 18.35 18.35 0 0 1-3.2.877 21.881 21.881 0 0 1-4 .332 18.129 18.129 0 0 1-7.254-1.463 18.842 18.842 0 0 1-5.928-4 19.182 19.182 0 0 1-4.017-5.909 18.447 18.447 0 0 1 0-14.489 18.777 18.777 0 0 1 9.945-9.886 18.691 18.691 0 0 1 14.449-.02 19.384 19.384 0 0 1 5.928 3.919 18.641 18.641 0 0 1 4.056 5.831 17.814 17.814 0 0 1 1.54 7.176 3.858 3.858 0 0 1-1.151 2.906 4.167 4.167 0 0 1-3.022 1.111zm19.266-7.02a8.908 8.908 0 0 0-1.346-2.886 9.016 9.016 0 0 0-2.2-2.184 9.84 9.84 0 0 0-2.886-1.365 12.022 12.022 0 0 0-3.393-.468 11.379 11.379 0 0 0-3.374.487 9.7 9.7 0 0 0-2.847 1.4 9.329 9.329 0 0 0-2.164 2.184 8.967 8.967 0 0 0-1.326 2.827zm22.815 6.123q-1.677-.7-3.471-1.56a15.769 15.769 0 0 1-3.276-2.086 10.383 10.383 0 0 1-2.437-2.925 8.181 8.181 0 0 1-.956-4.076 9.946 9.946 0 0 1 3.686-7.9 12.329 12.329 0 0 1 4.114-2.184 17.09 17.09 0 0 1 5.226-.761 23.738 23.738 0 0 1 3.393.254 17.133 17.133 0 0 1 3.335.819 11.017 11.017 0 0 1 2.827 1.482 6.3 6.3 0 0 1 1.911 2.2 4.307 4.307 0 0 1 .409 2.477 3.7 3.7 0 0 1-.877 2.008 3.994 3.994 0 0 1-1.268.975 3.475 3.475 0 0 1-1.54.351 3.545 3.545 0 0 1-1.365-.312q-.819-.507-1.5-.9a9.86 9.86 0 0 0-1.4-.663 8.175 8.175 0 0 0-1.521-.41 10.851 10.851 0 0 0-1.814-.137 8.53 8.53 0 0 0-3.841.683 2.219 2.219 0 0 0-1.306 2.087 1.666 1.666 0 0 0 .487 1.229 4.605 4.605 0 0 0 1.326.877 14.778 14.778 0 0 0 2.028.741q1.189.351 2.594.78a37.3 37.3 0 0 1 4.387 1.638 15.212 15.212 0 0 1 3.666 2.282 10.356 10.356 0 0 1 2.516 3.159 9.377 9.377 0 0 1 .936 4.349 9.91 9.91 0 0 1-.995 4.387 11.1 11.1 0 0 1-2.75 3.569 13.142 13.142 0 0 1-4.173 2.4 15.444 15.444 0 0 1-5.3.878 23.392 23.392 0 0 1-3.8-.332 17.163 17.163 0 0 1-3.9-1.131 14.982 14.982 0 0 1-3.49-2.067 9.625 9.625 0 0 1-2.574-3.14 5.053 5.053 0 0 1-.7-2.4 3.809 3.809 0 0 1 .487-1.95 3.389 3.389 0 0 1 1.365-1.307 4.037 4.037 0 0 1 1.931-.468 5.2 5.2 0 0 1 1.95.41 7.13 7.13 0 0 1 2.028 1.306 6.41 6.41 0 0 0 1.17 1.112 9.188 9.188 0 0 0 3.412 1.579 9.083 9.083 0 0 0 2.087.234 7.538 7.538 0 0 0 1.833-.215 5.719 5.719 0 0 0 1.521-.6 3.364 3.364 0 0 0 1.053-.936 2.093 2.093 0 0 0 .39-1.248 1.929 1.929 0 0 0-.858-1.5 10.812 10.812 0 0 0-2.103-1.259 22.612 22.612 0 0 0-2.574-1.034z" fill="#fff"/>
</svg>
