<svg xmlns="http://www.w3.org/2000/svg" viewBox="0 0 402 201">
  <path d="M49.387 37.865a17.787 17.787 0 0 1 1.482-7.235 19.182 19.182 0 0 1 4.017-5.908 18.9 18.9 0 0 1 5.909-4 17.894 17.894 0 0 1 7.2-1.463 18.129 18.129 0 0 1 7.254 1.463 18.61 18.61 0 0 1 5.909 4 18.8 18.8 0 0 1 3.958 5.908 18.2 18.2 0 0 1 1.443 7.235v13.806a4.243 4.243 0 0 1-.332 1.677 4.275 4.275 0 0 1-.916 1.365 4.486 4.486 0 0 1-1.384.936 4.174 4.174 0 0 1-1.7.351 3.834 3.834 0 0 1-2.574-.9 4.308 4.308 0 0 1-1.4-2.262 19.145 19.145 0 0 1-4.816 2.652 15.332 15.332 0 0 1-5.441.975 17.894 17.894 0 0 1-7.2-1.463 18.9 18.9 0 0 1-5.909-4 19.117 19.117 0 0 1-4.017-5.928 17.828 17.828 0 0 1-1.483-7.209zm8.463 0a9.786 9.786 0 0 0 .8 3.92 10.3 10.3 0 0 0 2.184 3.237 10.366 10.366 0 0 0 3.217 2.184 9.744 9.744 0 0 0 3.939.8 9.882 9.882 0 0 0 3.958-.8 10.071 10.071 0 0 0 3.218-2.184 10.2 10.2 0 0 0 2.145-3.237 10 10 0 0 0 .78-3.92 10.1 10.1 0 0 0-.78-3.958 9.968 9.968 0 0 0-2.145-3.218 10.234 10.234 0 0 0-3.218-2.164 9.882 9.882 0 0 0-3.958-.8 9.786 9.786 0 0 0-3.919.8 10.473 10.473 0 0 0-3.237 2.164 10.071 10.071 0 0 0-2.184 3.218 9.882 9.882 0 0 0-.8 3.958zm50.076 4.212l9.048-19.851a3.841 3.841 0 0 1 .487-.839 3.869 3.869 0 0 1 .839-.819 5.267 5.267 0 0 1 1.131-.624 3.593 3.593 0 0 1 1.365-.254 4.053 4.053 0 0 1 1.482.273 4.168 4.168 0 0 1 1.853 1.228 3.825 3.825 0 0 1 .78 1.58 4.058 4.058 0 0 1 .039 1.58 5.279 5.279 0 0 1-.37 1.267l-2.458 5.582 4.992 10.764 9.009-19.664a3.238 3.238 0 0 1 .507-.878 5.114 5.114 0 0 1 .839-.839 4.029 4.029 0 0 1 1.112-.624 3.745 3.745 0 0 1 1.326-.234 4.1 4.1 0 0 1 2.028.546 3.648 3.648 0 0 1 1.265 1.019 4.31 4.31 0 0 1 .721 1.365 4.565 4.565 0 0 1 .215 1.5 3.517 3.517 0 0 1-.332 1.424L130.9 53.426a5.784 5.784 0 0 1-1.309 1.833 3.116 3.116 0 0 1-2.2.741 4.852 4.852 0 0 1-2.613-.7 4.168 4.168 0 0 1-1.678-2.069l-5.538-12.6-5.736 12.869a4.139 4.139 0 0 1-1.56 1.814 4.416 4.416 0 0 1-2.457.686 5.22 5.22 0 0 1-.644-.078 4.236 4.236 0 0 1-1.052-.332 4.684 4.684 0 0 1-1.131-.741 3.839 3.839 0 0 1-.956-1.349L91.234 25.81a3.889 3.889 0 0 1-.351-2.087 4.581 4.581 0 0 1 .663-1.95 4.436 4.436 0 0 1 1.463-1.443 3.821 3.821 0 0 1 2.048-.565q.195 0 .429.019a3.81 3.81 0 0 1 .429.059 3.611 3.611 0 0 1 1.93 1.014 5.267 5.267 0 0 1 1.073 1.482zm47.7-.429a9.374 9.374 0 0 0 1.424 2.633 9.523 9.523 0 0 0 2.125 2.028 9.647 9.647 0 0 0 2.65 1.291 10.191 10.191 0 0 0 3.042.448 9 9 0 0 0 6.318-2.106 6.147 6.147 0 0 1 1.521-.8 4.341 4.341 0 0 1 1.4-.253 3.464 3.464 0 0 1 1.95.566 4.577 4.577 0 0 1 1.4 1.462 4.552 4.552 0 0 1 .566 1.346 3.953 3.953 0 0 1 .078 1.463 4.464 4.464 0 0 1-.468 1.463 4.01 4.01 0 0 1-1.104 1.301 16.023 16.023 0 0 1-1.95 1.5 12.988 12.988 0 0 1-2.516 1.269 18.35 18.35 0 0 1-3.2.878 21.881 21.881 0 0 1-4 .331 18.129 18.129 0 0 1-7.25-1.463 18.842 18.842 0 0 1-5.928-4 19.182 19.182 0 0 1-4.017-5.905 17.786 17.786 0 0 1-1.482-7.235 17.923 17.923 0 0 1 1.482-7.254 18.879 18.879 0 0 1 4.017-5.911 19.009 19.009 0 0 1 5.928-3.978 18.129 18.129 0 0 1 7.254-1.463 18.1 18.1 0 0 1 7.2 1.443 19.384 19.384 0 0 1 5.928 3.92 18.641 18.641 0 0 1 4.056 5.83 17.814 17.814 0 0 1 1.541 7.176 3.858 3.858 0 0 1-1.15 2.906 4.167 4.167 0 0 1-3.023 1.111zm19.266-7.02a8.908 8.908 0 0 0-1.346-2.886 9.016 9.016 0 0 0-2.2-2.184 9.84 9.84 0 0 0-2.886-1.365 12.022 12.022 0 0 0-3.393-.468 11.379 11.379 0 0 0-3.374.487 9.7 9.7 0 0 0-2.847 1.4 9.329 9.329 0 0 0-2.17 2.188 8.968 8.968 0 0 0-1.326 2.827zm22.808 6.123q-1.677-.7-3.471-1.56a15.77 15.77 0 0 1-3.271-2.091 10.383 10.383 0 0 1-2.438-2.925 8.181 8.181 0 0 1-.955-4.076 10.09 10.09 0 0 1 .975-4.465 10.087 10.087 0 0 1 2.71-3.427 12.329 12.329 0 0 1 4.115-2.184 17.09 17.09 0 0 1 5.226-.761 23.738 23.738 0 0 1 3.393.254 17.134 17.134 0 0 1 3.335.819 11.017 11.017 0 0 1 2.827 1.482 6.3 6.3 0 0 1 1.911 2.2 4.307 4.307 0 0 1 .409 2.476 3.7 3.7 0 0 1-.877 2.009 3.994 3.994 0 0 1-1.268.975 3.475 3.475 0 0 1-1.54.351 3.545 3.545 0 0 1-1.365-.312q-.819-.507-1.5-.9a9.859 9.859 0 0 0-1.4-.663 8.175 8.175 0 0 0-1.521-.41 10.85 10.85 0 0 0-1.813-.136 8.53 8.53 0 0 0-3.842.682 2.219 2.219 0 0 0-1.306 2.087 1.666 1.666 0 0 0 .487 1.229 4.606 4.606 0 0 0 1.326.877 14.778 14.778 0 0 0 2.028.741q1.189.351 2.594.78a37.3 37.3 0 0 1 4.381 1.644 15.213 15.213 0 0 1 3.666 2.281 10.356 10.356 0 0 1 2.515 3.159 9.377 9.377 0 0 1 .936 4.349 9.91 9.91 0 0 1-.995 4.388 11.1 11.1 0 0 1-2.75 3.569 13.142 13.142 0 0 1-4.171 2.397 15.444 15.444 0 0 1-5.3.878 23.392 23.392 0 0 1-3.8-.331 17.163 17.163 0 0 1-3.9-1.131 14.982 14.982 0 0 1-3.491-2.067 9.626 9.626 0 0 1-2.581-3.139 5.053 5.053 0 0 1-.7-2.4 3.809 3.809 0 0 1 .487-1.95 3.389 3.389 0 0 1 1.365-1.307 4.037 4.037 0 0 1 1.93-.468 5.2 5.2 0 0 1 1.95.41 7.131 7.131 0 0 1 2.028 1.306 6.411 6.411 0 0 0 1.169 1.109 9.182 9.182 0 0 0 1.56.936 9.155 9.155 0 0 0 1.852.643 9.083 9.083 0 0 0 2.087.234 7.538 7.538 0 0 0 1.834-.213 5.719 5.719 0 0 0 1.521-.6 3.364 3.364 0 0 0 1.053-.936 2.093 2.093 0 0 0 .39-1.248 1.929 1.929 0 0 0-.858-1.5 10.812 10.812 0 0 0-2.087-1.271 22.612 22.612 0 0 0-2.574-1.033zm29.016-2.886a9.786 9.786 0 0 0 .8 3.92 10.3 10.3 0 0 0 2.184 3.236 10.366 10.366 0 0 0 3.218 2.184 9.744 9.744 0 0 0 3.939.8 9.882 9.882 0 0 0 3.958-.8 10.071 10.071 0 0 0 3.218-2.184 10.2 10.2 0 0 0 2.145-3.237 10 10 0 0 0 .78-3.92 10.1 10.1 0 0 0-.78-3.958 9.968 9.968 0 0 0-2.145-3.218 10.234 10.234 0 0 0-3.218-2.164 9.882 9.882 0 0 0-3.958-.8 9.786 9.786 0 0 0-3.92.8 10.473 10.473 0 0 0-3.237 2.165 10.071 10.071 0 0 0-2.184 3.218 9.882 9.882 0 0 0-.795 3.958zm-8.463 0a17.786 17.786 0 0 1 1.487-7.235 19.182 19.182 0 0 1 4.017-5.908 18.9 18.9 0 0 1 5.909-4 17.894 17.894 0 0 1 7.2-1.463 18.129 18.129 0 0 1 7.254 1.463 18.61 18.61 0 0 1 5.909 4 18.8 18.8 0 0 1 3.958 5.908 18.2 18.2 0 0 1 1.443 7.235 18.243 18.243 0 0 1-1.443 7.215 18.736 18.736 0 0 1-3.958 5.928 18.609 18.609 0 0 1-5.909 4 18.129 18.129 0 0 1-7.259 1.46 17.894 17.894 0 0 1-7.2-1.463 18.9 18.9 0 0 1-5.909-4 19.117 19.117 0 0 1-4.012-5.925 17.828 17.828 0 0 1-1.482-7.215zm50.661 14a4 4 0 0 1-1.185 2.945 4 4 0 0 1-2.944 1.19 4.145 4.145 0 0 1-1.638-.332 4.917 4.917 0 0 1-1.384-.878 4 4 0 0 1-.956-1.306 3.816 3.816 0 0 1-.351-1.619V33.5a13.456 13.456 0 0 1 1.151-5.519 14.344 14.344 0 0 1 3.139-4.524 15.163 15.163 0 0 1 4.622-3.062 13.931 13.931 0 0 1 5.557-1.131 14.085 14.085 0 0 1 5.714 1.17 15.214 15.214 0 0 1 4.7 3.2 15.086 15.086 0 0 1 4.738-3.2 14.36 14.36 0 0 1 5.753-1.17 14.032 14.032 0 0 1 5.538 1.092 14.476 14.476 0 0 1 4.524 3 14.921 14.921 0 0 1 3.12 4.446 14.176 14.176 0 0 1 1.287 5.421.9.9 0 0 0 .02.176.9.9 0 0 1 .019.175v18.292a4.006 4.006 0 0 1-.331 1.619 4.034 4.034 0 0 1-.9 1.306 4.523 4.523 0 0 1-1.307.878 3.87 3.87 0 0 1-1.6.331 4.287 4.287 0 0 1-1.657-.332 4.574 4.574 0 0 1-1.384-.878 4.137 4.137 0 0 1-.936-1.306 3.816 3.816 0 0 1-.351-1.619V33.458a5.649 5.649 0 0 0-.546-2.3 5.843 5.843 0 0 0-1.345-1.814 6.3 6.3 0 0 0-1.911-1.19 6.191 6.191 0 0 0-2.321-.429 6.161 6.161 0 0 0-2.379.468 6.329 6.329 0 0 0-1.97 1.267 5.979 5.979 0 0 0-1.326 1.872 5.541 5.541 0 0 0-.488 2.321v18.213a4 4 0 0 1-1.186 2.944 4 4 0 0 1-2.945 1.19 4.145 4.145 0 0 1-1.638-.332 4.917 4.917 0 0 1-1.384-.878 4 4 0 0 1-.956-1.306 3.816 3.816 0 0 1-.351-1.619V33.5a6 6 0 0 0-.526-2.32 5.672 5.672 0 0 0-1.307-1.833 6 6 0 0 0-1.911-1.19 6.342 6.342 0 0 0-2.34-.429 6.245 6.245 0 0 0-2.359.449 6.107 6.107 0 0 0-1.95 1.248 6.048 6.048 0 0 0-1.326 1.853 5.318 5.318 0 0 0-.488 2.262zm55.887-10.218a9.374 9.374 0 0 0 1.424 2.633 9.523 9.523 0 0 0 2.126 2.028 9.647 9.647 0 0 0 2.656 1.292 10.191 10.191 0 0 0 3.042.448 9 9 0 0 0 6.318-2.106 6.147 6.147 0 0 1 1.521-.8 4.341 4.341 0 0 1 1.4-.253 3.463 3.463 0 0 1 1.95.566 4.577 4.577 0 0 1 1.4 1.462 4.551 4.551 0 0 1 .565 1.346 3.953 3.953 0 0 1 .078 1.463 4.464 4.464 0 0 1-.468 1.463 4.01 4.01 0 0 1-1.103 1.301 16.024 16.024 0 0 1-1.95 1.5 12.988 12.988 0 0 1-2.516 1.268 18.35 18.35 0 0 1-3.2.878 21.881 21.881 0 0 1-4 .331 18.129 18.129 0 0 1-7.254-1.463 18.842 18.842 0 0 1-5.928-4 19.182 19.182 0 0 1-4.012-5.904 17.786 17.786 0 0 1-1.482-7.235 17.923 17.923 0 0 1 1.482-7.254 18.879 18.879 0 0 1 4.017-5.909 19.009 19.009 0 0 1 5.928-3.978 18.129 18.129 0 0 1 7.254-1.463 18.1 18.1 0 0 1 7.2 1.443 19.384 19.384 0 0 1 5.928 3.92 18.64 18.64 0 0 1 4.056 5.83 17.814 17.814 0 0 1 1.541 7.176 3.858 3.858 0 0 1-1.15 2.906 4.167 4.167 0 0 1-3.023 1.111zm19.266-7.02a8.908 8.908 0 0 0-1.345-2.886 9.016 9.016 0 0 0-2.2-2.184 9.841 9.841 0 0 0-2.886-1.365 12.022 12.022 0 0 0-3.393-.468 11.379 11.379 0 0 0-3.373.487 9.7 9.7 0 0 0-2.847 1.4 9.329 9.329 0 0 0-2.164 2.184 8.968 8.968 0 0 0-1.326 2.827zm-317.09 79.2a4.37 4.37 0 0 1-.312 1.638 3.754 3.754 0 0 1-.878 1.326 4.523 4.523 0 0 1-1.307.877 3.87 3.87 0 0 1-1.6.332 4.385 4.385 0 0 1-1.7-.332 4.573 4.573 0 0 1-1.384-.877 4.079 4.079 0 0 1-.936-1.326 3.947 3.947 0 0 1-.351-1.638V101.23a18.8 18.8 0 0 1 1.54-7.566 19.861 19.861 0 0 1 4.193-6.2 19.861 19.861 0 0 1 6.2-4.193 18.7 18.7 0 0 1 7.527-1.541h.078a4.32 4.32 0 0 1 3.257 1.19 4.17 4.17 0 0 1 1.15 3.022 4.039 4.039 0 0 1-.351 1.677 4.156 4.156 0 0 1-.956 1.346 4.63 4.63 0 0 1-1.4.9 4.385 4.385 0 0 1-1.7.332h-.078a10.66 10.66 0 0 0-4.232.858 10.981 10.981 0 0 0-3.49 2.34 11.605 11.605 0 0 0-2.379 3.471 10.22 10.22 0 0 0-.9 4.251zm26.286-10.179a9.374 9.374 0 0 0 1.423 2.632 9.523 9.523 0 0 0 2.126 2.028 9.647 9.647 0 0 0 2.652 1.287 10.191 10.191 0 0 0 3.042.448 9 9 0 0 0 6.318-2.106 6.147 6.147 0 0 1 1.521-.8 4.341 4.341 0 0 1 1.4-.254 3.463 3.463 0 0 1 1.95.566 4.577 4.577 0 0 1 1.4 1.462 4.552 4.552 0 0 1 .565 1.346 3.953 3.953 0 0 1 .078 1.463 4.464 4.464 0 0 1-.468 1.462 4.01 4.01 0 0 1-1.112 1.306 16.023 16.023 0 0 1-1.95 1.5 12.988 12.988 0 0 1-2.516 1.267 18.35 18.35 0 0 1-3.2.878 21.882 21.882 0 0 1-4 .331 18.129 18.129 0 0 1-7.254-1.462 18.842 18.842 0 0 1-5.928-4 19.182 19.182 0 0 1-4.017-5.909 17.787 17.787 0 0 1-1.482-7.235 17.923 17.923 0 0 1 1.482-7.254 18.879 18.879 0 0 1 4.017-5.909 19.009 19.009 0 0 1 5.928-3.978 18.129 18.129 0 0 1 7.254-1.463 18.1 18.1 0 0 1 7.2 1.443 19.384 19.384 0 0 1 5.928 3.92 18.641 18.641 0 0 1 4.056 5.83 17.814 17.814 0 0 1 1.541 7.176 3.858 3.858 0 0 1-1.15 2.906 4.167 4.167 0 0 1-3.023 1.111zm19.266-7.02a8.908 8.908 0 0 0-1.345-2.886 9.016 9.016 0 0 0-2.2-2.184 9.841 9.841 0 0 0-2.886-1.365 12.022 12.022 0 0 0-3.393-.468 11.379 11.379 0 0 0-3.373.487 9.7 9.7 0 0 0-2.847 1.4 9.329 9.329 0 0 0-2.165 2.184 8.967 8.967 0 0 0-1.326 2.827zm11.973 3.237a17.786 17.786 0 0 1 1.482-7.235 19.182 19.182 0 0 1 4.017-5.908 18.9 18.9 0 0 1 5.908-4 17.894 17.894 0 0 1 7.2-1.463 18.129 18.129 0 0 1 7.254 1.463 18.609 18.609 0 0 1 5.909 4 18.8 18.8 0 0 1 3.959 5.908 18.2 18.2 0 0 1 1.443 7.235v13.806a4.242 4.242 0 0 1-.331 1.677 4.275 4.275 0 0 1-.917 1.365 4.486 4.486 0 0 1-1.384.936 4.174 4.174 0 0 1-1.7.351 3.834 3.834 0 0 1-2.574-.9 4.308 4.308 0 0 1-1.4-2.262 19.145 19.145 0 0 1-4.817 2.652 15.332 15.332 0 0 1-5.44.975 17.894 17.894 0 0 1-7.2-1.462 18.9 18.9 0 0 1-5.908-4 19.117 19.117 0 0 1-4.017-5.928 17.828 17.828 0 0 1-1.479-7.21zm8.463 0a9.786 9.786 0 0 0 .8 3.92 10.3 10.3 0 0 0 2.184 3.237 10.366 10.366 0 0 0 3.217 2.184 9.744 9.744 0 0 0 3.939.8 9.882 9.882 0 0 0 3.959-.8 10.071 10.071 0 0 0 3.217-2.184 10.2 10.2 0 0 0 2.145-3.237 10 10 0 0 0 .78-3.92 10.1 10.1 0 0 0-.78-3.958 9.968 9.968 0 0 0-2.145-3.218 10.234 10.234 0 0 0-3.217-2.164 9.882 9.882 0 0 0-3.959-.8 9.786 9.786 0 0 0-3.92.8 10.473 10.473 0 0 0-3.237 2.164 10.071 10.071 0 0 0-2.184 3.218 9.882 9.882 0 0 0-.794 3.958zm49.413 9.672a4.039 4.039 0 0 1 1.677.351 3.942 3.942 0 0 1 1.326.955 4.589 4.589 0 0 1 .858 1.385 4.37 4.37 0 0 1 .312 1.638 4.017 4.017 0 0 1-1.17 2.964 4.065 4.065 0 0 1-3 1.17 13.671 13.671 0 0 1-4.973-.9 12.884 12.884 0 0 1-4.076-2.5 11.54 11.54 0 0 1-2.769-3.861 12.99 12.99 0 0 1-1.092-4.992V71.98a4.242 4.242 0 0 1 .332-1.677 4.382 4.382 0 0 1 .877-1.346 4.093 4.093 0 0 1 1.287-.9 3.87 3.87 0 0 1 1.6-.331 4.242 4.242 0 0 1 1.677.331 4.7 4.7 0 0 1 1.384.9 4.157 4.157 0 0 1 .956 1.346 4.039 4.039 0 0 1 .351 1.677v33.5a3.688 3.688 0 0 0 1.248 3.042 4.909 4.909 0 0 0 3.2 1.015zm9.672-36.426a4.574 4.574 0 0 1 .371-1.833 4.714 4.714 0 0 1 .999-1.478 4.714 4.714 0 0 1 1.48-1 4.479 4.479 0 0 1 1.794-.37 4.479 4.479 0 0 1 1.794.37 4.958 4.958 0 0 1 1.5.994 4.555 4.555 0 0 1 1.014 1.482 4.574 4.574 0 0 1 .371 1.833 4.342 4.342 0 0 1-.371 1.774 4.612 4.612 0 0 1-1.014 1.463 4.958 4.958 0 0 1-1.5.995 4.479 4.479 0 0 1-1.794.371 4.479 4.479 0 0 1-1.794-.371 4.714 4.714 0 0 1-1.482-.995 4.777 4.777 0 0 1-.994-1.463 4.342 4.342 0 0 1-.369-1.772zm8.892 40.677a4.145 4.145 0 0 1-.332 1.638 4.206 4.206 0 0 1-.9 1.346 4.266 4.266 0 0 1-1.326.9 4.1 4.1 0 0 1-1.649.328 4.145 4.145 0 0 1-1.638-.332 4.445 4.445 0 0 1-1.365-.9 4.053 4.053 0 0 1-.917-1.346 4.145 4.145 0 0 1-.332-1.638V85.942a3.816 3.816 0 0 1 .351-1.618 4.632 4.632 0 0 1 .936-1.346 4.275 4.275 0 0 1 1.365-.916 4.242 4.242 0 0 1 1.677-.332 3.966 3.966 0 0 1 1.638.332 4.169 4.169 0 0 1 1.307.916 4.225 4.225 0 0 1 .877 1.346 4.222 4.222 0 0 1 .312 1.618zm16.77-32.058h13.577a4.242 4.242 0 0 1 1.677.332 4.275 4.275 0 0 1 1.365.916 4.275 4.275 0 0 1 .917 1.365 4.243 4.243 0 0 1 .331 1.677 4.006 4.006 0 0 1-.331 1.618 4.107 4.107 0 0 1-.917 1.326 4.445 4.445 0 0 1-1.365.9 4.242 4.242 0 0 1-1.677.332h-13.572v9.864a9.512 9.512 0 0 0 .8 3.881 10.121 10.121 0 0 0 2.164 3.159 10.131 10.131 0 0 0 3.219 2.125 10.1 10.1 0 0 0 3.958.78 11.037 11.037 0 0 0 3.471-.527 8.426 8.426 0 0 0 2.964-1.736 6.188 6.188 0 0 1 1.482-1.034 3.789 3.789 0 0 1 1.715-.408 3.811 3.811 0 0 1 2.61 1.053 3.444 3.444 0 0 1 1 1.482 4.549 4.549 0 0 1 .231 1.775 5.031 5.031 0 0 1-.449 1.774 4.82 4.82 0 0 1-1.091 1.516 15.61 15.61 0 0 1-5.382 3.413 18.369 18.369 0 0 1-6.552 1.15 18.2 18.2 0 0 1-7.234-1.443 18.964 18.964 0 0 1-5.909-3.939 18.438 18.438 0 0 1-4-5.869 17.99 17.99 0 0 1-1.463-7.234V74.944a4.039 4.039 0 0 1 .351-1.677 4.554 4.554 0 0 1 .936-1.365 4.275 4.275 0 0 1 1.365-.916 4.145 4.145 0 0 1 1.638-.332 4.006 4.006 0 0 1 1.618.332 4.107 4.107 0 0 1 1.326.916 4.445 4.445 0 0 1 .9 1.365 4.242 4.242 0 0 1 .332 1.677zm28.748-8.619a4.574 4.574 0 0 1 .37-1.833 4.62 4.62 0 0 1 2.477-2.478 4.529 4.529 0 0 1 3.588 0 4.958 4.958 0 0 1 1.5.994 4.606 4.606 0 0 1 1.385 3.315 4.342 4.342 0 0 1-.371 1.774 4.612 4.612 0 0 1-1.009 1.465 4.958 4.958 0 0 1-1.5.995 4.529 4.529 0 0 1-3.588 0 4.714 4.714 0 0 1-1.482-.995 4.777 4.777 0 0 1-.995-1.463 4.342 4.342 0 0 1-.375-1.774zm8.892 40.677a4.145 4.145 0 0 1-.332 1.638 4.206 4.206 0 0 1-.9 1.346 4.266 4.266 0 0 1-1.326.9 4.1 4.1 0 0 1-1.654.328 4.145 4.145 0 0 1-1.64-.332 4.445 4.445 0 0 1-1.365-.9 4.053 4.053 0 0 1-.917-1.346 4.145 4.145 0 0 1-.332-1.638V85.942a3.816 3.816 0 0 1 .351-1.618 4.632 4.632 0 0 1 .936-1.346 4.261 4.261 0 0 1 3.042-1.248 3.966 3.966 0 0 1 1.638.332 4.169 4.169 0 0 1 1.307.916 4.226 4.226 0 0 1 1.189 2.964zm15.717-10.14a9.374 9.374 0 0 0 1.424 2.632 9.523 9.523 0 0 0 2.125 2.028 9.647 9.647 0 0 0 2.652 1.292 10.191 10.191 0 0 0 3.042.448 9 9 0 0 0 6.318-2.106 6.147 6.147 0 0 1 1.521-.8 4.341 4.341 0 0 1 1.4-.254 3.464 3.464 0 0 1 1.95.566 4.778 4.778 0 0 1 1.969 2.808 3.953 3.953 0 0 1 .078 1.463 4.464 4.464 0 0 1-.468 1.462 4.01 4.01 0 0 1-1.111 1.306 16.023 16.023 0 0 1-1.95 1.5 12.988 12.988 0 0 1-2.516 1.267 18.35 18.35 0 0 1-3.2.878 21.882 21.882 0 0 1-4 .331 18.129 18.129 0 0 1-7.254-1.462 18.842 18.842 0 0 1-5.928-4 19.182 19.182 0 0 1-4.008-5.907 18.446 18.446 0 0 1 0-14.488 18.777 18.777 0 0 1 9.945-9.887 18.691 18.691 0 0 1 14.449-.02 19.384 19.384 0 0 1 5.928 3.92 18.641 18.641 0 0 1 4.056 5.83 17.814 17.814 0 0 1 1.541 7.176 3.858 3.858 0 0 1-1.15 2.906 4.167 4.167 0 0 1-3.023 1.111zm19.266-7.02a8.908 8.908 0 0 0-1.346-2.886 9.016 9.016 0 0 0-2.2-2.184 9.841 9.841 0 0 0-2.889-1.365 12.022 12.022 0 0 0-3.393-.468 11.379 11.379 0 0 0-3.374.487 9.7 9.7 0 0 0-2.847 1.4 9.329 9.329 0 0 0-2.164 2.188 8.968 8.968 0 0 0-1.322 2.828zm22.815 6.123q-1.677-.7-3.471-1.56A15.77 15.77 0 0 1 266.4 99.1a10.383 10.383 0 0 1-2.437-2.925 8.181 8.181 0 0 1-.953-4.075 9.946 9.946 0 0 1 3.686-7.9 12.329 12.329 0 0 1 4.115-2.184 17.09 17.09 0 0 1 5.226-.761 23.737 23.737 0 0 1 3.393.254 17.134 17.134 0 0 1 3.335.819 11.017 11.017 0 0 1 2.827 1.482 6.3 6.3 0 0 1 1.911 2.2 4.307 4.307 0 0 1 .41 2.476 3.7 3.7 0 0 1-.878 2.008 3.994 3.994 0 0 1-1.268.975 3.475 3.475 0 0 1-1.54.351 3.545 3.545 0 0 1-1.365-.312q-.819-.507-1.5-.9a9.86 9.86 0 0 0-1.4-.663 8.176 8.176 0 0 0-1.521-.41 10.85 10.85 0 0 0-1.813-.137 8.53 8.53 0 0 0-3.841.682 2.219 2.219 0 0 0-1.307 2.087 1.666 1.666 0 0 0 .488 1.229 4.606 4.606 0 0 0 1.326.877 14.778 14.778 0 0 0 2.028.741q1.189.351 2.593.78a37.3 37.3 0 0 1 4.385 1.653 15.213 15.213 0 0 1 3.666 2.282 10.356 10.356 0 0 1 2.515 3.159 9.377 9.377 0 0 1 .936 4.349 9.91 9.91 0 0 1-.994 4.388 11.1 11.1 0 0 1-2.75 3.569 13.142 13.142 0 0 1-4.173 2.4 15.444 15.444 0 0 1-5.3.877 23.392 23.392 0 0 1-3.8-.331 17.163 17.163 0 0 1-3.9-1.131 14.982 14.982 0 0 1-3.5-2.071 9.626 9.626 0 0 1-2.575-3.138 5.053 5.053 0 0 1-.7-2.4 3.809 3.809 0 0 1 .487-1.95 3.389 3.389 0 0 1 1.365-1.307 4.037 4.037 0 0 1 1.931-.468 5.2 5.2 0 0 1 1.95.41 7.131 7.131 0 0 1 2.028 1.306 6.412 6.412 0 0 0 1.17 1.112 9.188 9.188 0 0 0 3.413 1.579 9.083 9.083 0 0 0 2.087.234 7.537 7.537 0 0 0 1.833-.215 5.719 5.719 0 0 0 1.521-.6 3.364 3.364 0 0 0 1.053-.936 2.093 2.093 0 0 0 .39-1.248 1.929 1.929 0 0 0-.858-1.5 10.812 10.812 0 0 0-2.087-1.268 22.612 22.612 0 0 0-2.574-1.034zm48.594-21.021h13.572a4.261 4.261 0 0 1 4.29 4.29 4.006 4.006 0 0 1-.331 1.618 4.107 4.107 0 0 1-.917 1.326 4.445 4.445 0 0 1-1.365.9 4.242 4.242 0 0 1-1.677.332h-13.572v9.864a9.512 9.512 0 0 0 .8 3.881 10.134 10.134 0 0 0 9.34 6.065 11.037 11.037 0 0 0 3.471-.527 8.426 8.426 0 0 0 2.964-1.736 6.189 6.189 0 0 1 1.482-1.034 3.78 3.78 0 0 1 4.329.644 3.444 3.444 0 0 1 .995 1.482 4.549 4.549 0 0 1 .234 1.775 5.031 5.031 0 0 1-.449 1.774 4.82 4.82 0 0 1-1.092 1.521 15.61 15.61 0 0 1-5.382 3.413 19.032 19.032 0 0 1-13.786-.292 18.964 18.964 0 0 1-5.909-3.939 18.438 18.438 0 0 1-4-5.869 17.99 17.99 0 0 1-1.462-7.234v-25.04a4.039 4.039 0 0 1 .351-1.677 4.554 4.554 0 0 1 .936-1.365 4.275 4.275 0 0 1 1.365-.916 4.145 4.145 0 0 1 1.638-.332 4.006 4.006 0 0 1 1.619.332 4.107 4.107 0 0 1 1.326.916 4.445 4.445 0 0 1 .9 1.365 4.242 4.242 0 0 1 .331 1.677zm34.71 18.135a9.786 9.786 0 0 0 .8 3.92 10.292 10.292 0 0 0 5.4 5.421 9.744 9.744 0 0 0 3.939.8 9.882 9.882 0 0 0 3.958-.8 10.071 10.071 0 0 0 3.217-2.184 10.2 10.2 0 0 0 2.145-3.237 10.187 10.187 0 0 0-2.145-11.1 10.234 10.234 0 0 0-3.217-2.164 10.1 10.1 0 0 0-7.878 0 10.473 10.473 0 0 0-3.237 2.164 10.071 10.071 0 0 0-2.184 3.218 9.882 9.882 0 0 0-.798 3.962zm-8.463 0a17.787 17.787 0 0 1 1.482-7.235 19.182 19.182 0 0 1 4.017-5.908 18.9 18.9 0 0 1 5.909-4 17.894 17.894 0 0 1 7.2-1.463 18.129 18.129 0 0 1 7.254 1.463 18.583 18.583 0 0 1 9.867 9.906 18.808 18.808 0 0 1 0 14.45 18.532 18.532 0 0 1-9.867 9.925 18.129 18.129 0 0 1-7.254 1.462 17.894 17.894 0 0 1-7.2-1.462 18.9 18.9 0 0 1-5.909-4 19.117 19.117 0 0 1-4.017-5.928 17.828 17.828 0 0 1-1.482-7.21zM85.813 165.648a9.374 9.374 0 0 0 1.424 2.633 9.523 9.523 0 0 0 2.126 2.028 9.647 9.647 0 0 0 2.652 1.287 10.191 10.191 0 0 0 3.042.449 9 9 0 0 0 6.318-2.106 6.147 6.147 0 0 1 1.521-.8 4.341 4.341 0 0 1 1.4-.253 3.464 3.464 0 0 1 1.95.565 4.577 4.577 0 0 1 1.4 1.463 4.552 4.552 0 0 1 .566 1.345 3.954 3.954 0 0 1 .078 1.463 4.464 4.464 0 0 1-.468 1.463 4.01 4.01 0 0 1-1.111 1.306 16.023 16.023 0 0 1-1.95 1.5 12.989 12.989 0 0 1-2.516 1.268 18.35 18.35 0 0 1-3.2.877 21.881 21.881 0 0 1-4 .332 18.129 18.129 0 0 1-7.254-1.463 18.842 18.842 0 0 1-5.928-4 19.182 19.182 0 0 1-4.017-5.909 17.786 17.786 0 0 1-1.482-7.235 17.923 17.923 0 0 1 1.482-7.254 18.879 18.879 0 0 1 4.017-5.909 19.009 19.009 0 0 1 5.928-3.978 18.129 18.129 0 0 1 7.254-1.463 18.1 18.1 0 0 1 7.2 1.443 19.384 19.384 0 0 1 5.928 3.919 18.641 18.641 0 0 1 4.056 5.831 17.814 17.814 0 0 1 1.54 7.176 3.858 3.858 0 0 1-1.15 2.906 4.167 4.167 0 0 1-3.022 1.111zm19.266-7.02a8.908 8.908 0 0 0-1.346-2.886 9.016 9.016 0 0 0-2.2-2.184 9.84 9.84 0 0 0-2.886-1.365 12.022 12.022 0 0 0-3.393-.468 11.379 11.379 0 0 0-3.374.487 9.7 9.7 0 0 0-2.847 1.4 9.329 9.329 0 0 0-2.164 2.184 8.968 8.968 0 0 0-1.326 2.827zm29.484-2.574l11.193-11a4.244 4.244 0 0 1 1.462-.975 4.419 4.419 0 0 1 1.618-.312 4.363 4.363 0 0 1 1.58.293 3.828 3.828 0 0 1 1.346.877 3.7 3.7 0 0 1 .9 1.4 4.131 4.131 0 0 1 .234 1.579 4.585 4.585 0 0 1-.37 1.579 4.761 4.761 0 0 1-.917 1.4l-11.115 11 11.037 10.842a4.459 4.459 0 0 1 .9 1.4 4.567 4.567 0 0 1 .332 1.6 4.143 4.143 0 0 1-.293 1.618 3.736 3.736 0 0 1-.936 1.384 4.267 4.267 0 0 1-3 1.248 4.049 4.049 0 0 1-2.964-1.248l-11.076-10.92-11.124 10.972a3.814 3.814 0 0 1-1.346.936 4.027 4.027 0 0 1-1.54.312 4.223 4.223 0 0 1-2.964-1.248 3.814 3.814 0 0 1-.936-1.345 3.824 3.824 0 0 1-.292-1.56 4.522 4.522 0 0 1 .331-1.579 4.459 4.459 0 0 1 .9-1.4l11.037-10.92-11.274-11.12a4.021 4.021 0 0 1-.9-1.365 3.956 3.956 0 0 1-.292-1.579 4.522 4.522 0 0 1 .331-1.579 4.156 4.156 0 0 1 .936-1.4 4.267 4.267 0 0 1 3-1.248 4.173 4.173 0 0 1 1.56.312 4.156 4.156 0 0 1 1.4.936zm23.127 5.811a17.786 17.786 0 0 1 1.482-7.235 19.182 19.182 0 0 1 4.017-5.908 18.9 18.9 0 0 1 5.909-4 17.894 17.894 0 0 1 7.2-1.463 18.129 18.129 0 0 1 7.254 1.463 18.609 18.609 0 0 1 5.909 4 18.8 18.8 0 0 1 3.953 5.908 18.2 18.2 0 0 1 1.443 7.235 18.243 18.243 0 0 1-1.443 7.215 18.736 18.736 0 0 1-3.958 5.928 18.609 18.609 0 0 1-5.909 4 18.129 18.129 0 0 1-7.254 1.463 17.849 17.849 0 0 1-5.363-.8 19.343 19.343 0 0 1-4.778-2.243v11.349a5.014 5.014 0 0 1-.292 1.736 4.034 4.034 0 0 1-.839 1.385 4.137 4.137 0 0 1-1.306.936 4 4 0 0 1-1.7.351 4.039 4.039 0 0 1-1.677-.351 4.554 4.554 0 0 1-1.365-.936 4.486 4.486 0 0 1-.936-1.385 4.269 4.269 0 0 1-.351-1.736zm8.463 0a9.786 9.786 0 0 0 .8 3.92 10.3 10.3 0 0 0 2.184 3.237 10.366 10.366 0 0 0 3.217 2.184 9.744 9.744 0 0 0 3.939.8 9.882 9.882 0 0 0 3.958-.8 10.071 10.071 0 0 0 3.218-2.184 10.2 10.2 0 0 0 2.145-3.237 10 10 0 0 0 .78-3.92 10.1 10.1 0 0 0-.78-3.958 9.968 9.968 0 0 0-2.145-3.218 10.234 10.234 0 0 0-3.218-2.164 9.882 9.882 0 0 0-3.958-.8 9.786 9.786 0 0 0-3.92.8 10.473 10.473 0 0 0-3.237 2.164 10.071 10.071 0 0 0-2.184 3.218 9.882 9.882 0 0 0-.799 3.958zm47.385 9.672a4.039 4.039 0 0 1 1.677.351 3.942 3.942 0 0 1 1.326.955 4.589 4.589 0 0 1 .858 1.384 4.37 4.37 0 0 1 .312 1.638 4.017 4.017 0 0 1-1.17 2.964 4.065 4.065 0 0 1-3 1.17 13.671 13.671 0 0 1-4.972-.9 12.884 12.884 0 0 1-4.076-2.5 11.54 11.54 0 0 1-2.769-3.861 12.99 12.99 0 0 1-1.092-4.992V133.98a4.242 4.242 0 0 1 .329-1.68 4.382 4.382 0 0 1 .878-1.345 4.092 4.092 0 0 1 1.287-.9 3.87 3.87 0 0 1 1.6-.331 4.242 4.242 0 0 1 1.677.331 4.7 4.7 0 0 1 1.384.9 4.157 4.157 0 0 1 .954 1.345 4.039 4.039 0 0 1 .351 1.677v33.5a3.688 3.688 0 0 0 1.248 3.042 4.909 4.909 0 0 0 3.198 1.018zm15.717-9.672a9.786 9.786 0 0 0 .8 3.92 10.292 10.292 0 0 0 5.4 5.421 9.744 9.744 0 0 0 3.939.8 9.882 9.882 0 0 0 3.958-.8 10.071 10.071 0 0 0 3.218-2.184 10.2 10.2 0 0 0 2.145-3.237 10.187 10.187 0 0 0-2.145-11.1 10.234 10.234 0 0 0-3.218-2.164 10.1 10.1 0 0 0-7.878 0 10.473 10.473 0 0 0-3.237 2.164 10.071 10.071 0 0 0-2.184 3.218 9.882 9.882 0 0 0-.797 3.962zm-8.463 0a17.786 17.786 0 0 1 1.482-7.235 19.182 19.182 0 0 1 4.017-5.908 18.9 18.9 0 0 1 5.909-4 17.894 17.894 0 0 1 7.2-1.463 18.129 18.129 0 0 1 7.254 1.463 18.583 18.583 0 0 1 9.867 9.906 18.808 18.808 0 0 1 0 14.45 18.532 18.532 0 0 1-9.867 9.925 18.129 18.129 0 0 1-7.254 1.463 17.894 17.894 0 0 1-7.2-1.463 18.9 18.9 0 0 1-5.909-4 19.117 19.117 0 0 1-4.017-5.928 17.828 17.828 0 0 1-1.482-7.21zm50.739 13.962a4.37 4.37 0 0 1-.312 1.638 3.754 3.754 0 0 1-.877 1.326 4.523 4.523 0 0 1-1.307.878 3.87 3.87 0 0 1-1.6.331 4.385 4.385 0 0 1-1.7-.331 4.574 4.574 0 0 1-1.384-.878 4.079 4.079 0 0 1-.936-1.326 3.947 3.947 0 0 1-.351-1.638v-12.6a18.8 18.8 0 0 1 1.541-7.566A19.726 19.726 0 0 1 275 145.27a18.7 18.7 0 0 1 7.527-1.54h.078a4.32 4.32 0 0 1 3.257 1.189 4.17 4.17 0 0 1 1.15 3.023 4.039 4.039 0 0 1-.351 1.677 4.156 4.156 0 0 1-.955 1.346 4.63 4.63 0 0 1-1.4.9 4.385 4.385 0 0 1-1.7.331h-.078a10.66 10.66 0 0 0-4.231.858 10.981 10.981 0 0 0-3.491 2.34 11.606 11.606 0 0 0-2.379 3.471 10.22 10.22 0 0 0-.9 4.251zm26.286-10.179a9.374 9.374 0 0 0 1.424 2.633 9.523 9.523 0 0 0 2.126 2.028 9.647 9.647 0 0 0 2.652 1.287 10.191 10.191 0 0 0 3.042.449 9 9 0 0 0 6.318-2.106 6.147 6.147 0 0 1 1.521-.8 4.341 4.341 0 0 1 1.4-.253 3.464 3.464 0 0 1 1.95.565 4.778 4.778 0 0 1 1.969 2.808 3.954 3.954 0 0 1 .078 1.463 4.464 4.464 0 0 1-.468 1.463 4.01 4.01 0 0 1-1.111 1.306 16.023 16.023 0 0 1-1.95 1.5 12.989 12.989 0 0 1-2.516 1.268 18.35 18.35 0 0 1-3.2.877 21.881 21.881 0 0 1-4 .332 18.129 18.129 0 0 1-7.254-1.463 18.842 18.842 0 0 1-5.928-4 19.182 19.182 0 0 1-4.017-5.909 18.447 18.447 0 0 1 0-14.489 18.777 18.777 0 0 1 9.945-9.886 18.691 18.691 0 0 1 14.45-.02 19.384 19.384 0 0 1 5.928 3.919 18.641 18.641 0 0 1 4.056 5.831 17.814 17.814 0 0 1 1.54 7.176 3.858 3.858 0 0 1-1.15 2.906 4.167 4.167 0 0 1-3.022 1.111zm19.266-7.02a8.908 8.908 0 0 0-1.346-2.886 9.016 9.016 0 0 0-2.2-2.184 9.84 9.84 0 0 0-2.886-1.365 12.022 12.022 0 0 0-3.393-.468 11.379 11.379 0 0 0-3.374.487 9.7 9.7 0 0 0-2.847 1.4 9.329 9.329 0 0 0-2.166 2.188 8.968 8.968 0 0 0-1.326 2.827z" fill="#fff"/>
  <path fill="none" opacity=".55" d="M0 0h402v201H0z"/>
</svg>
