<svg class="hero-discover" xmlns="http://www.w3.org/2000/svg" viewBox="0 0 402 201">
  <path d="M95.349 38.021a18.07 18.07 0 0 1-1.521 7.156 18.87 18.87 0 0 1-4 5.87 19 19 0 0 1-5.889 3.959 17.894 17.894 0 0 1-7.2 1.463 17.99 17.99 0 0 1-7.234-1.463 18.669 18.669 0 0 1-5.889-4 19.01 19.01 0 0 1-3.978-5.928 18.033 18.033 0 0 1-1.462-7.215 18.129 18.129 0 0 1 1.462-7.254 18.773 18.773 0 0 1 3.978-5.909 18.834 18.834 0 0 1 5.889-3.978 17.99 17.99 0 0 1 7.234-1.463 17.849 17.849 0 0 1 5.363.8 19.342 19.342 0 0 1 4.777 2.243V10.136A4.733 4.733 0 0 1 87.2 8.4a4.345 4.345 0 0 1 .877-1.4 3.968 3.968 0 0 1 1.326-.936 4.2 4.2 0 0 1 1.7-.331 4.242 4.242 0 0 1 1.677.331A3.919 3.919 0 0 1 94.125 7a4.63 4.63 0 0 1 .9 1.4 4.486 4.486 0 0 1 .332 1.736zm-8.463-.156a9.882 9.882 0 0 0-.8-3.958 10.071 10.071 0 0 0-2.184-3.218 10.539 10.539 0 0 0-3.217-2.164 9.744 9.744 0 0 0-3.939-.8 9.744 9.744 0 0 0-3.939.8 10.538 10.538 0 0 0-3.217 2.164 9.814 9.814 0 0 0-2.165 3.218 10.1 10.1 0 0 0-.78 3.958 10 10 0 0 0 .78 3.92 10.2 10.2 0 0 0 2.145 3.237 10.071 10.071 0 0 0 3.217 2.184 9.882 9.882 0 0 0 3.958.8 9.744 9.744 0 0 0 3.939-.8 10.366 10.366 0 0 0 3.217-2.184 10.3 10.3 0 0 0 2.184-3.237 9.786 9.786 0 0 0 .801-3.92zm16.848-26.754a4.574 4.574 0 0 1 .37-1.833A4.714 4.714 0 0 1 105.1 7.8a4.714 4.714 0 0 1 1.482-.994 4.479 4.479 0 0 1 1.794-.37 4.479 4.479 0 0 1 1.794.37 4.958 4.958 0 0 1 1.5.994 4.555 4.555 0 0 1 1.014 1.482 4.574 4.574 0 0 1 .37 1.833 4.342 4.342 0 0 1-.37 1.774 4.613 4.613 0 0 1-1.014 1.463 4.958 4.958 0 0 1-1.5.995 4.479 4.479 0 0 1-1.794.371 4.479 4.479 0 0 1-1.794-.371 4.714 4.714 0 0 1-1.482-.995 4.777 4.777 0 0 1-.994-1.463 4.342 4.342 0 0 1-.372-1.778zm8.892 40.677a4.145 4.145 0 0 1-.331 1.638 4.207 4.207 0 0 1-.9 1.345 4.266 4.266 0 0 1-1.326.9 4.1 4.1 0 0 1-1.655.329 4.145 4.145 0 0 1-1.638-.332 4.445 4.445 0 0 1-1.365-.9 4.053 4.053 0 0 1-.916-1.345 4.145 4.145 0 0 1-.331-1.638V23.942a3.816 3.816 0 0 1 .351-1.618 4.632 4.632 0 0 1 .936-1.346 4.275 4.275 0 0 1 1.365-.916 4.242 4.242 0 0 1 1.677-.332 3.966 3.966 0 0 1 1.638.332 4.169 4.169 0 0 1 1.307.916 4.225 4.225 0 0 1 .877 1.346 4.222 4.222 0 0 1 .312 1.618zm17.121-11.037q-1.677-.7-3.471-1.56A15.77 15.77 0 0 1 123 37.1a10.383 10.383 0 0 1-2.437-2.925 8.181 8.181 0 0 1-.955-4.076 10.09 10.09 0 0 1 .975-4.465 10.087 10.087 0 0 1 2.711-3.432 12.329 12.329 0 0 1 4.115-2.184 17.09 17.09 0 0 1 5.226-.761 23.737 23.737 0 0 1 3.393.254 17.134 17.134 0 0 1 3.335.819 11.017 11.017 0 0 1 2.827 1.482 6.3 6.3 0 0 1 1.911 2.2 4.307 4.307 0 0 1 .409 2.476 3.7 3.7 0 0 1-.877 2.009 3.994 3.994 0 0 1-1.268.975 3.475 3.475 0 0 1-1.54.351 3.545 3.545 0 0 1-1.365-.312q-.819-.507-1.5-.9a9.859 9.859 0 0 0-1.4-.663 8.175 8.175 0 0 0-1.521-.41 10.85 10.85 0 0 0-1.813-.136 8.53 8.53 0 0 0-3.841.682 2.219 2.219 0 0 0-1.307 2.087 1.666 1.666 0 0 0 .488 1.229 4.606 4.606 0 0 0 1.326.877 14.778 14.778 0 0 0 2.028.741q1.189.351 2.593.78a37.3 37.3 0 0 1 4.387 1.638 15.213 15.213 0 0 1 3.666 2.281 10.356 10.356 0 0 1 2.515 3.159 9.377 9.377 0 0 1 .936 4.349 9.91 9.91 0 0 1-.994 4.388 11.1 11.1 0 0 1-2.75 3.569 13.142 13.142 0 0 1-4.173 2.4 15.444 15.444 0 0 1-5.3.878 23.392 23.392 0 0 1-3.8-.331 17.163 17.163 0 0 1-3.9-1.131 14.982 14.982 0 0 1-3.5-2.06 9.626 9.626 0 0 1-2.578-3.138 5.053 5.053 0 0 1-.7-2.4 3.809 3.809 0 0 1 .488-1.95 3.389 3.389 0 0 1 1.365-1.307 4.037 4.037 0 0 1 1.931-.468 5.2 5.2 0 0 1 1.95.41 7.131 7.131 0 0 1 2.028 1.306 6.412 6.412 0 0 0 1.167 1.109 9.183 9.183 0 0 0 1.56.936 9.155 9.155 0 0 0 1.853.643 9.083 9.083 0 0 0 2.087.234 7.537 7.537 0 0 0 1.832-.213 5.719 5.719 0 0 0 1.517-.6 3.364 3.364 0 0 0 1.053-.936 2.093 2.093 0 0 0 .39-1.248 1.929 1.929 0 0 0-.858-1.5 10.812 10.812 0 0 0-2.085-1.271 22.612 22.612 0 0 0-2.574-1.033zm28.977-2.886a9.219 9.219 0 0 0 .761 3.627 11.168 11.168 0 0 0 2.067 3.217 10.772 10.772 0 0 0 3.061 2.321 8.564 8.564 0 0 0 3.783.936 12.039 12.039 0 0 0 3.725-.526 9.971 9.971 0 0 0 3.257-1.892 12.508 12.508 0 0 1 1.736-1.229 4.023 4.023 0 0 1 2.087-.565 3.828 3.828 0 0 1 1.4.292 5.52 5.52 0 0 1 1.523.954 3.733 3.733 0 0 1 .994 1.384 4.093 4.093 0 0 1 .312 1.677 4.6 4.6 0 0 1-.39 1.735 5.628 5.628 0 0 1-1.111 1.638 16.093 16.093 0 0 1-5.752 3.747 19.273 19.273 0 0 1-7 1.287 18.945 18.945 0 0 1-7.333-1.424 18.981 18.981 0 0 1-6.006-3.919 18.389 18.389 0 0 1-4.056-5.87 17.882 17.882 0 0 1-1.482-7.273.112.112 0 0 0 .039-.078h-.039a18.157 18.157 0 0 1 1.482-7.313 18.5 18.5 0 0 1 4.056-5.928 19.086 19.086 0 0 1 6.006-3.963 18.722 18.722 0 0 1 7.332-1.443 20.088 20.088 0 0 1 7 1.229 15.455 15.455 0 0 1 5.753 3.686 5.371 5.371 0 0 1 1.131 1.619 4.543 4.543 0 0 1 .41 1.755 3.907 3.907 0 0 1-.332 1.677 4.1 4.1 0 0 1-1.053 1.423 5.336 5.336 0 0 1-1.482.936 3.754 3.754 0 0 1-1.365.273 4.023 4.023 0 0 1-2.087-.566 14.77 14.77 0 0 1-1.774-1.229 11.553 11.553 0 0 0-3.237-1.794 10.307 10.307 0 0 0-3.354-.546 9.269 9.269 0 0 0-3.822.819 10.24 10.24 0 0 0-3.2 2.223A11.1 11.1 0 0 0 159.582 34a9.269 9.269 0 0 0-.819 3.822zm37.011 0a9.786 9.786 0 0 0 .8 3.92 10.3 10.3 0 0 0 2.184 3.237 10.366 10.366 0 0 0 3.217 2.183 9.744 9.744 0 0 0 3.939.795 9.882 9.882 0 0 0 3.958-.8 10.071 10.071 0 0 0 3.218-2.184 10.2 10.2 0 0 0 2.149-3.232 10 10 0 0 0 .78-3.92 10.1 10.1 0 0 0-.78-3.958 9.968 9.968 0 0 0-2.145-3.218 10.234 10.234 0 0 0-3.218-2.164 9.882 9.882 0 0 0-3.958-.8 9.786 9.786 0 0 0-3.92.8 10.473 10.473 0 0 0-3.237 2.164 10.071 10.071 0 0 0-2.184 3.218 9.882 9.882 0 0 0-.803 3.959zm-8.463 0a17.786 17.786 0 0 1 1.482-7.235 19.182 19.182 0 0 1 4.017-5.908 18.9 18.9 0 0 1 5.909-4 17.894 17.894 0 0 1 7.2-1.463 18.129 18.129 0 0 1 7.254 1.463 18.61 18.61 0 0 1 5.909 4A18.8 18.8 0 0 1 223 30.63a18.2 18.2 0 0 1 1.443 7.235A18.243 18.243 0 0 1 223 45.08a18.736 18.736 0 0 1-3.958 5.928 18.609 18.609 0 0 1-5.909 4 18.129 18.129 0 0 1-7.258 1.46 17.894 17.894 0 0 1-7.195-1.463 18.9 18.9 0 0 1-5.909-4 19.117 19.117 0 0 1-4.017-5.928 17.828 17.828 0 0 1-1.482-7.212zm55.809 4.6l9.165-20.165a4.354 4.354 0 0 1 1.58-1.892 3.99 3.99 0 0 1 2.243-.683 4.03 4.03 0 0 1 1.755.39 3.929 3.929 0 0 1 1.384.975 4.4 4.4 0 0 1 .858 1.385 4.469 4.469 0 0 1 .292 1.618 3.861 3.861 0 0 1-.39 1.677l-12.987 27.656a4.18 4.18 0 0 1-1.7 1.891 4.982 4.982 0 0 1-2.005.683 4.284 4.284 0 0 1-2.516-.722 4.734 4.734 0 0 1-1.58-1.852l-13.025-27.69a3.861 3.861 0 0 1-.39-1.677 4.469 4.469 0 0 1 .293-1.618 4.4 4.4 0 0 1 .858-1.384 4.023 4.023 0 0 1 1.345-.975 4.462 4.462 0 0 1 .858-.292 3.861 3.861 0 0 1 .858-.1 4.053 4.053 0 0 1 2.281.682 4.354 4.354 0 0 1 1.58 1.891zm28.509-.819a9.374 9.374 0 0 0 1.424 2.633 9.523 9.523 0 0 0 2.126 2.028 9.647 9.647 0 0 0 2.651 1.293 10.191 10.191 0 0 0 3.042.448 9 9 0 0 0 6.318-2.106 6.147 6.147 0 0 1 1.521-.8 4.341 4.341 0 0 1 1.4-.253 3.464 3.464 0 0 1 1.95.566 4.577 4.577 0 0 1 1.4 1.462 4.552 4.552 0 0 1 .578 1.341 3.953 3.953 0 0 1 .078 1.463 4.464 4.464 0 0 1-.468 1.463 4.01 4.01 0 0 1-1.116 1.306 16.023 16.023 0 0 1-1.95 1.5 12.988 12.988 0 0 1-2.515 1.269 18.35 18.35 0 0 1-3.2.878 21.881 21.881 0 0 1-4 .331 18.129 18.129 0 0 1-7.25-1.463 18.842 18.842 0 0 1-5.928-4 19.182 19.182 0 0 1-4.017-5.905 17.786 17.786 0 0 1-1.482-7.235 17.923 17.923 0 0 1 1.482-7.254 18.879 18.879 0 0 1 4.017-5.911 19.009 19.009 0 0 1 5.928-3.978 18.129 18.129 0 0 1 7.254-1.463 18.1 18.1 0 0 1 7.2 1.443 19.384 19.384 0 0 1 5.928 3.92 18.641 18.641 0 0 1 4.056 5.83 17.815 17.815 0 0 1 1.541 7.176 3.858 3.858 0 0 1-1.15 2.906 4.167 4.167 0 0 1-3.023 1.111zm19.266-7.02a8.908 8.908 0 0 0-1.345-2.886 9.016 9.016 0 0 0-2.2-2.184 9.84 9.84 0 0 0-2.886-1.365 12.022 12.022 0 0 0-3.393-.468 11.379 11.379 0 0 0-3.373.487 9.7 9.7 0 0 0-2.847 1.4 9.329 9.329 0 0 0-2.169 2.19 8.968 8.968 0 0 0-1.326 2.827zm22.113 17.2a4.37 4.37 0 0 1-.312 1.638 3.754 3.754 0 0 1-.877 1.326 4.523 4.523 0 0 1-1.307.878 3.87 3.87 0 0 1-1.6.332 4.385 4.385 0 0 1-1.7-.332 4.574 4.574 0 0 1-1.384-.878 4.079 4.079 0 0 1-.936-1.326 3.947 3.947 0 0 1-.351-1.638v-12.6a18.8 18.8 0 0 1 1.541-7.566 19.861 19.861 0 0 1 4.192-6.2 19.861 19.861 0 0 1 6.2-4.193 18.7 18.7 0 0 1 7.527-1.541h.078a4.32 4.32 0 0 1 3.257 1.19 4.17 4.17 0 0 1 1.151 3.022 4.039 4.039 0 0 1-.351 1.677 4.156 4.156 0 0 1-.955 1.346 4.63 4.63 0 0 1-1.4.9 4.385 4.385 0 0 1-1.7.331h-.078a10.66 10.66 0 0 0-4.232.858 10.981 10.981 0 0 0-3.49 2.34 11.606 11.606 0 0 0-2.379 3.471 10.22 10.22 0 0 0-.9 4.251zm19.617-.936a4.486 4.486 0 0 1 .332-1.735 4.22 4.22 0 0 1 .916-1.385 4.554 4.554 0 0 1 1.365-.936 4.039 4.039 0 0 1 1.677-.351 3.888 3.888 0 0 1 3.024 1.269 4.5 4.5 0 0 1 1.151 3.139v10.491a4.5 4.5 0 0 1-1.151 3.14 3.888 3.888 0 0 1-3.022 1.267 4.039 4.039 0 0 1-1.677-.351 4.554 4.554 0 0 1-1.365-.936 4.22 4.22 0 0 1-.916-1.385 4.486 4.486 0 0 1-.332-1.735zM67.854 99.865a9.219 9.219 0 0 0 .76 3.627 11.168 11.168 0 0 0 2.067 3.217 10.772 10.772 0 0 0 3.062 2.32 8.564 8.564 0 0 0 3.783.936 12.039 12.039 0 0 0 3.725-.527 9.971 9.971 0 0 0 3.257-1.891 12.508 12.508 0 0 1 1.736-1.229 4.023 4.023 0 0 1 2.087-.566 3.828 3.828 0 0 1 1.4.293 5.52 5.52 0 0 1 1.521.955 3.733 3.733 0 0 1 .994 1.384 4.093 4.093 0 0 1 .312 1.677 4.6 4.6 0 0 1-.39 1.736 5.628 5.628 0 0 1-1.111 1.638 16.093 16.093 0 0 1-5.753 3.744 19.273 19.273 0 0 1-7 1.287 18.945 18.945 0 0 1-7.332-1.424 18.981 18.981 0 0 1-6.006-3.919 18.389 18.389 0 0 1-4.056-5.869 17.882 17.882 0 0 1-1.482-7.273.112.112 0 0 0 .039-.078h-.039a18.157 18.157 0 0 1 1.482-7.312 18.5 18.5 0 0 1 4.056-5.928 19.086 19.086 0 0 1 6.006-3.958 18.723 18.723 0 0 1 7.332-1.443 20.088 20.088 0 0 1 7 1.229 15.455 15.455 0 0 1 5.753 3.686 5.371 5.371 0 0 1 1.131 1.619 4.543 4.543 0 0 1 .41 1.755 3.907 3.907 0 0 1-.331 1.677 4.1 4.1 0 0 1-1.053 1.423 5.336 5.336 0 0 1-1.482.936 3.754 3.754 0 0 1-1.365.273 4.023 4.023 0 0 1-2.086-.566 14.77 14.77 0 0 1-1.775-1.229 11.553 11.553 0 0 0-3.237-1.794 10.307 10.307 0 0 0-3.354-.546 9.269 9.269 0 0 0-3.822.819 10.24 10.24 0 0 0-3.2 2.223A11.1 11.1 0 0 0 68.712 96a9.269 9.269 0 0 0-.819 3.822zm38.688 13.962a4.37 4.37 0 0 1-.312 1.638 3.754 3.754 0 0 1-.877 1.326 4.523 4.523 0 0 1-1.307.877 3.87 3.87 0 0 1-1.6.332 4.385 4.385 0 0 1-1.7-.332 4.574 4.574 0 0 1-1.384-.877 4.079 4.079 0 0 1-.936-1.326 3.947 3.947 0 0 1-.351-1.638V101.23a18.8 18.8 0 0 1 1.541-7.566 19.861 19.861 0 0 1 4.192-6.2 19.861 19.861 0 0 1 6.2-4.193 18.7 18.7 0 0 1 7.532-1.541h.078a4.32 4.32 0 0 1 3.257 1.19 4.17 4.17 0 0 1 1.151 3.022 4.039 4.039 0 0 1-.351 1.677 4.156 4.156 0 0 1-.955 1.346 4.63 4.63 0 0 1-1.4.9 4.385 4.385 0 0 1-1.7.332h-.078a10.66 10.66 0 0 0-4.232.858 10.981 10.981 0 0 0-3.49 2.34 11.606 11.606 0 0 0-2.379 3.471 10.22 10.22 0 0 0-.9 4.251zm26.286-10.179a9.374 9.374 0 0 0 1.424 2.632 9.523 9.523 0 0 0 2.126 2.028 9.647 9.647 0 0 0 2.651 1.292 10.191 10.191 0 0 0 3.042.448 9 9 0 0 0 6.318-2.106 6.147 6.147 0 0 1 1.521-.8 4.341 4.341 0 0 1 1.4-.254 3.464 3.464 0 0 1 1.95.566 4.577 4.577 0 0 1 1.4 1.462 4.552 4.552 0 0 1 .566 1.346 3.953 3.953 0 0 1 .078 1.463 4.464 4.464 0 0 1-.468 1.462 4.01 4.01 0 0 1-1.111 1.306 16.023 16.023 0 0 1-1.95 1.5 12.988 12.988 0 0 1-2.516 1.267 18.35 18.35 0 0 1-3.2.878 21.882 21.882 0 0 1-4 .331 18.129 18.129 0 0 1-7.254-1.462 18.842 18.842 0 0 1-5.928-4 19.182 19.182 0 0 1-4.005-5.907 17.786 17.786 0 0 1-1.482-7.235 17.923 17.923 0 0 1 1.482-7.254 18.879 18.879 0 0 1 4.017-5.911 19.009 19.009 0 0 1 5.928-3.978 18.129 18.129 0 0 1 7.254-1.463 18.1 18.1 0 0 1 7.2 1.443 19.384 19.384 0 0 1 5.928 3.92 18.641 18.641 0 0 1 4.056 5.83 17.814 17.814 0 0 1 1.541 7.176 3.858 3.858 0 0 1-1.15 2.906 4.167 4.167 0 0 1-3.023 1.111zm19.266-7.02a8.908 8.908 0 0 0-1.346-2.886 9.016 9.016 0 0 0-2.2-2.184 9.841 9.841 0 0 0-2.886-1.365 12.022 12.022 0 0 0-3.393-.468 11.379 11.379 0 0 0-3.374.487 9.7 9.7 0 0 0-2.847 1.4 9.329 9.329 0 0 0-2.167 2.188 8.968 8.968 0 0 0-1.326 2.827zm11.973 3.237a17.786 17.786 0 0 1 1.482-7.235 19.182 19.182 0 0 1 4.017-5.908 18.9 18.9 0 0 1 5.909-4 17.894 17.894 0 0 1 7.2-1.463 18.129 18.129 0 0 1 7.254 1.463 18.61 18.61 0 0 1 5.909 4 18.8 18.8 0 0 1 3.953 5.908 18.2 18.2 0 0 1 1.443 7.235v13.806a4.243 4.243 0 0 1-.334 1.677 4.275 4.275 0 0 1-.917 1.365 4.486 4.486 0 0 1-1.384.936 4.174 4.174 0 0 1-1.699.351 3.834 3.834 0 0 1-2.574-.9 4.308 4.308 0 0 1-1.4-2.262 19.145 19.145 0 0 1-4.816 2.652 15.332 15.332 0 0 1-5.441.975 17.894 17.894 0 0 1-7.2-1.462 18.9 18.9 0 0 1-5.909-4 19.117 19.117 0 0 1-4.017-5.928 17.828 17.828 0 0 1-1.476-7.21zm8.463 0a9.786 9.786 0 0 0 .8 3.92 10.3 10.3 0 0 0 2.184 3.237 10.366 10.366 0 0 0 3.218 2.184 9.744 9.744 0 0 0 3.939.8 9.882 9.882 0 0 0 3.958-.8 10.071 10.071 0 0 0 3.218-2.184 10.2 10.2 0 0 0 2.145-3.237 10 10 0 0 0 .78-3.92 10.1 10.1 0 0 0-.78-3.958 9.968 9.968 0 0 0-2.145-3.218 10.234 10.234 0 0 0-3.218-2.164 9.882 9.882 0 0 0-3.958-.8 9.786 9.786 0 0 0-3.92.8 10.473 10.473 0 0 0-3.237 2.164 10.071 10.071 0 0 0-2.184 3.218 9.882 9.882 0 0 0-.8 3.958zm44.694-18.135H230.8a4.261 4.261 0 0 1 4.29 4.29 4.006 4.006 0 0 1-.331 1.618 4.107 4.107 0 0 1-.917 1.326 4.445 4.445 0 0 1-1.365.9 4.242 4.242 0 0 1-1.677.332h-13.576v9.864a9.512 9.512 0 0 0 .8 3.881 10.134 10.134 0 0 0 9.34 6.065 11.037 11.037 0 0 0 3.471-.527 8.426 8.426 0 0 0 2.965-1.736 6.188 6.188 0 0 1 1.482-1.034 3.78 3.78 0 0 1 4.329.644 3.444 3.444 0 0 1 .994 1.482 4.549 4.549 0 0 1 .234 1.775 5.031 5.031 0 0 1-.449 1.774 4.82 4.82 0 0 1-1.09 1.516 15.61 15.61 0 0 1-5.382 3.413 18.369 18.369 0 0 1-6.552 1.15 18.2 18.2 0 0 1-7.234-1.443 18.964 18.964 0 0 1-5.909-3.939 18.438 18.438 0 0 1-4-5.869 17.99 17.99 0 0 1-1.463-7.234V74.944a4.039 4.039 0 0 1 .351-1.677 4.554 4.554 0 0 1 .937-1.367 4.275 4.275 0 0 1 1.365-.916 4.145 4.145 0 0 1 1.638-.332 4.006 4.006 0 0 1 1.619.332 4.107 4.107 0 0 1 1.33.916 4.445 4.445 0 0 1 .9 1.365 4.242 4.242 0 0 1 .332 1.677zm35.685 21.918a9.374 9.374 0 0 0 1.424 2.632 9.523 9.523 0 0 0 2.125 2.028 9.647 9.647 0 0 0 2.652 1.292 10.191 10.191 0 0 0 3.042.448 9 9 0 0 0 6.318-2.106 6.147 6.147 0 0 1 1.521-.8 4.342 4.342 0 0 1 1.4-.254 3.464 3.464 0 0 1 1.95.566 4.778 4.778 0 0 1 1.969 2.808 3.953 3.953 0 0 1 .078 1.463 4.464 4.464 0 0 1-.468 1.462 4.01 4.01 0 0 1-1.112 1.306 16.023 16.023 0 0 1-1.95 1.5 12.988 12.988 0 0 1-2.516 1.267 18.35 18.35 0 0 1-3.2.878 21.882 21.882 0 0 1-4 .331 18.129 18.129 0 0 1-7.242-1.463 18.842 18.842 0 0 1-5.928-4 19.182 19.182 0 0 1-4.019-5.906 18.446 18.446 0 0 1 0-14.488 18.777 18.777 0 0 1 9.947-9.888 18.691 18.691 0 0 1 14.449-.02 19.384 19.384 0 0 1 5.928 3.92 18.641 18.641 0 0 1 4.056 5.83 17.814 17.814 0 0 1 1.541 7.176 3.858 3.858 0 0 1-1.15 2.906 4.167 4.167 0 0 1-3.024 1.112zm19.266-7.02a8.908 8.908 0 0 0-1.345-2.886 9.016 9.016 0 0 0-2.2-2.184 9.841 9.841 0 0 0-2.886-1.365 12.022 12.022 0 0 0-3.393-.468 11.379 11.379 0 0 0-3.374.487 9.7 9.7 0 0 0-2.847 1.4 9.329 9.329 0 0 0-2.168 2.188 8.968 8.968 0 0 0-1.326 2.827zm28.9 6.669a13.727 13.727 0 0 1 .507-3.822 14.418 14.418 0 0 1 1.365-3.237 13.782 13.782 0 0 1 2.028-2.691 18.854 18.854 0 0 1 2.457-2.145l-.9-.819a12.977 12.977 0 0 1-2.925-3.939 14.447 14.447 0 0 1-.955-2.613 11.416 11.416 0 0 1-.37-2.925 12.849 12.849 0 0 1 1.053-5.187 13.479 13.479 0 0 1 7.117-7.1 12.987 12.987 0 0 1 5.207-1.053A13.266 13.266 0 0 1 329 81.106a12.127 12.127 0 0 1-2.008 6.9A15.677 15.677 0 0 1 321.354 93l7.254 6.513 4.992-5.693a4.682 4.682 0 0 1 1.56-1.15 4.288 4.288 0 0 1 1.794-.41 4.072 4.072 0 0 1 1.365.234 3.218 3.218 0 0 1 1.209.78 4.1 4.1 0 0 1 1.053 1.306 4.04 4.04 0 0 1 .449 1.56 4.127 4.127 0 0 1-.215 1.618 4.254 4.254 0 0 1-.858 1.482l-5.148 5.811 6.435 5.733a6.172 6.172 0 0 1 1.306 1.5 4.65 4.65 0 0 1 .585 1.463 2.846 2.846 0 0 1-.059 1.365 3.571 3.571 0 0 1-.624 1.209 5.356 5.356 0 0 1-1.58 1.346 3.634 3.634 0 0 1-1.735.449 3.9 3.9 0 0 1-2.537-1.016l-7.02-6.162-2.34 2.613a16.162 16.162 0 0 1-5.031 3.588 14.641 14.641 0 0 1-11.915.117 15.376 15.376 0 0 1-8.034-8.092 14.623 14.623 0 0 1-1.186-5.864zm14.781 6.9a6.9 6.9 0 0 0 2.867-.644 9.725 9.725 0 0 0 2.477-1.579l2.184-2.5-10.3-9.087a9.013 9.013 0 0 0-3.081 2.73 6.43 6.43 0 0 0-1.131 3.744 7.2 7.2 0 0 0 .546 2.769 7.789 7.789 0 0 0 1.482 2.34 7.1 7.1 0 0 0 2.223 1.618 6.343 6.343 0 0 0 2.732.612zm-.507-22.581a8.959 8.959 0 0 0 2.243-1.033 9.546 9.546 0 0 0 1.872-1.541 7.813 7.813 0 0 0 1.287-1.833 4.254 4.254 0 0 0 .488-1.911 5.187 5.187 0 0 0-.41-2.028 5.654 5.654 0 0 0-1.112-1.716 5.379 5.379 0 0 0-1.677-1.189 4.978 4.978 0 0 0-2.106-.449 4.908 4.908 0 0 0-1.989.41 5.293 5.293 0 0 0-1.638 1.111 4.974 4.974 0 0 0-1.092 1.657 5.264 5.264 0 0 0-.39 2.009 4.1 4.1 0 0 0 .273 1.463 7.438 7.438 0 0 0 .683 1.365 9.152 9.152 0 0 0 .878 1.17 11.2 11.2 0 0 0 .858.877zM55.667 175.863a4 4 0 0 1-1.189 2.945A4 4 0 0 1 51.532 180a4.145 4.145 0 0 1-1.638-.331 4.917 4.917 0 0 1-1.384-.878 4 4 0 0 1-.956-1.307 3.816 3.816 0 0 1-.351-1.618V157.5a13.456 13.456 0 0 1 1.15-5.519 14.344 14.344 0 0 1 3.139-4.524 15.163 15.163 0 0 1 4.622-3.062 13.931 13.931 0 0 1 5.557-1.131 14.085 14.085 0 0 1 5.714 1.17 15.214 15.214 0 0 1 4.7 3.2 15.086 15.086 0 0 1 4.738-3.2 14.36 14.36 0 0 1 5.753-1.17 14.032 14.032 0 0 1 5.538 1.092 14.476 14.476 0 0 1 4.524 3 14.921 14.921 0 0 1 3.12 4.446 14.176 14.176 0 0 1 1.287 5.421.9.9 0 0 0 .02.175.9.9 0 0 1 .019.175v18.291a4.006 4.006 0 0 1-.331 1.618 4.034 4.034 0 0 1-.9 1.307 4.523 4.523 0 0 1-1.307.878 3.87 3.87 0 0 1-1.6.331 4.287 4.287 0 0 1-1.657-.331 4.574 4.574 0 0 1-1.384-.878 4.137 4.137 0 0 1-.936-1.307 3.816 3.816 0 0 1-.351-1.618v-18.406a5.649 5.649 0 0 0-.546-2.3 5.843 5.843 0 0 0-1.345-1.813 6.3 6.3 0 0 0-1.911-1.189 6.191 6.191 0 0 0-2.321-.429 6.161 6.161 0 0 0-2.379.468 6.329 6.329 0 0 0-1.969 1.268 5.979 5.979 0 0 0-1.326 1.872 5.541 5.541 0 0 0-.488 2.321v18.213a4 4 0 0 1-1.189 2.945A4 4 0 0 1 72.2 180a4.145 4.145 0 0 1-1.638-.331 4.917 4.917 0 0 1-1.384-.878 4 4 0 0 1-.956-1.307 3.816 3.816 0 0 1-.351-1.618V157.5a6 6 0 0 0-.527-2.321 5.672 5.672 0 0 0-1.306-1.833 6 6 0 0 0-1.911-1.189 6.342 6.342 0 0 0-2.34-.429 6.245 6.245 0 0 0-2.359.449 6.107 6.107 0 0 0-1.95 1.248 6.047 6.047 0 0 0-1.326 1.853 5.318 5.318 0 0 0-.488 2.262zm54.912-14a9.786 9.786 0 0 0 .8 3.92 10.3 10.3 0 0 0 2.184 3.237 10.366 10.366 0 0 0 3.218 2.184 9.744 9.744 0 0 0 3.939.8 9.882 9.882 0 0 0 3.958-.8 10.071 10.071 0 0 0 3.218-2.184 10.2 10.2 0 0 0 2.145-3.237 10 10 0 0 0 .78-3.92 10.1 10.1 0 0 0-.78-3.958 9.968 9.968 0 0 0-2.145-3.218 10.234 10.234 0 0 0-3.218-2.164 9.882 9.882 0 0 0-3.958-.8 9.786 9.786 0 0 0-3.92.8 10.473 10.473 0 0 0-3.237 2.164 10.071 10.071 0 0 0-2.184 3.218 9.882 9.882 0 0 0-.801 3.96zm-8.463 0a17.786 17.786 0 0 1 1.484-7.233 19.182 19.182 0 0 1 4.017-5.908 18.9 18.9 0 0 1 5.909-4 17.894 17.894 0 0 1 7.2-1.463 18.129 18.129 0 0 1 7.254 1.463 18.609 18.609 0 0 1 5.909 4 18.8 18.8 0 0 1 3.958 5.908 18.2 18.2 0 0 1 1.443 7.235 18.243 18.243 0 0 1-1.443 7.215 18.736 18.736 0 0 1-3.958 5.928 18.61 18.61 0 0 1-5.909 4 18.129 18.129 0 0 1-7.254 1.463 17.894 17.894 0 0 1-7.2-1.463 18.9 18.9 0 0 1-5.909-4 19.117 19.117 0 0 1-4.017-5.928 17.828 17.828 0 0 1-1.485-7.215zm77.259 14.04a4.1 4.1 0 0 1-.331 1.658 4.448 4.448 0 0 1-.877 1.326 3.793 3.793 0 0 1-1.307.878 4.222 4.222 0 0 1-1.618.312 4.52 4.52 0 0 1-1.657-.312 4.124 4.124 0 0 1-1.385-.878 4.376 4.376 0 0 1-.936-1.326 3.907 3.907 0 0 1-.351-1.658V161.4a2.079 2.079 0 0 1 .039-.468 10.3 10.3 0 0 0-.78-3.588 9.342 9.342 0 0 0-1.911-2.925 9 9 0 0 0-2.827-1.969 8.666 8.666 0 0 0-3.569-.722 9.178 9.178 0 0 0-3.666.722 8.337 8.337 0 0 0-2.867 2.008 9.554 9.554 0 0 0-1.872 3.022 10.085 10.085 0 0 0-.683 3.724v14.7a4.325 4.325 0 0 1-.312 1.658 4 4 0 0 1-.877 1.326 4.056 4.056 0 0 1-1.306.878 4.18 4.18 0 0 1-1.638.312 4.37 4.37 0 0 1-1.644-.312 4.4 4.4 0 0 1-1.384-.878 4.218 4.218 0 0 1-.956-1.326 3.907 3.907 0 0 1-.351-1.658V161.2a18.15 18.15 0 0 1 1.346-7 17.957 17.957 0 0 1 3.705-5.694 17.305 17.305 0 0 1 5.577-3.841 17.118 17.118 0 0 1 6.923-1.4 17.077 17.077 0 0 1 6.942 1.4 17.139 17.139 0 0 1 5.538 3.841 18.13 18.13 0 0 1 3.689 5.694 18.15 18.15 0 0 1 1.345 7zm14.469-10.257a9.374 9.374 0 0 0 1.424 2.633 9.523 9.523 0 0 0 2.125 2.028 9.646 9.646 0 0 0 2.651 1.293 10.191 10.191 0 0 0 3.042.449 9 9 0 0 0 6.314-2.111 6.147 6.147 0 0 1 1.521-.8 4.341 4.341 0 0 1 1.4-.253 3.464 3.464 0 0 1 1.95.565 4.778 4.778 0 0 1 1.969 2.808 3.953 3.953 0 0 1 .078 1.463 4.464 4.464 0 0 1-.468 1.463 4.01 4.01 0 0 1-1.111 1.306 16.024 16.024 0 0 1-1.95 1.5 12.989 12.989 0 0 1-2.515 1.268 18.35 18.35 0 0 1-3.2.877 21.881 21.881 0 0 1-4 .332 18.129 18.129 0 0 1-7.254-1.463 18.842 18.842 0 0 1-5.928-4 19.182 19.182 0 0 1-4.017-5.909 17.786 17.786 0 0 1-1.482-7.235 17.923 17.923 0 0 1 1.482-7.254 18.879 18.879 0 0 1 4.025-5.906 19.009 19.009 0 0 1 5.928-3.978 18.129 18.129 0 0 1 7.254-1.463 18.1 18.1 0 0 1 7.2 1.443 19.384 19.384 0 0 1 5.928 3.919 18.641 18.641 0 0 1 4.056 5.831 17.814 17.814 0 0 1 1.541 7.176 3.858 3.858 0 0 1-1.15 2.906 4.167 4.167 0 0 1-3.023 1.111zm19.266-7.02a8.908 8.908 0 0 0-1.346-2.886 9.016 9.016 0 0 0-2.2-2.184 9.84 9.84 0 0 0-2.886-1.365 12.022 12.022 0 0 0-3.393-.468 11.379 11.379 0 0 0-3.373.487 9.7 9.7 0 0 0-2.847 1.4 9.329 9.329 0 0 0-2.165 2.19 8.968 8.968 0 0 0-1.326 2.827zm22.269-14.9h13.571a4.261 4.261 0 0 1 4.29 4.29 4.006 4.006 0 0 1-.331 1.618 4.107 4.107 0 0 1-.917 1.326 4.445 4.445 0 0 1-1.365.9 4.242 4.242 0 0 1-1.677.331h-13.572v9.867a9.512 9.512 0 0 0 .8 3.881 10.134 10.134 0 0 0 9.34 6.061 11.038 11.038 0 0 0 3.471-.526 8.426 8.426 0 0 0 2.964-1.736 6.189 6.189 0 0 1 1.482-1.033 3.78 3.78 0 0 1 4.329.643 3.444 3.444 0 0 1 .994 1.482 4.549 4.549 0 0 1 .234 1.774 5.031 5.031 0 0 1-.449 1.775 4.82 4.82 0 0 1-1.092 1.521 15.61 15.61 0 0 1-5.382 3.412 19.032 19.032 0 0 1-13.786-.292 18.964 18.964 0 0 1-5.909-3.939 18.438 18.438 0 0 1-4-5.869 17.99 17.99 0 0 1-1.463-7.234v-25.034a4.039 4.039 0 0 1 .351-1.677 4.554 4.554 0 0 1 .938-1.367 4.275 4.275 0 0 1 1.365-.916 4.145 4.145 0 0 1 1.638-.332 4.006 4.006 0 0 1 1.618.332 4.107 4.107 0 0 1 1.326.916 4.445 4.445 0 0 1 .9 1.365 4.242 4.242 0 0 1 .332 1.677zm28.743-8.619a4.574 4.574 0 0 1 .371-1.833 4.62 4.62 0 0 1 2.475-2.474 4.529 4.529 0 0 1 3.588 0 4.958 4.958 0 0 1 1.5.994 4.606 4.606 0 0 1 1.384 3.315 4.342 4.342 0 0 1-.37 1.774 4.612 4.612 0 0 1-1.014 1.462 4.958 4.958 0 0 1-1.5.995 4.529 4.529 0 0 1-3.588 0 4.714 4.714 0 0 1-1.482-.995 4.777 4.777 0 0 1-.994-1.462 4.342 4.342 0 0 1-.371-1.772zm8.892 40.677a4.145 4.145 0 0 1-.331 1.638 4.207 4.207 0 0 1-.9 1.345 4.266 4.266 0 0 1-1.326.9 4.1 4.1 0 0 1-1.657.333 4.145 4.145 0 0 1-1.638-.331 4.445 4.445 0 0 1-1.365-.9 4.053 4.053 0 0 1-.916-1.345 4.145 4.145 0 0 1-.332-1.638v-27.844a3.816 3.816 0 0 1 .351-1.618 4.632 4.632 0 0 1 .936-1.346 4.261 4.261 0 0 1 3.042-1.248 3.966 3.966 0 0 1 1.638.332 4.169 4.169 0 0 1 1.307.916 4.226 4.226 0 0 1 1.189 2.964zm37.751-32.054a4.1 4.1 0 0 1 1.58.332 4.574 4.574 0 0 1 1.384.877 3.918 3.918 0 0 1 .975 1.4 4.567 4.567 0 0 1 .331 1.6 4.1 4.1 0 0 1-1.189 2.964l-20.475 20.634h18.174a4.039 4.039 0 0 1 1.677.351 4.308 4.308 0 0 1 1.346.936 4.513 4.513 0 0 1 .9 1.346 4.006 4.006 0 0 1 .331 1.618 4.145 4.145 0 0 1-.331 1.638 4.213 4.213 0 0 1-3.92 2.574h-27.693a4.1 4.1 0 0 1-1.989-.488 4 4 0 0 1-1.443-1.306 4.372 4.372 0 0 1-.9-3 3.62 3.62 0 0 1 1.092-2.3l20.436-20.709h-16.884a3.947 3.947 0 0 1-1.638-.351 4.079 4.079 0 0 1-1.326-.936 4.574 4.574 0 0 1-.878-1.384 4.287 4.287 0 0 1-.331-1.658 4.006 4.006 0 0 1 .331-1.618 4.2 4.2 0 0 1 .878-1.307 4.263 4.263 0 0 1 2.964-1.209zm17.823 21.918a9.374 9.374 0 0 0 1.424 2.633 9.523 9.523 0 0 0 2.126 2.028 9.647 9.647 0 0 0 2.652 1.287 10.191 10.191 0 0 0 3.042.449 9 9 0 0 0 6.318-2.106 6.147 6.147 0 0 1 1.521-.8 4.341 4.341 0 0 1 1.4-.253 3.463 3.463 0 0 1 1.95.565 4.778 4.778 0 0 1 1.97 2.808 3.954 3.954 0 0 1 .078 1.463 4.464 4.464 0 0 1-.468 1.463 4.009 4.009 0 0 1-1.111 1.306 16.024 16.024 0 0 1-1.95 1.5 12.989 12.989 0 0 1-2.516 1.268 18.35 18.35 0 0 1-3.2.877 21.881 21.881 0 0 1-4 .332 18.129 18.129 0 0 1-7.254-1.463 18.842 18.842 0 0 1-5.928-4 19.182 19.182 0 0 1-4.017-5.909 18.447 18.447 0 0 1 0-14.489 18.777 18.777 0 0 1 9.945-9.886 18.691 18.691 0 0 1 14.449-.02 19.383 19.383 0 0 1 5.928 3.919 18.641 18.641 0 0 1 4.056 5.831 17.815 17.815 0 0 1 1.54 7.176 3.858 3.858 0 0 1-1.15 2.906 4.167 4.167 0 0 1-3.023 1.111zm19.266-7.02a8.907 8.907 0 0 0-1.346-2.886 9.016 9.016 0 0 0-2.2-2.184 9.841 9.841 0 0 0-2.886-1.365 12.022 12.022 0 0 0-3.393-.468 11.379 11.379 0 0 0-3.373.487 9.7 9.7 0 0 0-2.847 1.4 9.329 9.329 0 0 0-2.165 2.184 8.968 8.968 0 0 0-1.326 2.827z" fill="#fff"/>
  <path fill="none" opacity=".55" d="M0 0h402v201H0z"/>
</svg>
