<svg xmlns="http://www.w3.org/2000/svg" xmlns:xlink="http://www.w3.org/1999/xlink" viewBox="0 0 333.71 454.89"><defs><style>.cls-1{fill:none;}.cls-2{fill:url(#Degradado_sin_nombre_7);}.cls-3{clip-path:url(#clip-path);}.cls-11,.cls-4{opacity:0.74;}.cls-4{fill:url(#Degradado_sin_nombre_7-2);}.cls-5{fill:url(#Degradado_sin_nombre_7-3);}.cls-6{opacity:0.62;}.cls-7{fill:url(#Degradado_sin_nombre_32);}.cls-8{fill:url(#Degradado_sin_nombre_31);}.cls-9{fill:url(#Degradado_sin_nombre_7-4);}.cls-10{opacity:0.56;fill:url(#Degradado_sin_nombre_7-5);}.cls-11{fill:url(#Degradado_sin_nombre_7-6);}.cls-12{opacity:0.91;fill:url(#Degradado_sin_nombre_7-7);}</style><linearGradient id="Degradado_sin_nombre_7" x1="254.02" y1="500.31" x2="573.45" y2="500.31" gradientTransform="matrix(1, 0, 0, -1, -248.88, 751.6)" gradientUnits="userSpaceOnUse"><stop offset="0" stop-color="#fb0e66"/><stop offset="1" stop-color="#1cb2e0"/></linearGradient><clipPath id="clip-path"><rect class="cls-1" x="0.39" y="144.59" width="328.91" height="222.87" transform="translate(-91.5 420.38) rotate(-89.89)"/></clipPath><linearGradient id="Degradado_sin_nombre_7-2" x1="206.34" y1="475.18" x2="4.03" y2="124.76" gradientTransform="matrix(-1, 0, 0, 1, 327.67, 0.31)" xlink:href="#Degradado_sin_nombre_7"/><linearGradient id="Degradado_sin_nombre_7-3" x1="150.35" y1="433.22" x2="150.35" y2="126.16" gradientTransform="matrix(-1, 0, 0, 1, 327.67, 0.31)" xlink:href="#Degradado_sin_nombre_7"/><linearGradient id="Degradado_sin_nombre_32" x1="401.9" y1="523.11" x2="664.39" y2="523.11" gradientTransform="matrix(0, -1, -1, 0, 664.38, 665.97)" gradientUnits="userSpaceOnUse"><stop offset="0" stop-color="#fb0e66"/><stop offset="0.09" stop-color="#dc2577"/><stop offset="0.27" stop-color="#a24f97"/><stop offset="0.44" stop-color="#7273b1"/><stop offset="0.61" stop-color="#4d8ec5"/><stop offset="0.76" stop-color="#32a2d4"/><stop offset="0.9" stop-color="#22aedd"/><stop offset="1" stop-color="#1cb2e0"/></linearGradient><linearGradient id="Degradado_sin_nombre_31" x1="402.22" y1="527.01" x2="664.71" y2="527.01" gradientTransform="matrix(0, -1, -1, 0, 664.38, 665.97)" gradientUnits="userSpaceOnUse"><stop offset="0" stop-color="#fb0e66"/><stop offset="0.01" stop-color="#f81068"/><stop offset="0.11" stop-color="#c53684"/><stop offset="0.22" stop-color="#98579c"/><stop offset="0.33" stop-color="#7273b1"/><stop offset="0.45" stop-color="#528ac2"/><stop offset="0.57" stop-color="#3a9ccf"/><stop offset="0.69" stop-color="#29a8d9"/><stop offset="0.83" stop-color="#1fb0de"/><stop offset="1" stop-color="#1cb2e0"/></linearGradient><linearGradient id="Degradado_sin_nombre_7-4" x1="234.45" y1="448.95" x2="490.46" y2="448.95" gradientTransform="matrix(0, -1, -1, 0, 664.38, 665.97)" xlink:href="#Degradado_sin_nombre_7"/><linearGradient id="Degradado_sin_nombre_7-5" x1="238.69" y1="457.95" x2="494.7" y2="457.95" gradientTransform="matrix(0, -1, -1, 0, 664.38, 665.97)" xlink:href="#Degradado_sin_nombre_7"/><linearGradient id="Degradado_sin_nombre_7-6" x1="220.69" y1="450.95" x2="476.7" y2="450.95" gradientTransform="matrix(0, -1, -1, 0, 664.38, 665.97)" xlink:href="#Degradado_sin_nombre_7"/><linearGradient id="Degradado_sin_nombre_7-7" x1="210.4" y1="443.95" x2="466.41" y2="443.95" gradientTransform="matrix(0, -1, -1, 0, 664.38, 665.97)" xlink:href="#Degradado_sin_nombre_7"/></defs><title>Asset 1</title><g id="Layer_2" data-name="Layer 2"><g id="OBJECTS"><rect class="cls-2" x="5.14" y="139.85" width="319.42" height="222.87" transform="translate(-86.74 415.66) rotate(-89.89)"/><g class="cls-3"><path class="cls-4" d="M288.94,105.08S209.75,219.13,123.9,240C9.05,268-1.8,460,77,435c35.57-11.28,256.72-27.3,256.72-27.3Z"/><path class="cls-5" d="M277.19,126.38S204.07,231.67,124.82,251C18.77,276.75,8.76,454,81.51,431c32.83-10.41,237-25.2,237-25.2Z"/><g class="cls-6"><path class="cls-7" d="M3.9,262.81S119.26,233.1,112.54,141.89s139.73-92.5,168-97.51L280.67.85,22,.35,4.4.32Z"/></g><path class="cls-8" d="M0,262.49s115.37-29.71,108.65-120.92,139.73-92.5,168-97.51L276.77.53,18.11,0,.5,0Z"/><path class="cls-9" d="M304,430.84l-172.57-.33S86.09,374,189.81,314.76,281,231.41,310.73,174.84Z"/><path class="cls-10" d="M295,426.58l-172.58-.33S77.1,369.75,180.82,310.5s91.23-83.35,120.91-139.92Z"/><path class="cls-11" d="M302,444.59l-172.58-.33s-45.34-56.49,58.39-115.75S279,245.16,308.7,188.59Z"/><path class="cls-12" d="M309,454.89l-172.58-.33S91,398.07,194.77,338.81,286,255.46,315.68,198.89Z"/></g></g></g></svg>