<svg xmlns="http://www.w3.org/2000/svg" xmlns:xlink="http://www.w3.org/1999/xlink" width="218.543" height="229.994" viewBox="0 0 218.543 229.994"><defs><clipPath id="a"><path d="M78.215,0A78.215,78.215,0,1,1,0,78.215,78.215,78.215,0,0,1,78.215,0Z" transform="translate(532.097 3748.362)" fill="#fff"/></clipPath><clipPath id="b"><rect width="161" height="144" transform="translate(326 3712)" fill="#fff" stroke="#707070" stroke-width="1"/></clipPath></defs><g transform="translate(-268.457 -3712)"><ellipse cx="87.556" cy="89.339" rx="87.556" ry="89.339" transform="translate(268.457 3748.326)" fill="#ffffdc"/><ellipse cx="99.22" cy="95.85" rx="99.22" ry="95.85" transform="translate(270.838 3750.293)" fill="#fff"/><path d="M96.345,0c53.21,0,96.345,42.109,96.345,94.054s-43.135,94.054-96.345,94.054S0,146,0,94.054,43.135,0,96.345,0Z" transform="translate(273.713 3750.293)" fill="#ffecb3" opacity="0.3"/><ellipse cx="87.422" cy="89.203" rx="87.422" ry="89.203" transform="translate(283.661 3750.256)" fill="#ffd54f" opacity="0.3"/><ellipse cx="82.85" cy="79.012" rx="82.85" ry="79.012" transform="translate(287.742 3763.072)" fill="#ffca28" opacity="0.33"/><ellipse cx="82.85" cy="79.012" rx="82.85" ry="79.012" transform="translate(277.674 3765.488)" fill="#ff8f00" opacity="0.33"/><ellipse cx="82.85" cy="79.012" rx="82.85" ry="79.012" transform="translate(292.977 3773.945)" fill="#ff6f00" opacity="0.33"/><ellipse cx="78.215" cy="78.215" rx="78.215" ry="78.215" transform="translate(292.097 3770.362)" fill="#fff"/><g transform="translate(-240 22)"><g clip-path="url(#a)"><g transform="translate(-698.763 176.353) rotate(-11)"><g transform="matrix(0.809, 0.588, -0.588, 0.809, 617.282, 3717.714)"><path d="M0,0H121.715V163.014H0Z" transform="translate(-14.709 40.076) rotate(-12.228)" fill="#acabb1"/><rect width="113.614" height="148.014" transform="translate(-3.695 30.056) rotate(-6.228)" fill="#ccf7f9"/><g transform="translate(0 20.829)"><path d="M56.807,28.439c-9.4,0-17.042-6.043-17.042-13.471V8.981H51.127v5.987c0,2.476,2.548,4.49,5.681,4.49V0H0V117H56.807Zm0,0" transform="translate(0 0)" fill="#ffe98f"/><path d="M56.807,85.366V0H17.042V14.968C17.042,22.4,9.4,28.439,0,28.439V117H56.807Zm0,0" transform="translate(56.807 0)" fill="#ffda44"/></g><path d="M5.681,18.936V0H0V24.616a5.687,5.687,0,0,0,5.681-5.681Zm0,0" transform="translate(56.807 20.829)" fill="#ffda44"/><path d="M11.361,17.042a5.681,5.681,0,1,1,11.361,0V39.765a5.681,5.681,0,1,1-11.361,0V32.191H0v7.574a17.042,17.042,0,0,0,34.084,0V17.042A17.042,17.042,0,1,0,0,17.042v3.787H11.361Zm0,0" transform="translate(39.765 0)" fill="#565659"/></g></g></g></g><g clip-path="url(#b)"><g transform="translate(-938.763 198.353) rotate(-11)"><g transform="matrix(0.809, 0.588, -0.588, 0.809, 617.282, 3717.714)"><rect width="121.614" height="148.014" transform="translate(-15.628 31.918) rotate(-11.228)" fill="#acabb1"/><g transform="translate(0 20.829)"><path d="M56.807,35.978A17.061,17.061,0,0,1,39.765,18.936V11.361H51.127v7.574a5.687,5.687,0,0,0,5.681,5.681V0H0V148.015H56.807Zm0,0" transform="translate(0 0)" fill="#ffe98f"/><path d="M56.807,107.995V0H17.042V18.936A17.061,17.061,0,0,1,0,35.978V148.015H56.807Zm0,0" transform="translate(56.807 0)" fill="#ffda44"/></g><path d="M5.681,18.936V0H0V24.616a5.687,5.687,0,0,0,5.681-5.681Zm0,0" transform="translate(56.807 20.829)" fill="#ffda44"/><path d="M11.361,17.042a5.681,5.681,0,1,1,11.361,0V39.765a5.681,5.681,0,1,1-11.361,0V32.191H0v7.574a17.042,17.042,0,0,0,34.084,0V17.042A17.042,17.042,0,1,0,0,17.042v3.787H11.361Zm0,0" transform="translate(39.765 0)" fill="#565659"/></g></g></g></g></svg>