<svg xmlns="http://www.w3.org/2000/svg" xmlns:xlink="http://www.w3.org/1999/xlink" width="196.582" height="203.449" viewBox="0 0 196.582 203.449"><defs><clipPath id="a"><ellipse cx="77.61" cy="74.744" rx="77.61" ry="74.744" transform="translate(0 0)" fill="#fff" stroke="#707070" stroke-width="1"/></clipPath><clipPath id="b"><rect width="81.713" height="114.135" transform="translate(0 0)" fill="#fff" stroke="#707070" stroke-width="1"/></clipPath></defs><g transform="translate(-874.889 -3742.854)"><ellipse cx="98.291" cy="94.953" rx="98.291" ry="94.953" transform="translate(874.889 3756.397)" fill="#fff"/><path d="M95.443,0c52.712,0,95.443,41.715,95.443,93.173s-42.731,93.173-95.443,93.173S0,144.631,0,93.173,42.731,0,95.443,0Z" transform="translate(877.736 3756.397)" fill="#ff0" opacity="0.3"/><ellipse cx="86.604" cy="88.368" rx="86.604" ry="88.368" transform="translate(887.591 3756.36)" fill="#ffffdc" opacity="0.3"/><ellipse cx="82.075" cy="78.272" rx="82.075" ry="78.272" transform="translate(891.634 3769.056)" fill="#ffd180" opacity="0.33"/><ellipse cx="82.075" cy="78.272" rx="82.075" ry="78.272" transform="translate(881.66 3771.45)" fill="#ffca28" opacity="0.33"/><path d="M82.075,0c45.329,0,82.075,35.044,82.075,78.272S127.4,156.544,82.075,156.544,0,121.5,0,78.272,36.746,0,82.075,0Z" transform="translate(889.807 3776.591)" fill="#ffc500" opacity="0.33"/><path d="M77.364,0a77.364,77.364,0,0,1,77.364,77.364c0,16.877-10.319,29.08-19.575,41.912-13.966,19.362-31.939,35.453-57.789,35.453-26.106,0-46.876-13.494-60.922-33.35C7.558,108.819,0,93.985,0,77.364A77.364,77.364,0,0,1,77.364,0Z" transform="translate(896.409 3776.538)" fill="#fff"/><g transform="translate(287.114 -414.678)"><g transform="translate(606.487 4196.757)" clip-path="url(#a)"><rect width="214" height="90" transform="matrix(0.996, 0.087, -0.087, 0.996, -12.925, 33.738)" fill="#ccf7f9"/><g transform="matrix(0.985, -0.174, 0.174, 0.985, -3.116, 13.053)"><path d="M0,0C.121,18.443,15.706,33.491,34.813,33.612l4.324.027L38.919.246ZM0,0" transform="translate(0.001 61.819)" fill="#ff9811"/><path d="M38.7.028,34.377,0C15.27-.12-.12,14.732,0,33.175l38.919.246Zm0,0" transform="translate(0 28.644)" fill="#ffad41"/><path d="M5.041,58.467l34.261.217L34.595.219,0,0Zm0,0" transform="translate(39.138 95.458)" fill="#ff5023"/><path d="M21.783,24.822C21.7,12.414,12.283,2.064,0,0L.323,49.37c12.257-1.908,21.541-12.139,21.46-24.548Zm0,0" transform="translate(138.218 38.008)" fill="#ff5023"/><path d="M0,0,.219,33.393l47.568.3L86.9,63.159,86.487.547ZM0,0" transform="translate(38.92 62.065)" fill="#ffda44"/><path d="M86.705,62.612,86.3,0,47.568,28.973,0,28.672.219,62.065Zm0,0" transform="translate(38.701 0)" fill="#ffe98f"/><path d="M0,0,12.973.082l.82,125.224L.82,125.224Z" transform="translate(124.996 0)" fill="#ff9811"/></g></g><g transform="translate(702.644 4157.532)" clip-path="url(#b)"><g transform="matrix(0.985, -0.174, 0.174, 0.985, -99.274, 52.278)"><path d="M0,0C.121,18.443,15.706,33.491,34.813,33.612l4.324.027L38.919.246ZM0,0" transform="translate(0.001 61.819)" fill="#ff9811"/><path d="M38.7.028,34.377,0C15.27-.12-.12,14.732,0,33.175l38.919.246Zm0,0" transform="translate(0 28.644)" fill="#ffad41"/><path d="M5.041,58.467l34.261.217L34.595.219,0,0Zm0,0" transform="translate(39.138 95.458)" fill="#ff5023"/><path d="M21.783,24.822C21.7,12.414,12.283,2.064,0,0L.323,49.37c12.257-1.908,21.541-12.139,21.46-24.548Zm0,0" transform="translate(138.218 38.008)" fill="#ff5023"/><path d="M0,0,.219,33.393l47.568.3L86.9,63.159,86.487.547ZM0,0" transform="translate(38.92 62.065)" fill="#ffda44"/><path d="M86.705,62.612,86.3,0,47.568,28.973,0,28.672.219,62.065Zm0,0" transform="translate(38.701 0)" fill="#ffe98f"/><path d="M0,0,12.973.082l.82,125.224L.82,125.224Z" transform="translate(124.996 0)" fill="#ff9811"/></g></g></g></g></svg>