<svg xmlns="http://www.w3.org/2000/svg" xmlns:xlink="http://www.w3.org/1999/xlink" width="238.65" height="195.783" viewBox="0 0 238.65 195.783"><defs><clipPath id="a"><ellipse cx="83.303" cy="83.303" rx="83.303" ry="83.303" transform="translate(2.259 27.168) rotate(-8)" fill="#fff" stroke="#707070" stroke-width="1"/></clipPath><clipPath id="b"><rect width="43.542" height="55.638" transform="matrix(0.96, 0.279, -0.279, 0.96, 15.519, 0)" fill="none"/></clipPath><clipPath id="d"><rect width="238.65" height="90.523" fill="#fff" stroke="#707070" stroke-width="1"/></clipPath></defs><g transform="translate(-1435 -3752.95)"><ellipse cx="93.56" cy="90.783" rx="93.56" ry="90.783" transform="translate(1462.23 3760.669)" fill="#fff"/><path d="M90.849,0C141.023,0,181.7,39.883,181.7,89.081s-40.674,89.081-90.849,89.081S0,138.28,0,89.081,40.674,0,90.849,0Z" transform="translate(1464.94 3760.669)" fill="#ff5722" opacity="0.3"/><ellipse cx="82.435" cy="84.487" rx="82.435" ry="84.487" transform="translate(1474.321 3760.634)" fill="#ff9100" opacity="0.67"/><ellipse cx="78.124" cy="74.835" rx="78.124" ry="74.835" transform="translate(1478.169 3772.772)" fill="#fb8c00" opacity="0.33"/><ellipse cx="78.124" cy="74.835" rx="78.124" ry="74.835" transform="translate(1468.675 3775.061)" fill="#f57c00" opacity="0.33"/><ellipse cx="78.124" cy="74.835" rx="78.124" ry="74.835" transform="translate(1483.105 3783.071)" fill="#ffff53" opacity="0.33"/><path d="M99.834,0c55.137,0,99.834,43.828,99.834,97.891s-44.7,97.891-99.834,97.891S0,151.955,0,97.891,44.7,0,99.834,0Z" transform="translate(1456.157 3752.95)" fill="#ff0" opacity="0.3"/><ellipse cx="78.73" cy="79.08" rx="78.73" ry="79.08" transform="translate(1477.115 3773.88)" fill="#fff"/><g transform="translate(791 3082.536)"><g transform="translate(668.019 667.414)" clip-path="url(#a)"><g transform="translate(9.498 26.633)"><g transform="translate(0 24.674) rotate(-8)"><rect width="58.364" height="14.591" transform="translate(40.126 103.05)" fill="#818085"/><path d="M10.943,0H0V10.943H80.251V0Zm0,0" transform="translate(29.182 117.641)" fill="#acabb1"/><path d="M10.943,87.547v-76.6H69.308V0H0V98.49H69.308V87.547Zm0,0" transform="translate(0 4.56)" fill="#dedde0"/><path d="M0,0V10.943H58.364v76.6H0V98.49H69.308V0ZM0,0" transform="translate(69.308 4.56)" fill="#acabb1"/><rect width="116.729" height="10.943" transform="translate(10.943 15.503)" fill="#fff"/><path d="M85.723,0H0V10.943H116.729V0Zm0,0" transform="translate(10.943 81.163)" fill="#fff"/><path d="M0,0H10.943" transform="translate(134.284 0)" fill="#ffda44"/><rect width="116.729" height="43.457" transform="translate(10.943 48.462)" fill="#ccf7f9"/><g transform="translate(15.666 26.011)"><path d="M32.32,40.447,9.451,0,0,16.717l10.32,23.73Zm0,0" transform="translate(66.777 26.964)" fill="#aa984d"/><path d="M11.068,53.929h22.22L22.968,30.2,9.833,0,0,22.608Zm0,0" transform="translate(43.809 13.482)" fill="#ffe98f"/><path d="M46.408,67.411h1.235L36.575,36.091,23.821,0,0,67.411Zm0,0" transform="translate(7.234 0)" fill="#ff9811"/><rect width="11.293" height="6.741" transform="translate(87.521 20.223)" fill="#acabb1"/><rect width="11.293" height="6.741" transform="translate(76.228 20.223)" fill="#cdcdd0"/></g><g transform="matrix(0.995, 0.105, -0.105, 0.995, 100.296, 16.466)"><path d="M23.606,87.378a4.839,4.839,0,0,1,6-3.3l1.35-4.646L10.044,73.363,25.563,19.934,46.47,26.006l2.024-6.969-6.969-2.024,1.349-4.646,6.969,2.025,2.025-6.969L26.315,0,0,90.6,25.553,98.02l1.35-4.646a4.839,4.839,0,0,1-3.3-6Zm0,0" fill="#dedde0"/><path d="M26.315,0,24.291,6.969,31.26,8.993,29.91,13.639l-6.969-2.024-2.024,6.969,20.907,6.073L26.305,78.086,5.4,72.014l-1.35,4.646a4.838,4.838,0,1,1-2.7,9.292L0,90.6,25.554,98.02l26.315-90.6Zm0,0" transform="translate(25.553 7.422)" fill="#acabb1"/><rect width="47.327" height="43.542" transform="matrix(0.279, -0.96, 0.96, 0.279, 12.362, 65.382)" fill="#fff"/><path d="M26.416,7.085,2.024,0,0,6.969,41.814,19.114l2.024-6.969Zm0,0" transform="translate(10.044 66.394)" fill="#fff"/><path d="M0,0" transform="translate(23.539 26.903)" fill="#ffda44"/><rect width="4.838" height="14.514" transform="matrix(0.279, -0.96, 0.96, 0.279, 41.525, 17.013)" fill="#fff"/><path d="M9.485,6.189a4.838,4.838,0,1,1-3.3-6,4.839,4.839,0,0,1,3.3,6Zm0,0" transform="translate(23.413 83.889)" fill="#fff"/><rect width="43.542" height="28.526" transform="matrix(0.96, 0.279, -0.279, 0.96, 20.342, 37.907)" fill="#ffda44"/><g transform="translate(10.044 19.934)"><g transform="translate(0 0)" clip-path="url(#b)"><g transform="translate(-14.535 3.217)"><path d="M20.184,36.092,11.145,0,0,10.595,2.865,31.061Zm0,0" transform="translate(52.133 30.904)" fill="#aa984d"/><path d="M1.772,41.433l17.492,5.08L16.4,26.047,12.752,0,0,15Zm0,0" transform="translate(35.734 15.452)" fill="#ff9811"/><path d="M36.533,56.6l.973.283-1.772-26.43L33.694,0,0,45.991Zm0,0" transform="translate(0 0)" fill="#ff5023"/><rect width="5.356" height="9.258" transform="matrix(0.279, -0.96, 0.96, 0.279, 58.486, 14.213)" fill="#acabb1"/><rect width="5.356" height="9.258" transform="matrix(0.279, -0.96, 0.96, 0.279, 49.596, 11.631)" fill="#cdcdd0"/></g></g></g></g><g transform="matrix(0.995, 0.105, -0.105, 0.995, 100.295, 16.466)"><path d="M23.606,87.378a4.839,4.839,0,0,1,6-3.3l1.35-4.646L10.044,73.363,25.563,19.934,46.47,26.006l2.024-6.969-6.969-2.024,1.349-4.646,6.969,2.025,2.025-6.969L26.315,0,0,90.6,25.553,98.02l1.35-4.646a4.839,4.839,0,0,1-3.3-6Zm0,0" fill="#dedde0"/><path d="M26.315,0,24.291,6.969,31.26,8.993,29.91,13.639l-6.969-2.024-2.024,6.969,20.907,6.073L26.305,78.086,5.4,72.014l-1.35,4.646a4.838,4.838,0,1,1-2.7,9.292L0,90.6,25.554,98.02l26.315-90.6Zm0,0" transform="translate(25.553 7.422)" fill="#acabb1"/><rect width="47.327" height="43.542" transform="matrix(0.279, -0.96, 0.96, 0.279, 12.362, 65.382)" fill="#fff"/><path d="M26.416,7.085,2.024,0,0,6.969,41.814,19.114l2.024-6.969Zm0,0" transform="translate(10.044 66.394)" fill="#fff"/><path d="M0,0" transform="translate(23.539 26.903)" fill="#ffda44"/><rect width="4.838" height="14.514" transform="matrix(0.279, -0.96, 0.96, 0.279, 41.525, 17.013)" fill="#fff"/><path d="M9.485,6.189a4.838,4.838,0,1,1-3.3-6,4.839,4.839,0,0,1,3.3,6Zm0,0" transform="translate(23.413 83.889)" fill="#fff"/><rect width="43.542" height="28.526" transform="matrix(0.96, 0.279, -0.279, 0.96, 20.342, 37.907)" fill="#ffda44"/><g transform="translate(10.044 19.934)"><g transform="translate(0 0)" clip-path="url(#b)"><g transform="translate(-30.068 18.363) rotate(-19)"><path d="M23.16,41.413,12.789,0,0,12.157,3.287,35.641Zm0,0" transform="translate(59.819 35.46)" fill="#aa984d"/><path d="M2.033,47.541,22.1,53.371,18.817,29.887,14.632,0,0,17.215Zm0,0" transform="translate(41.003 17.73)" fill="#ffe98f"/><path d="M41.92,64.947l1.116.324L41,34.945,38.661,0,0,52.771Zm0,0" transform="translate(0 0)" fill="#ff9811"/><rect width="6.146" height="10.623" transform="translate(55.731 14.31) rotate(-54.804)" fill="#acabb1"/><rect width="6.146" height="10.623" transform="translate(47.051 8.188) rotate(-54.804)" fill="#cdcdd0"/></g></g></g></g></g></g></g><g transform="translate(644 697.149)" clip-path="url(#d)"><g transform="translate(33.517 -3.102)"><g transform="translate(0 24.674) rotate(-8)"><rect width="58.364" height="14.591" transform="translate(40.126 103.05)" fill="#818085"/><path d="M10.943,0H0V10.943H80.251V0Zm0,0" transform="translate(29.182 117.641)" fill="#acabb1"/><path d="M10.943,87.547v-76.6H69.308V0H0V98.49H69.308V87.547Zm0,0" transform="translate(0 4.56)" fill="#dedde0"/><path d="M0,0V10.943H58.364v76.6H0V98.49H69.308V0ZM0,0" transform="translate(69.308 4.56)" fill="#acabb1"/><rect width="116.729" height="10.943" transform="translate(10.943 15.503)" fill="#fff"/><path d="M85.723,0H0V10.943H116.729V0Zm0,0" transform="translate(10.943 81.163)" fill="#fff"/><path d="M0,0H10.943" transform="translate(134.284 0)" fill="#ffda44"/><rect width="116.729" height="29.457" transform="translate(10.943 46.462)" fill="#ccf7f9"/><g transform="translate(15.666 26.011)"><path d="M32.32,40.447,9.451,0,0,16.717l10.32,23.73Zm0,0" transform="translate(66.777 26.964)" fill="#aa984d"/><path d="M11.068,53.929h22.22L22.968,30.2,9.833,0,0,22.608Zm0,0" transform="translate(43.809 13.482)" fill="#ffe98f"/><path d="M46.408,67.411h1.235L36.575,36.091,23.821,0,0,67.411Zm0,0" transform="translate(7.234 0)" fill="#ff9811"/><rect width="11.293" height="6.741" transform="translate(87.521 20.223)" fill="#acabb1"/><rect width="11.293" height="6.741" transform="translate(76.228 20.223)" fill="#cdcdd0"/><rect width="53.642" height="8.988" transform="translate(0 67.411)" fill="#cdcdd0"/><path d="M45.455,0H0V8.988H53.642V0Zm0,0" transform="translate(53.642 67.411)" fill="#acabb1"/></g><g transform="matrix(0.995, 0.105, -0.105, 0.995, 100.296, 16.466)"><path d="M23.606,87.378a4.839,4.839,0,0,1,6-3.3l1.35-4.646L10.044,73.363,25.563,19.934,46.47,26.006l2.024-6.969-6.969-2.024,1.349-4.646,6.969,2.025,2.025-6.969L26.315,0,0,90.6,25.553,98.02l1.35-4.646a4.839,4.839,0,0,1-3.3-6Zm0,0" fill="#dedde0"/><path d="M26.315,0,24.291,6.969,31.26,8.993,29.91,13.639l-6.969-2.024-2.024,6.969,20.907,6.073L26.305,78.086,5.4,72.014l-1.35,4.646a4.838,4.838,0,1,1-2.7,9.292L0,90.6,25.554,98.02l26.315-90.6Zm0,0" transform="translate(25.553 7.422)" fill="#acabb1"/><rect width="47.327" height="43.542" transform="matrix(0.279, -0.96, 0.96, 0.279, 12.362, 65.382)" fill="#fff"/><path d="M26.416,7.085,2.024,0,0,6.969,41.814,19.114l2.024-6.969Zm0,0" transform="translate(10.044 66.394)" fill="#fff"/><path d="M0,0" transform="translate(23.539 26.903)" fill="#ffda44"/><rect width="4.838" height="14.514" transform="matrix(0.279, -0.96, 0.96, 0.279, 41.525, 17.013)" fill="#fff"/><path d="M9.485,6.189a4.838,4.838,0,1,1-3.3-6,4.839,4.839,0,0,1,3.3,6Zm0,0" transform="translate(23.413 83.889)" fill="#fff"/><rect width="43.542" height="28.526" transform="matrix(0.96, 0.279, -0.279, 0.96, 20.342, 37.907)" fill="#ccf7f9"/><g transform="translate(10.044 19.934)"><g transform="translate(0 0)" clip-path="url(#b)"><g transform="translate(-30.068 18.363) rotate(-19)"><path d="M23.16,41.413,12.789,0,0,12.157,3.287,35.641Zm0,0" transform="translate(59.819 35.46)" fill="#aa984d"/><path d="M2.033,47.541,22.1,53.371,18.817,29.887,14.632,0,0,17.215Zm0,0" transform="translate(41.003 17.73)" fill="#ffe98f"/><path d="M41.92,64.947l1.116.324L41,34.945,38.661,0,0,52.771Zm0,0" transform="translate(0 0)" fill="#ff9811"/><rect width="6.146" height="10.623" transform="translate(55.731 14.31) rotate(-54.804)" fill="#acabb1"/><rect width="6.146" height="10.623" transform="translate(47.051 8.188) rotate(-54.804)" fill="#cdcdd0"/></g></g></g></g></g></g></g></g></g></svg>