<svg xmlns="http://www.w3.org/2000/svg" width="585" height="229" viewBox="0 0 585 229">
  <g id="hero-melzo" transform="translate(-1059 -267)">
    <g id="Group_343" data-name="Group 343" transform="translate(-74.134 6.811)">
      <path id="Path_640" data-name="Path 640" d="M4.134,17.111a4.574,4.574,0,0,1,.37-1.833A4.62,4.62,0,0,1,6.981,12.8a4.529,4.529,0,0,1,3.588,0,4.958,4.958,0,0,1,1.5.994,4.606,4.606,0,0,1,1.385,3.315,4.342,4.342,0,0,1-.371,1.774,4.612,4.612,0,0,1-1.014,1.463,4.958,4.958,0,0,1-1.5.995,4.529,4.529,0,0,1-3.588,0A4.714,4.714,0,0,1,5.5,20.348,4.777,4.777,0,0,1,4.5,18.885,4.342,4.342,0,0,1,4.134,17.111Zm8.892,40.677a4.145,4.145,0,0,1-.332,1.638,4.206,4.206,0,0,1-.9,1.346,4.266,4.266,0,0,1-1.326.9A4.1,4.1,0,0,1,8.814,62a4.145,4.145,0,0,1-1.638-.332,4.445,4.445,0,0,1-1.365-.9,4.053,4.053,0,0,1-.917-1.346,4.145,4.145,0,0,1-.332-1.638V29.942a3.816,3.816,0,0,1,.351-1.618,4.632,4.632,0,0,1,.936-1.346A4.261,4.261,0,0,1,8.892,25.73a3.966,3.966,0,0,1,1.638.332,4.169,4.169,0,0,1,1.307.916,4.226,4.226,0,0,1,1.189,2.964Zm16.341.078A4.063,4.063,0,0,1,25.233,62a4.145,4.145,0,0,1-1.638-.332,4.917,4.917,0,0,1-1.385-.877,4,4,0,0,1-.955-1.306,3.816,3.816,0,0,1-.351-1.618V39.5a13.456,13.456,0,0,1,1.15-5.519,14.344,14.344,0,0,1,3.139-4.524,15.163,15.163,0,0,1,4.622-3.062,13.931,13.931,0,0,1,5.557-1.131,14.085,14.085,0,0,1,5.714,1.17,15.214,15.214,0,0,1,4.7,3.2,15.086,15.086,0,0,1,4.738-3.2,14.36,14.36,0,0,1,5.753-1.17,14.032,14.032,0,0,1,5.538,1.092,14.477,14.477,0,0,1,4.524,3,14.92,14.92,0,0,1,3.12,4.446,14.176,14.176,0,0,1,1.287,5.421.9.9,0,0,0,.02.175.9.9,0,0,1,.02.175V57.866a4.077,4.077,0,0,1-1.229,2.925,4.523,4.523,0,0,1-1.307.877,3.87,3.87,0,0,1-1.6.332,4.287,4.287,0,0,1-1.658-.332,4.574,4.574,0,0,1-1.384-.877,4.137,4.137,0,0,1-.936-1.306,3.816,3.816,0,0,1-.351-1.618V39.458a5.65,5.65,0,0,0-.546-2.3,5.843,5.843,0,0,0-1.346-1.813,6.3,6.3,0,0,0-1.911-1.189,6.382,6.382,0,0,0-4.7.039,6.329,6.329,0,0,0-1.969,1.268,5.979,5.979,0,0,0-1.326,1.872,5.541,5.541,0,0,0-.487,2.321V57.866A4.063,4.063,0,0,1,45.9,62a4.145,4.145,0,0,1-1.638-.332,4.917,4.917,0,0,1-1.384-.877,4,4,0,0,1-.955-1.306,3.816,3.816,0,0,1-.351-1.618V39.5a6,6,0,0,0-.527-2.321,5.672,5.672,0,0,0-1.306-1.833,6,6,0,0,0-1.911-1.189,6.342,6.342,0,0,0-2.34-.429,6.246,6.246,0,0,0-2.36.449,6.077,6.077,0,0,0-3.276,3.1,5.318,5.318,0,0,0-.487,2.262Zm56.511,0A4.063,4.063,0,0,1,81.744,62a4.145,4.145,0,0,1-1.638-.332,4.917,4.917,0,0,1-1.384-.877,4,4,0,0,1-.955-1.306,3.816,3.816,0,0,1-.351-1.618V39.5a13.456,13.456,0,0,1,1.15-5.519,14.344,14.344,0,0,1,3.14-4.524,15.163,15.163,0,0,1,4.621-3.062,13.931,13.931,0,0,1,5.557-1.131,14.085,14.085,0,0,1,5.714,1.17,15.214,15.214,0,0,1,4.7,3.2,15.086,15.086,0,0,1,4.738-3.2,14.36,14.36,0,0,1,5.753-1.17,14.032,14.032,0,0,1,5.538,1.092,14.476,14.476,0,0,1,4.524,3,14.921,14.921,0,0,1,3.12,4.446,14.176,14.176,0,0,1,1.287,5.421.9.9,0,0,0,.02.175.9.9,0,0,1,.019.175V57.866a4.077,4.077,0,0,1-1.229,2.925,4.523,4.523,0,0,1-1.307.877,3.87,3.87,0,0,1-1.6.332,4.287,4.287,0,0,1-1.657-.332,4.573,4.573,0,0,1-1.384-.877,4.137,4.137,0,0,1-.936-1.306,3.816,3.816,0,0,1-.351-1.618V39.458a5.649,5.649,0,0,0-.546-2.3,5.843,5.843,0,0,0-1.345-1.813,6.3,6.3,0,0,0-1.911-1.189,6.382,6.382,0,0,0-4.7.039,6.329,6.329,0,0,0-1.969,1.268,5.979,5.979,0,0,0-1.326,1.872,5.541,5.541,0,0,0-.488,2.321V57.866A4.063,4.063,0,0,1,102.414,62a4.145,4.145,0,0,1-1.638-.332,4.917,4.917,0,0,1-1.384-.877,4,4,0,0,1-.956-1.306,3.816,3.816,0,0,1-.351-1.618V39.5a6,6,0,0,0-.526-2.321,5.672,5.672,0,0,0-1.307-1.833,6,6,0,0,0-1.911-1.189A6.342,6.342,0,0,0,92,33.725a6.246,6.246,0,0,0-2.359.449,6.077,6.077,0,0,0-3.276,3.1,5.318,5.318,0,0,0-.488,2.262Zm55.887-10.218a9.374,9.374,0,0,0,1.423,2.632,9.523,9.523,0,0,0,2.126,2.028,9.647,9.647,0,0,0,2.652,1.287,10.191,10.191,0,0,0,3.042.448,9,9,0,0,0,6.318-2.106,6.147,6.147,0,0,1,1.521-.8,4.341,4.341,0,0,1,1.4-.254,3.463,3.463,0,0,1,1.95.566,4.778,4.778,0,0,1,1.969,2.808,3.953,3.953,0,0,1,.078,1.463,4.464,4.464,0,0,1-.468,1.462,4.01,4.01,0,0,1-1.112,1.306,16.024,16.024,0,0,1-1.95,1.5,12.988,12.988,0,0,1-2.516,1.267,18.35,18.35,0,0,1-3.2.878,21.882,21.882,0,0,1-4,.331,18.129,18.129,0,0,1-7.254-1.462,18.842,18.842,0,0,1-5.928-4,19.182,19.182,0,0,1-4.017-5.909,18.447,18.447,0,0,1,0-14.488,18.777,18.777,0,0,1,9.945-9.887A18.691,18.691,0,0,1,158.2,26.7a19.384,19.384,0,0,1,5.928,3.92,18.64,18.64,0,0,1,4.056,5.83,17.814,17.814,0,0,1,1.541,7.176,3.858,3.858,0,0,1-1.15,2.906,4.167,4.167,0,0,1-3.023,1.111Zm19.266-7.02a8.908,8.908,0,0,0-1.345-2.886,9.016,9.016,0,0,0-2.2-2.184,9.841,9.841,0,0,0-2.886-1.365,12.022,12.022,0,0,0-3.393-.468,11.379,11.379,0,0,0-3.373.487,9.7,9.7,0,0,0-2.847,1.4,9.329,9.329,0,0,0-2.165,2.184,8.967,8.967,0,0,0-1.326,2.827Zm22.113,17.2a4.37,4.37,0,0,1-.312,1.638,3.754,3.754,0,0,1-.878,1.326,4.523,4.523,0,0,1-1.307.877,3.87,3.87,0,0,1-1.6.332,4.385,4.385,0,0,1-1.7-.332,4.573,4.573,0,0,1-1.384-.877,4.079,4.079,0,0,1-.936-1.326,3.947,3.947,0,0,1-.351-1.638V45.23a18.8,18.8,0,0,1,1.54-7.566A19.726,19.726,0,0,1,186.615,27.27a18.7,18.7,0,0,1,7.527-1.541h.078a4.32,4.32,0,0,1,3.257,1.19,4.17,4.17,0,0,1,1.15,3.022,4.039,4.039,0,0,1-.351,1.677,4.156,4.156,0,0,1-.956,1.346,4.63,4.63,0,0,1-1.4.9,4.385,4.385,0,0,1-1.7.332h-.078a10.66,10.66,0,0,0-4.232.858,10.981,10.981,0,0,0-3.49,2.34,11.605,11.605,0,0,0-2.379,3.471,10.22,10.22,0,0,0-.9,4.251Zm28.587-11.076q-1.677-.7-3.471-1.56a15.77,15.77,0,0,1-3.276-2.087,10.383,10.383,0,0,1-2.437-2.925,8.181,8.181,0,0,1-.956-4.076,9.946,9.946,0,0,1,3.686-7.9,12.329,12.329,0,0,1,4.115-2.184,17.09,17.09,0,0,1,5.226-.761,23.738,23.738,0,0,1,3.393.254,17.134,17.134,0,0,1,3.335.819,11.017,11.017,0,0,1,2.827,1.482,6.3,6.3,0,0,1,1.911,2.2,4.307,4.307,0,0,1,.41,2.476,3.7,3.7,0,0,1-.878,2.008,3.994,3.994,0,0,1-1.268.975,3.475,3.475,0,0,1-1.54.351,3.545,3.545,0,0,1-1.365-.312q-.819-.507-1.5-.9a9.86,9.86,0,0,0-1.4-.663,8.175,8.175,0,0,0-1.521-.41,10.85,10.85,0,0,0-1.813-.137,8.53,8.53,0,0,0-3.842.682,2.219,2.219,0,0,0-1.307,2.087,1.666,1.666,0,0,0,.488,1.229,4.605,4.605,0,0,0,1.326.877,14.779,14.779,0,0,0,2.028.741q1.189.351,2.594.78a37.3,37.3,0,0,1,4.387,1.638,15.212,15.212,0,0,1,3.666,2.282,10.356,10.356,0,0,1,2.516,3.159,9.377,9.377,0,0,1,.936,4.349A9.91,9.91,0,0,1,227,55.624a11.1,11.1,0,0,1-2.75,3.569,13.142,13.142,0,0,1-4.173,2.4,15.444,15.444,0,0,1-5.3.877,23.392,23.392,0,0,1-3.8-.331,17.163,17.163,0,0,1-3.9-1.131,14.982,14.982,0,0,1-3.491-2.067,9.626,9.626,0,0,1-2.574-3.139,5.053,5.053,0,0,1-.7-2.4,3.809,3.809,0,0,1,.488-1.95,3.389,3.389,0,0,1,1.365-1.307,4.037,4.037,0,0,1,1.93-.468,5.2,5.2,0,0,1,1.95.41,7.13,7.13,0,0,1,2.028,1.306,6.411,6.411,0,0,0,1.17,1.112,9.188,9.188,0,0,0,3.413,1.579,9.083,9.083,0,0,0,2.087.234,7.537,7.537,0,0,0,1.833-.215,5.719,5.719,0,0,0,1.521-.6,3.364,3.364,0,0,0,1.053-.936,2.093,2.093,0,0,0,.39-1.248,1.929,1.929,0,0,0-.858-1.5,10.812,10.812,0,0,0-2.087-1.268,22.613,22.613,0,0,0-2.574-1.034Zm29.991.9a9.374,9.374,0,0,0,1.423,2.632,9.523,9.523,0,0,0,2.126,2.028,9.647,9.647,0,0,0,2.652,1.287,10.191,10.191,0,0,0,3.042.448,9,9,0,0,0,6.318-2.106,6.147,6.147,0,0,1,1.521-.8,4.341,4.341,0,0,1,1.4-.254,3.464,3.464,0,0,1,1.95.566,4.778,4.778,0,0,1,1.969,2.808,3.953,3.953,0,0,1,.078,1.463,4.465,4.465,0,0,1-.468,1.462,4.01,4.01,0,0,1-1.112,1.306,16.023,16.023,0,0,1-1.95,1.5,12.987,12.987,0,0,1-2.515,1.267,18.35,18.35,0,0,1-3.2.878,21.882,21.882,0,0,1-4,.331,18.129,18.129,0,0,1-7.254-1.462,18.842,18.842,0,0,1-5.928-4,19.182,19.182,0,0,1-4.017-5.909,18.447,18.447,0,0,1,0-14.488,18.777,18.777,0,0,1,9.945-9.887,18.691,18.691,0,0,1,14.45-.02,19.384,19.384,0,0,1,5.928,3.92,18.641,18.641,0,0,1,4.056,5.83,17.814,17.814,0,0,1,1.54,7.176,3.858,3.858,0,0,1-1.15,2.906,4.167,4.167,0,0,1-3.022,1.111Zm19.266-7.02a8.907,8.907,0,0,0-1.345-2.886,9.016,9.016,0,0,0-2.2-2.184,9.841,9.841,0,0,0-2.886-1.365,12.022,12.022,0,0,0-3.393-.468,11.379,11.379,0,0,0-3.373.487,9.7,9.7,0,0,0-2.847,1.4,9.329,9.329,0,0,0-2.165,2.184,8.967,8.967,0,0,0-1.326,2.827Zm39.741,3.9a9.385,9.385,0,0,0,.741,3.724,9.185,9.185,0,0,0,5.07,4.992,9.75,9.75,0,0,0,3.744.722,9.177,9.177,0,0,0,3.724-.761,9.381,9.381,0,0,0,3-2.067,9.853,9.853,0,0,0,2.009-3.062,9.625,9.625,0,0,0,.741-3.783V29.942a3.816,3.816,0,0,1,.351-1.618,4.632,4.632,0,0,1,.936-1.346,4.221,4.221,0,0,1,1.385-.916,4.287,4.287,0,0,1,1.658-.332,3.966,3.966,0,0,1,1.638.332,4.169,4.169,0,0,1,1.306.916,4.226,4.226,0,0,1,1.19,2.964V44.45a17.448,17.448,0,0,1-1.053,6.065,18.426,18.426,0,0,1-2.886,5.167,18.092,18.092,0,0,1-4.368,3.939,17.479,17.479,0,0,1-5.5,2.34v8.97a4.243,4.243,0,0,1-.331,1.677,4.054,4.054,0,0,1-.917,1.345,4.513,4.513,0,0,1-1.345.9,4.006,4.006,0,0,1-1.618.331,4.134,4.134,0,0,1-4.251-4.251V61.922a17.7,17.7,0,0,1-5.46-2.379,18.4,18.4,0,0,1-4.329-3.939,18.124,18.124,0,0,1-2.867-5.148,17.464,17.464,0,0,1-1.033-6.006V29.942a4.007,4.007,0,0,1,.331-1.618,4.514,4.514,0,0,1,.9-1.346,4.054,4.054,0,0,1,1.346-.916,4.213,4.213,0,0,1,3.276,0,4.275,4.275,0,0,1,1.365.916,4.337,4.337,0,0,1,.917,1.346,4.007,4.007,0,0,1,.331,1.618Zm41.145-.663a9.787,9.787,0,0,0,.8,3.92,10.293,10.293,0,0,0,5.4,5.421,9.744,9.744,0,0,0,3.939.8,9.882,9.882,0,0,0,3.958-.8,10.071,10.071,0,0,0,3.217-2.184,10.2,10.2,0,0,0,2.145-3.237,10.186,10.186,0,0,0-2.145-11.1,10.234,10.234,0,0,0-3.217-2.164,10.1,10.1,0,0,0-7.878,0,10.473,10.473,0,0,0-3.237,2.164,10.071,10.071,0,0,0-2.184,3.218A9.883,9.883,0,0,0,341.874,43.865Zm-8.463,0a17.786,17.786,0,0,1,1.482-7.235,19.182,19.182,0,0,1,4.017-5.908,18.9,18.9,0,0,1,5.909-4,17.894,17.894,0,0,1,7.2-1.463,18.129,18.129,0,0,1,7.254,1.463,18.583,18.583,0,0,1,9.867,9.906,18.808,18.808,0,0,1,0,14.45,18.532,18.532,0,0,1-9.867,9.925,18.129,18.129,0,0,1-7.254,1.462,17.894,17.894,0,0,1-7.2-1.462,18.9,18.9,0,0,1-5.909-4,19.117,19.117,0,0,1-4.017-5.928A17.828,17.828,0,0,1,333.411,43.865Zm50.817.624a9.6,9.6,0,0,0,.721,3.725,9.4,9.4,0,0,0,1.989,3.022,9.278,9.278,0,0,0,3,2.028,9.385,9.385,0,0,0,3.725.741,8.344,8.344,0,0,0,3.627-.761A8.051,8.051,0,0,0,400,51.177a9.388,9.388,0,0,0,1.716-3.061,11.418,11.418,0,0,0,.6-3.744V29.942a3.907,3.907,0,0,1,.351-1.657,4.218,4.218,0,0,1,.956-1.326,4.7,4.7,0,0,1,1.384-.9,4.145,4.145,0,0,1,1.638-.332,3.966,3.966,0,0,1,1.638.332,4.333,4.333,0,0,1,1.306.9,4,4,0,0,1,.878,1.326,4.325,4.325,0,0,1,.312,1.657V44.255a19.6,19.6,0,0,1-1.268,7.059,18.047,18.047,0,0,1-3.529,5.792,16.584,16.584,0,0,1-5.421,3.92,16.415,16.415,0,0,1-6.9,1.443,17.285,17.285,0,0,1-7-1.424,17.979,17.979,0,0,1-5.674-3.88,18.449,18.449,0,0,1-3.822-5.733,17.534,17.534,0,0,1-1.4-6.981V29.942a4.1,4.1,0,0,1,.331-1.657,4.266,4.266,0,0,1,.9-1.326,4.206,4.206,0,0,1,1.346-.9,4.213,4.213,0,0,1,3.276,0,4.445,4.445,0,0,1,1.365.9,4.081,4.081,0,0,1,1.248,2.983Zm41.886,13.338a4.37,4.37,0,0,1-.312,1.638,3.754,3.754,0,0,1-.878,1.326,4.523,4.523,0,0,1-1.306.877,3.871,3.871,0,0,1-1.6.332,4.385,4.385,0,0,1-1.7-.332,4.573,4.573,0,0,1-1.385-.877A4.079,4.079,0,0,1,418,59.465a3.948,3.948,0,0,1-.351-1.638V45.23a18.8,18.8,0,0,1,1.54-7.566A19.726,19.726,0,0,1,429.585,27.27a18.7,18.7,0,0,1,7.527-1.541h.078a4.32,4.32,0,0,1,3.257,1.19,4.17,4.17,0,0,1,1.15,3.022,4.039,4.039,0,0,1-.351,1.677,4.157,4.157,0,0,1-.956,1.346,4.63,4.63,0,0,1-1.4.9,4.385,4.385,0,0,1-1.7.332h-.078a10.66,10.66,0,0,0-4.232.858,10.981,10.981,0,0,0-3.491,2.34,11.605,11.605,0,0,0-2.379,3.471,10.22,10.22,0,0,0-.9,4.251ZM454.7,46.751q-1.677-.7-3.471-1.56a15.77,15.77,0,0,1-3.276-2.087,10.383,10.383,0,0,1-2.437-2.925,8.181,8.181,0,0,1-.956-4.076,9.946,9.946,0,0,1,3.685-7.9,12.329,12.329,0,0,1,4.115-2.184,17.09,17.09,0,0,1,5.226-.761,23.738,23.738,0,0,1,3.393.254,17.133,17.133,0,0,1,3.335.819,11.017,11.017,0,0,1,2.827,1.482,6.3,6.3,0,0,1,1.911,2.2,4.307,4.307,0,0,1,.409,2.476,3.7,3.7,0,0,1-.878,2.008,3.994,3.994,0,0,1-1.267.975,3.475,3.475,0,0,1-1.54.351,3.545,3.545,0,0,1-1.365-.312q-.819-.507-1.5-.9a9.859,9.859,0,0,0-1.4-.663,8.175,8.175,0,0,0-1.521-.41,10.85,10.85,0,0,0-1.814-.137,8.53,8.53,0,0,0-3.841.682,2.219,2.219,0,0,0-1.306,2.087,1.666,1.666,0,0,0,.487,1.229,4.605,4.605,0,0,0,1.326.877,14.778,14.778,0,0,0,2.028.741q1.189.351,2.594.78a37.3,37.3,0,0,1,4.387,1.638,15.212,15.212,0,0,1,3.666,2.282,10.356,10.356,0,0,1,2.516,3.159,9.377,9.377,0,0,1,.936,4.349,9.91,9.91,0,0,1-.995,4.388,11.1,11.1,0,0,1-2.75,3.569,13.142,13.142,0,0,1-4.173,2.4,15.444,15.444,0,0,1-5.3.877,23.392,23.392,0,0,1-3.8-.331,17.163,17.163,0,0,1-3.9-1.131,14.982,14.982,0,0,1-3.49-2.067,9.625,9.625,0,0,1-2.574-3.139,5.053,5.053,0,0,1-.7-2.4,3.81,3.81,0,0,1,.487-1.95,3.389,3.389,0,0,1,1.365-1.307,4.038,4.038,0,0,1,1.931-.468,5.2,5.2,0,0,1,1.95.41,7.131,7.131,0,0,1,2.028,1.306A6.41,6.41,0,0,0,452.2,52.5a9.188,9.188,0,0,0,3.412,1.579,9.083,9.083,0,0,0,2.087.234,7.537,7.537,0,0,0,1.833-.215,5.719,5.719,0,0,0,1.521-.6,3.364,3.364,0,0,0,1.053-.936,2.093,2.093,0,0,0,.39-1.248,1.929,1.929,0,0,0-.858-1.5,10.812,10.812,0,0,0-2.086-1.268,22.612,22.612,0,0,0-2.574-1.034Zm29.991.9a9.375,9.375,0,0,0,1.424,2.632,9.523,9.523,0,0,0,2.125,2.028,9.647,9.647,0,0,0,2.652,1.287,10.191,10.191,0,0,0,3.042.448,9,9,0,0,0,6.318-2.106,6.147,6.147,0,0,1,1.521-.8,4.341,4.341,0,0,1,1.4-.254,3.463,3.463,0,0,1,1.95.566,4.778,4.778,0,0,1,1.97,2.808,3.955,3.955,0,0,1,.078,1.463,4.464,4.464,0,0,1-.468,1.462A4.009,4.009,0,0,1,505.6,58.49a16.023,16.023,0,0,1-1.95,1.5,12.988,12.988,0,0,1-2.516,1.267,18.349,18.349,0,0,1-3.2.878,21.882,21.882,0,0,1-4,.331,18.129,18.129,0,0,1-7.254-1.462,18.842,18.842,0,0,1-5.928-4,19.182,19.182,0,0,1-4.017-5.909,18.447,18.447,0,0,1,0-14.488,18.777,18.777,0,0,1,9.945-9.887,18.691,18.691,0,0,1,14.449-.02,19.384,19.384,0,0,1,5.928,3.92,18.641,18.641,0,0,1,4.056,5.83,17.814,17.814,0,0,1,1.54,7.176,3.858,3.858,0,0,1-1.151,2.906,4.167,4.167,0,0,1-3.022,1.111Zm19.266-7.02a8.908,8.908,0,0,0-1.346-2.886,9.015,9.015,0,0,0-2.2-2.184,9.841,9.841,0,0,0-2.886-1.365,12.022,12.022,0,0,0-3.393-.468,11.379,11.379,0,0,0-3.374.487,9.7,9.7,0,0,0-2.847,1.4,9.329,9.329,0,0,0-2.164,2.184,8.967,8.967,0,0,0-1.326,2.827Zm27.183,12.909a4.039,4.039,0,0,1,1.677.351,3.943,3.943,0,0,1,1.326.955A4.59,4.59,0,0,1,535,56.228a4.37,4.37,0,0,1,.312,1.638,4.017,4.017,0,0,1-1.17,2.964,4.066,4.066,0,0,1-3,1.17,13.671,13.671,0,0,1-4.973-.9,12.884,12.884,0,0,1-4.076-2.5,11.54,11.54,0,0,1-2.769-3.861,12.988,12.988,0,0,1-1.092-4.992V15.98a4.242,4.242,0,0,1,.331-1.677,4.382,4.382,0,0,1,.878-1.346,4.092,4.092,0,0,1,1.287-.9,3.871,3.871,0,0,1,1.6-.331A4.243,4.243,0,0,1,524,12.06a4.7,4.7,0,0,1,1.385.9,4.156,4.156,0,0,1,.956,1.346,4.04,4.04,0,0,1,.351,1.677v33.5a3.688,3.688,0,0,0,1.248,3.042A4.908,4.908,0,0,0,531.141,53.537Zm12.051-24.024V24.4a12.3,12.3,0,0,1,.995-4.895,12.71,12.71,0,0,1,6.688-6.766,12.05,12.05,0,0,1,4.914-1.014,4.277,4.277,0,0,1,3.958,5.928,3.845,3.845,0,0,1-.917,1.326,4.639,4.639,0,0,1-1.365.878,4.242,4.242,0,0,1-1.677.331h-.2a3.792,3.792,0,0,0-1.579.41,4.271,4.271,0,0,0-2.067,2.3,4.469,4.469,0,0,0-.292,1.619v4.992H554.5a4.2,4.2,0,0,1,3.919,2.555,4.1,4.1,0,0,1,.331,1.658,4.213,4.213,0,0,1-4.251,4.251h-2.847V57.71a4.261,4.261,0,0,1-1.248,3.042,4.337,4.337,0,0,1-1.346.917,4.006,4.006,0,0,1-1.619.332,4.145,4.145,0,0,1-1.638-.332,4.261,4.261,0,0,1-2.613-3.958V37.976H541.2a4.145,4.145,0,0,1-1.638-.331,4.262,4.262,0,0,1-2.281-2.282,4.145,4.145,0,0,1-.331-1.638,4.081,4.081,0,0,1,1.248-2.983,4.446,4.446,0,0,1,1.365-.9,4.145,4.145,0,0,1,1.638-.332Z" transform="translate(1129 401)" fill="#fff"/>
      <path id="Path_641" data-name="Path 641" d="M9.545-4.158a3.927,3.927,0,0,0,1.276,2.93A4.157,4.157,0,0,0,13.8,0a3.813,3.813,0,0,0,2.788-1.181,4.036,4.036,0,0,0,1.181-2.977V-59.535a20.344,20.344,0,0,1,1.89-8.08,21.034,21.034,0,0,1,5.009-6.851,23.561,23.561,0,0,1,7.229-4.678A22,22,0,0,1,40.352-80.8a23.032,23.032,0,0,1,8.316,1.559,22.61,22.61,0,0,1,7.182,4.394,21.982,21.982,0,0,1,5.056,6.757,19.6,19.6,0,0,1,1.937,8.174V-4.158a4,4,0,0,0,1.229,2.93A4,4,0,0,0,67,0a3.846,3.846,0,0,0,2.882-1.229,4.08,4.08,0,0,0,1.181-2.93v-54.81a20.059,20.059,0,0,1,1.8-8.269,22.506,22.506,0,0,1,4.914-7.04A24.7,24.7,0,0,1,85.1-79.049,21.638,21.638,0,0,1,93.65-80.8a22.786,22.786,0,0,1,8.222,1.559,22.61,22.61,0,0,1,7.182,4.394,22.649,22.649,0,0,1,5.1,6.757,20.243,20.243,0,0,1,2.079,8.174V-4.158a3.927,3.927,0,0,0,1.276,2.93A4.157,4.157,0,0,0,120.488,0a3.813,3.813,0,0,0,2.788-1.181,4.036,4.036,0,0,0,1.181-2.977V-59.535a1.257,1.257,0,0,0-.094-.661,29.634,29.634,0,0,0-2.741-11.151,30.347,30.347,0,0,0-6.615-9.261,30.156,30.156,0,0,0-9.686-6.19,30.525,30.525,0,0,0-11.482-2.221,30.919,30.919,0,0,0-15.592,4.158A31.318,31.318,0,0,0,66.906-73.8,30.987,30.987,0,0,0,55.85-84.861a30.079,30.079,0,0,0-15.5-4.158A29.785,29.785,0,0,0,28.823-86.7,32.854,32.854,0,0,0,18.9-80.325a31.459,31.459,0,0,0-6.851,9.545,26.8,26.8,0,0,0-2.5,11.435Zm209.6-12.191a4.94,4.94,0,0,0-.945-2.74,4.206,4.206,0,0,0-1.89-1.512,5.211,5.211,0,0,0-1.039-.189,5.394,5.394,0,0,0-3.024,1.228,31.623,31.623,0,0,1-12,9.167,35.527,35.527,0,0,1-15.4,3.4,36.15,36.15,0,0,1-13.419-2.5,35.032,35.032,0,0,1-11.245-7.135,35.286,35.286,0,0,1-7.844-10.537,35.821,35.821,0,0,1-3.5-12.9h77.112a3.768,3.768,0,0,0,2.835-1.181,4.006,4.006,0,0,0,1.134-2.882,43.735,43.735,0,0,0-3.5-17.294,45.341,45.341,0,0,0-9.734-14.459A44.7,44.7,0,0,0,202.23-85.57a44.49,44.49,0,0,0-17.388-3.449A44.145,44.145,0,0,0,167.5-85.57,45.177,45.177,0,0,0,153-75.789a45.176,45.176,0,0,0-9.781,14.506,44.145,44.145,0,0,0-3.449,17.341,44.31,44.31,0,0,0,3.5,17.435A45.2,45.2,0,0,0,153-12,45.176,45.176,0,0,0,167.5-2.221a44.145,44.145,0,0,0,17.341,3.449,42.8,42.8,0,0,0,18.569-3.922,45.08,45.08,0,0,0,14.317-10.631A3.46,3.46,0,0,0,219.145-16.349ZM148.554-47.061A35.682,35.682,0,0,1,152-60.244a36.41,36.41,0,0,1,7.891-10.82,35.437,35.437,0,0,1,11.34-7.182,36.788,36.788,0,0,1,13.7-2.551,36.534,36.534,0,0,1,13.608,2.551,37.745,37.745,0,0,1,11.529,7.182,34.32,34.32,0,0,1,7.985,10.773,36.082,36.082,0,0,1,3.449,13.23ZM275.373,0a4.228,4.228,0,0,0,2.882-1.181,3.9,3.9,0,0,0,1.087-2.882,4.126,4.126,0,0,0-1.134-2.977,4,4,0,0,0-3.024-1.181q-9.828,0-15.592-6.19t-5.859-17.057v-86.09a4.069,4.069,0,0,0-1.228-3.071,4.08,4.08,0,0,0-2.93-1.181,3.922,3.922,0,0,0-2.882,1.181,4.155,4.155,0,0,0-1.181,3.071v85.712a37.258,37.258,0,0,0,2.174,13.041,29.081,29.081,0,0,0,6.237,10.112,26.239,26.239,0,0,0,9.45,6.473A31.667,31.667,0,0,0,275.373,0ZM293.99-4.158a3.494,3.494,0,0,0,.567,1.985A3.815,3.815,0,0,0,298.336,0h75.695A4.25,4.25,0,0,0,377.1-1.134a3.88,3.88,0,0,0,1.181-2.929A4.036,4.036,0,0,0,377.1-7.04a4.155,4.155,0,0,0-3.071-1.181h-67L375.354-80.7a3.964,3.964,0,0,0,1.134-2.93,3.846,3.846,0,0,0-1.134-2.835,4.065,4.065,0,0,0-2.93-1.323H299.187a4.126,4.126,0,0,0-2.977,1.134,3.88,3.88,0,0,0-1.181,2.929,3.922,3.922,0,0,0,1.181,2.882,4.036,4.036,0,0,0,2.977,1.181h64.354L295.029-6.993a4.026,4.026,0,0,0-1.039,2.457Zm97.051-22.208a44.454,44.454,0,0,0,9.639,14.317,46.74,46.74,0,0,0,14.364,9.686,43.638,43.638,0,0,0,17.482,3.591,44.2,44.2,0,0,0,17.483-3.5A45.34,45.34,0,0,0,464.467-12a44.072,44.072,0,0,0,9.639-14.459,45.026,45.026,0,0,0,3.4-17.388,45.423,45.423,0,0,0-3.449-17.577,44.111,44.111,0,0,0-9.592-14.459,44.566,44.566,0,0,0-14.506-9.686,44.836,44.836,0,0,0-17.435-3.449,44.145,44.145,0,0,0-17.341,3.449,45.94,45.94,0,0,0-14.506,9.686,43.992,43.992,0,0,0-9.733,14.459,44.889,44.889,0,0,0-3.5,17.577A43.638,43.638,0,0,0,391.041-26.366Zm4.631-17.483a36.736,36.736,0,0,1,2.835-14.269,36.526,36.526,0,0,1,7.938-11.907,35.6,35.6,0,0,1,11.765-7.938A36.627,36.627,0,0,1,432.526-80.8a37.213,37.213,0,0,1,14.458,2.835A35.475,35.475,0,0,1,458.8-70.025a36.781,36.781,0,0,1,7.8,11.86,37.167,37.167,0,0,1,2.788,14.317,36.229,36.229,0,0,1-2.788,14.128,37.058,37.058,0,0,1-7.8,11.765,35.38,35.38,0,0,1-11.812,8.08,36.683,36.683,0,0,1-14.458,2.882A36.107,36.107,0,0,1,418.21-9.875a35.5,35.5,0,0,1-11.765-8.08,38.06,38.06,0,0,1-7.938-11.86A35.471,35.471,0,0,1,395.672-43.848Z" transform="translate(1129 395)" fill="#fff" stroke="#fff" stroke-width="8"/>
    </g>
    <rect id="Rectangle_135" data-name="Rectangle 135" width="585" height="229" transform="translate(1059 267)" fill="none" opacity="0"/>
  </g>
</svg>
