<svg xmlns="http://www.w3.org/2000/svg" xmlns:xlink="http://www.w3.org/1999/xlink" width="349.585" height="340.12" viewBox="0 0 349.585 340.12"><defs><filter id="a" x="0" y="0" width="349.585" height="340.12" filterUnits="userSpaceOnUse"><feOffset input="SourceAlpha"/><feGaussianBlur stdDeviation="16" result="b"/><feFlood flood-color="#b604b6"/><feComposite operator="in" in2="b"/><feComposite in="SourceGraphic"/></filter></defs><g transform="translate(-466.166 -5543.31)"><path d="M147.887,0c81.676,0,147.887,64.636,147.887,144.369S229.563,288.739,147.887,288.739,0,224.1,0,144.369,66.211,0,147.887,0Z" transform="translate(491.276 5569.517)" fill="#f0aaf0" opacity="0.3"/><ellipse cx="134.191" cy="136.924" rx="134.191" ry="136.924" transform="translate(506.546 5569.46)" fill="#ffffdc" opacity="0.3"/><ellipse cx="127.173" cy="121.28" rx="127.173" ry="121.28" transform="translate(512.809 5589.131)" fill="#b604b6" opacity="0.33"/><ellipse cx="127.173" cy="121.28" rx="127.173" ry="121.28" transform="translate(497.355 5592.841)" fill="#9e539e" opacity="0.33"/><path d="M127.173,0c70.236,0,127.173,54.3,127.173,121.28s-56.937,121.28-127.173,121.28S0,188.262,0,121.28,56.937,0,127.173,0Z" transform="translate(520.845 5605.823)" fill="#b604b6" opacity="0.33"/><g transform="matrix(1, 0, 0, 1, 466.17, 5543.31)" filter="url(#a)"><ellipse cx="126.793" cy="122.06" rx="126.793" ry="122.06" transform="translate(48 48)" fill="#fff"/></g></g></svg>