<svg xmlns="http://www.w3.org/2000/svg" xmlns:xlink="http://www.w3.org/1999/xlink" viewBox="0 0 2617.305 1919.889">
  <defs>
    <clipPath id="a">
      <path d="M43.883 378.783L414.8 254.512l358.469 8.275 170.904-100.815 215.3 37.151 346.1-83.762L1983.84 3.838l193.18 59.237 70.656 941.051-123.624 61.509-223.828-69.53-242.266 58.771-214.4-4.949-188.737 40.834-117.833 52.057-154.889 38.192-321.299 42.566-233.246 67.195-223.3-5.154L2.558 1395.308z" transform="scale(-1) rotate(2 41072.15 -64842.776)" fill="#ffc500" stroke="#707070" opacity=".21"/>
    </clipPath>
  </defs>
  <path d="M280.888 572.752L471.116 380.69l39.69 69.542 107.807 2.478s680.904 32.493 727.074 16.715 559.244-29.877 581.287 13.363 225.754 168.369 279.46 204.565 240.537 221.793 240.537 221.793l-70.689 629.047-242.76 53.984-177.568-228.113s-396.152-18.178-427.875-9.839-580.783 55.279-602.07 63.856-633.274 72.213-633.274 72.213l-246.482-92.434z" fill="#e600ff" opacity=".34"/>
  <path d="M399.337 495.422l383.94-70.596 346.372 61.075 169.509-20.264 217.624 12.964 352.061-33.446 485.696-41.96 176.125 88.083-112.392 958.223-131.83 43.765-203.896-102.962-246.468 23.55-207.167-36.528-191.057 13.359-124.39 35.09-157.693 15.683-320.06-4.397-239.33 33.363-215.765-38.045-216.884 80.807z" fill="#6ba8e5" stroke="#707070" opacity=".47"/>
  <path d="M246.788 471.07l383.425-59.905 344.6 71.127 173.86-33.612 212.085 37.297 351.262-23.537 484.546-28.282 292.69 164.964-240.108 886.576-131.855 40.158-202.154-109.098-245.91 16.616-206.101-42.54-190.573 7.97-124.35 31.672-157.34 11.245-318.968-13.515-238.9 26.663-214.662-44.307L1.31 1485.461z" fill="#c335fe" stroke="#707070" opacity=".3" stroke-width="1.00014"/>
  <path d="M2317.458 1588.493l-268.426-42.025-413.035-111.054-204.179 46.908-210-37.856-346.722-16.882-478.102-27.523-167.758-114.555 86.002-878.905 208.199-17.11 193.662 50.487 242.737 11.683 200.971 66.836 187.9 14.012 123.769-17.6 155.34 6.856 313.315 50.579 236.277.721 209.311 69.613 216.863-50.545z" fill="#979fd3" stroke="#707070" opacity=".15" stroke-width=".99979"/>
</svg>
