<?xml version="1.0" standalone="no"?>
<!DOCTYPE svg PUBLIC "-//W3C//DTD SVG 20010904//EN"
 "http://www.w3.org/TR/2001/REC-SVG-20010904/DTD/svg10.dtd">
<svg version="1.0" xmlns="http://www.w3.org/2000/svg"
 width="196.000000pt" height="196.000000pt" viewBox="0 0 196.000000 196.000000"
 preserveAspectRatio="xMidYMid meet">
<metadata>
Created by potrace 1.11, written by Peter Selinger 2001-2013
</metadata>
<g transform="translate(0.000000,196.000000) scale(0.100000,-0.100000)"
fill="#000000" stroke="none">
<path d="M750 1896 c-113 -34 -209 -63 -215 -65 -5 -2 -16 -5 -22 -7 -45 -14
-43 6 -43 -349 l0 -335 -61 0 -61 0 6 -57 c29 -273 249 -478 534 -496 51 -4
64 -2 70 12 5 9 8 83 7 164 l-2 148 81 -3 80 -3 1 -450 0 -450 39 3 c121 11
221 58 309 147 61 61 121 172 135 252 7 40 15 1553 8 1553 0 0 -111 -33 -246
-74 l-245 -73 -1 -329 c-1 -181 -2 -332 -3 -335 -1 -5 -134 -6 -151 -1 -3 1
-6 180 -5 398 0 218 -2 399 -5 404 -3 4 -97 -20 -210 -54z"/>
</g>
</svg>
